<?xml version="1.0" encoding="utf-8"?>
<!-- Generator: Adobe Illustrator 23.0.1, SVG Export Plug-In . SVG Version: 6.00 Build 0)  -->
<svg version="1.1" id="B1" xmlns="http://www.w3.org/2000/svg" xmlns:xlink="http://www.w3.org/1999/xlink" x="0px" y="0px"
	 viewBox="0 0 141.7 104.7" style="enable-background:new 0 0 141.7 104.7;" xml:space="preserve">
<g>
	<path style="fill:#2D3B80;" d="M50.7,37.5h4.9c0.8,0,1.4,0.6,1.4,1.4V47c0,0.8-0.6,1.4-1.4,1.4h-4.9c-0.8,0-1.4-0.6-1.4-1.4v-8.1
		C49.3,38.1,49.9,37.5,50.7,37.5z"/>
	<path style="fill:#2D3B80;" d="M59.2,37.5h4.9c0.8,0,1.4,0.6,1.4,1.4V47c0,0.8-0.6,1.4-1.4,1.4h-4.9c-0.8,0-1.4-0.6-1.4-1.4v-8.1
		C57.8,38.1,58.4,37.5,59.2,37.5z"/>
	<path style="fill:#2D3B80;" d="M67.7,37.5h4.9c0.8,0,1.4,0.6,1.4,1.4V47c0,0.8-0.6,1.4-1.4,1.4h-4.9c-0.8,0-1.4-0.6-1.4-1.4v-8.1
		C66.2,38.1,66.9,37.5,67.7,37.5z"/>
	<g>
		<path style="fill:#2C3B80;" d="M76.3,37.5h13.8c0.8,0,1.4,0.6,1.4,1.4V47c0,0.8-0.6,1.4-1.4,1.4H76.2c-0.8,0-1.4-0.6-1.4-1.4v-8.1
			C74.8,38.1,75.5,37.5,76.3,37.5z"/>
	</g>
	<path style="fill:#2D3B80;" d="M50.7,56.1h4.9c0.8,0,1.4,0.6,1.4,1.4v8.1c0,0.8-0.6,1.4-1.4,1.4h-4.9c-0.8,0-1.4-0.6-1.4-1.4v-8.1
		C49.3,56.7,49.9,56.1,50.7,56.1z"/>
	<path style="fill:#2D3B80;" d="M59.2,56.1h4.9c0.8,0,1.4,0.6,1.4,1.4v8.1c0,0.8-0.6,1.4-1.4,1.4h-4.9c-0.8,0-1.4-0.6-1.4-1.4v-8.1
		C57.8,56.7,58.4,56.1,59.2,56.1z"/>
	<path style="fill:#2D3B80;" d="M67.7,56.1h4.9c0.8,0,1.4,0.6,1.4,1.4v8.1c0,0.8-0.6,1.4-1.4,1.4h-4.9c-0.8,0-1.4-0.6-1.4-1.4v-8.1
		C66.2,56.7,66.9,56.1,67.7,56.1z"/>
	<path style="fill:#2C3B80;" d="M76.3,56.1h13.8c0.8,0,1.4,0.6,1.4,1.4v8.1c0,0.8-0.6,1.4-1.4,1.4H76.2c-0.8,0-1.4-0.6-1.4-1.4v-8.1
		C74.8,56.7,75.5,56.1,76.3,56.1z"/>
	<path style="fill:#3583C7;" d="M127.4,94.5H99.8c-0.8,0-1.4-0.6-1.4-1.4V78.9c0-0.8,0.6-1.4,1.4-1.4h27.6c0.8,0,1.4,0.6,1.4,1.4V93
		C128.8,93.8,128.2,94.5,127.4,94.5z"/>
	<path style="fill:#3583C7;" d="M96.2,77.5H44.8V65.4c0-0.8-0.6-1.4-1.4-1.4H15.8c-0.8,0-1.4,0.6-1.4,1.4V93c0,0.8,0.6,1.4,1.4,1.4
		h27.6c0,0,0.1,0,0.2,0h52.6c0.8,0,1.4-0.6,1.4-1.4V79C97.6,78.2,96.9,77.5,96.2,77.5z"/>
	<path style="fill:#3583C7;" d="M43.4,63.2H19.9c-0.8,0-1.4-0.6-1.4-1.4V42.5c0-0.8,0.6-1.4,1.4-1.4h23.5c0.8,0,1.4,0.6,1.4,1.4
		v19.3C44.8,62.6,44.2,63.2,43.4,63.2z"/>
	<path style="fill:#3583C7;" d="M55.6,30.1H14.3c-0.8,0-1.4-0.6-1.4-1.4V11.6c0-0.8,0.6-1.4,1.4-1.4h41.3c0.8,0,1.4,0.6,1.4,1.4
		v17.2C57,29.5,56.4,30.1,55.6,30.1z"/>
	<path style="fill:#3583C7;" d="M81.8,21.5H59.2c-0.8,0-1.4-0.6-1.4-1.4v-8.6c0-0.8,0.6-1.4,1.4-1.4h22.6c0.8,0,1.4,0.6,1.4,1.4v8.6
		C83.2,20.9,82.5,21.5,81.8,21.5z"/>
	<path style="fill:#3583C7;" d="M81.8,33.7H59.2c-0.8,0-1.4-0.6-1.4-1.4v-8.5c0-0.8,0.6-1.4,1.4-1.4h22.6c0.8,0,1.4,0.6,1.4,1.4v8.5
		C83.2,33,82.5,33.7,81.8,33.7z"/>
	<path style="fill:#3583C7;" d="M127.4,76.6H99.8c-0.8,0-1.4-0.6-1.4-1.4v-8.6c0-0.8,0.6-1.4,1.4-1.4h27.6c0.8,0,1.4,0.6,1.4,1.4
		v8.6C128.8,76,128.2,76.6,127.4,76.6z"/>
	<path style="fill:#3583C7;" d="M120.5,64.5H99.8c-0.8,0-1.4-0.6-1.4-1.4v-8.5c0-0.8,0.6-1.4,1.4-1.4h20.7c0.8,0,1.4,0.6,1.4,1.4V63
		C122,63.8,121.3,64.5,120.5,64.5z"/>
	<path style="fill:#3583C7;" d="M127.4,10.2H86.1c-0.8,0-1.4,0.6-1.4,1.4v20.7c0,0.8,0.6,1.4,1.4,1.4h12.5v4.8
		c-0.1,0.2-0.1,0.3-0.1,0.5v12c0,0.8,0.6,1.4,1.4,1.4h20.8c0.8,0,1.4-0.6,1.4-1.4V40.4h5.2c0.8,0,1.4-0.6,1.4-1.4v-6.6v-5.2V11.6
		C128.8,10.8,128.1,10.2,127.4,10.2z"/>
</g>
</svg>
