<?xml version="1.0" encoding="utf-8"?>
<!-- Generator: Adobe Illustrator 23.0.1, SVG Export Plug-In . SVG Version: 6.00 Build 0)  -->
<svg version="1.1" id="B1" xmlns="http://www.w3.org/2000/svg" xmlns:xlink="http://www.w3.org/1999/xlink" x="0px" y="0px"
	 viewBox="0 0 580.1 428.6" style="enable-background:new 0 0 580.1 428.6;" xml:space="preserve">
<g>
	<g>
		<path style="fill:#2D3B80;" d="M209.4,155H229c3.1,0,5.7,2.5,5.7,5.7V193c0,3.1-2.5,5.7-5.7,5.7h-19.7c-3.1,0-5.7-2.5-5.7-5.7
			v-32.4C203.7,157.5,206.2,155,209.4,155z"/>
		<path style="fill:#2D3B80;" d="M243.5,155h19.7c3.1,0,5.7,2.5,5.7,5.7V193c0,3.1-2.5,5.7-5.7,5.7h-19.7c-3.1,0-5.7-2.5-5.7-5.7
			v-32.4C237.8,157.5,240.3,155,243.5,155z"/>
		<path style="fill:#2D3B80;" d="M277.2,155h19.7c3.1,0,5.7,2.5,5.7,5.7V193c0,3.1-2.5,5.7-5.7,5.7h-19.7c-3.1,0-5.7-2.5-5.7-5.7
			v-32.4C271.5,157.5,274,155,277.2,155z"/>
		<g>
			<path style="fill:#2D3B80;" d="M311.6,155H367c3.1,0,5.7,2.5,5.7,5.7V193c0,3.1-2.5,5.7-5.7,5.7h-55.5c-3.1,0-5.7-2.5-5.7-5.7
				v-32.4C305.9,157.5,308.4,155,311.6,155z"/>
		</g>
		<path style="fill:#2D3B80;" d="M209.4,229.5H229c3.1,0,5.7,2.5,5.7,5.7v32.4c0,3.1-2.5,5.7-5.7,5.7h-19.7c-3.1,0-5.7-2.5-5.7-5.7
			v-32.4C203.7,232,206.2,229.5,209.4,229.5z"/>
		<path style="fill:#2D3B80;" d="M243.5,229.5h19.7c3.1,0,5.7,2.5,5.7,5.7v32.4c0,3.1-2.5,5.7-5.7,5.7h-19.7c-3.1,0-5.7-2.5-5.7-5.7
			v-32.4C237.8,232,240.3,229.5,243.5,229.5z"/>
		<path style="fill:#2D3B80;" d="M277.2,229.5h19.7c3.1,0,5.7,2.5,5.7,5.7v32.4c0,3.1-2.5,5.7-5.7,5.7h-19.7c-3.1,0-5.7-2.5-5.7-5.7
			v-32.4C271.5,232,274,229.5,277.2,229.5z"/>
		<path style="fill:#2D3B80;" d="M311.6,229.5H367c3.1,0,5.7,2.5,5.7,5.7v32.4c0,3.1-2.5,5.7-5.7,5.7h-55.5c-3.1,0-5.7-2.5-5.7-5.7
			v-32.4C305.9,232,308.4,229.5,311.6,229.5z"/>
	</g>
	<path style="fill:#3583C7;" d="M367,315.1H173.8V306v-39.1v-91.7c0-3.1-2.5-5.7-5.7-5.7h-82c-3.1,0-5.7,2.5-5.7,5.7v86H63.9
		c-3.1,0-5.7,2.5-5.7,5.7v110.2c0,3.1,2.5,5.7,5.7,5.7H166c0.5,0.1,1,0.2,1.5,0.2H367c3.1,0,5.7-2.5,5.7-5.7v-56.5
		C372.7,317.7,370.2,315.1,367,315.1z"/>
	<path style="fill:#3583C7;" d="M516,148.9h-79.1c-3.1,0-5.7-2.5-5.7-5.7V51.3c0-3.1,2.5-5.7,5.7-5.7H516c3.1,0,5.7,2.5,5.7,5.7
		v91.9C521.6,146.3,519.1,148.9,516,148.9z"/>
	<path style="fill:#3583C7;" d="M488.3,212h-83.2c-2,0-3.6-1.6-3.6-3.6v-35.2c0-2,1.6-3.6,3.6-3.6h83.2c2,0,3.6,1.6,3.6,3.6v35.2
		C492,210.4,490.3,212,488.3,212z"/>
	<path style="fill:#3583C7;" d="M488.3,257.9h-83.2c-2,0-3.6-1.6-3.6-3.6V219c0-2,1.6-3.6,3.6-3.6h83.2c2,0,3.6,1.6,3.6,3.6v35.2
		C492,256.3,490.3,257.9,488.3,257.9z"/>
	<path style="fill:#3583C7;" d="M516.1,382.8H405.9c-2.7,0-4.9-2.2-4.9-4.9v-49.3c0-2.7,2.2-4.9,4.9-4.9h110.2
		c2.7,0,4.9,2.2,4.9,4.9v49.3C521.1,380.5,518.8,382.8,516.1,382.8z"/>
	<path style="fill:#3583C7;" d="M516.1,320.3H405.9c-2.7,0-4.9-2.2-4.9-4.9v-49.2c0-2.7,2.2-4.9,4.9-4.9h110.2
		c2.7,0,4.9,2.2,4.9,4.9v49.2C521.1,318.1,518.8,320.3,516.1,320.3z"/>
	<path style="fill:#3583C7;" d="M143,148.9H63.9c-3.1,0-5.7-2.5-5.7-5.7V51.3c0-3.1,2.5-5.7,5.7-5.7H143c3.1,0,5.7,2.5,5.7,5.7v91.9
		C148.7,146.3,146.2,148.9,143,148.9z"/>
	<path style="fill:#3583C7;" d="M422.9,121H157.2c-2.9,0-5.2-2.3-5.2-5.2V50.9c0-2.9,2.3-5.2,5.2-5.2h265.8c2.9,0,5.2,2.3,5.2,5.2
		v64.8C428.2,118.6,425.8,121,422.9,121z"/>
</g>
</svg>
