<?xml version="1.0" encoding="utf-8"?>
<!-- Generator: Adobe Illustrator 23.0.1, SVG Export Plug-In . SVG Version: 6.00 Build 0)  -->
<svg version="1.1" id="B1" xmlns="http://www.w3.org/2000/svg" xmlns:xlink="http://www.w3.org/1999/xlink" x="0px" y="0px"
	 viewBox="0 0 580.1 428.6" style="enable-background:new 0 0 580.1 428.6;" xml:space="preserve">
<g>
	<path style="fill:#2D3B80;" d="M209.4,155H229c3.1,0,5.7,2.5,5.7,5.7V193c0,3.1-2.5,5.7-5.7,5.7h-19.7c-3.1,0-5.7-2.5-5.7-5.7
		v-32.4C203.7,157.5,206.2,155,209.4,155z"/>
	<path style="fill:#2D3B80;" d="M243.5,155h19.7c3.1,0,5.7,2.5,5.7,5.7V193c0,3.1-2.5,5.7-5.7,5.7h-19.7c-3.1,0-5.7-2.5-5.7-5.7
		v-32.4C237.8,157.5,240.3,155,243.5,155z"/>
	<path style="fill:#2D3B80;" d="M277.2,155h19.7c3.1,0,5.7,2.5,5.7,5.7V193c0,3.1-2.5,5.7-5.7,5.7h-19.7c-3.1,0-5.7-2.5-5.7-5.7
		v-32.4C271.5,157.5,274,155,277.2,155z"/>
	<g>
		<path style="fill:#2D3B80;" d="M311.6,155H367c3.1,0,5.7,2.5,5.7,5.7V193c0,3.1-2.5,5.7-5.7,5.7h-55.5c-3.1,0-5.7-2.5-5.7-5.7
			v-32.4C305.9,157.5,308.4,155,311.6,155z"/>
	</g>
	<path style="fill:#2D3B80;" d="M209.4,229.5H229c3.1,0,5.7,2.5,5.7,5.7v32.4c0,3.1-2.5,5.7-5.7,5.7h-19.7c-3.1,0-5.7-2.5-5.7-5.7
		v-32.4C203.7,232,206.2,229.5,209.4,229.5z"/>
	<path style="fill:#2D3B80;" d="M243.5,229.5h19.7c3.1,0,5.7,2.5,5.7,5.7v32.4c0,3.1-2.5,5.7-5.7,5.7h-19.7c-3.1,0-5.7-2.5-5.7-5.7
		v-32.4C237.8,232,240.3,229.5,243.5,229.5z"/>
	<path style="fill:#2D3B80;" d="M277.2,229.5h19.7c3.1,0,5.7,2.5,5.7,5.7v32.4c0,3.1-2.5,5.7-5.7,5.7h-19.7c-3.1,0-5.7-2.5-5.7-5.7
		v-32.4C271.5,232,274,229.5,277.2,229.5z"/>
	<path style="fill:#2D3B80;" d="M311.6,229.5H367c3.1,0,5.7,2.5,5.7,5.7v32.4c0,3.1-2.5,5.7-5.7,5.7h-55.5c-3.1,0-5.7-2.5-5.7-5.7
		v-32.4C305.9,232,308.4,229.5,311.6,229.5z"/>
</g>
<path style="fill:#3583C7;" d="M167.5,148.9H66.1c-3.5,0-6.4-2.9-6.4-6.4V52c0-3.5,2.9-6.4,6.4-6.4h101.3c3.5,0,6.4,2.9,6.4,6.4
	v90.5C173.8,146,171,148.9,167.5,148.9z"/>
<path style="fill:#3583C7;" d="M280.4,148.3H209c-3,0-5.4-2.4-5.4-5.4V51.6c0-3,2.4-5.4,5.4-5.4h71.5c3,0,5.4,2.4,5.4,5.4v91.3
	C285.8,145.9,283.4,148.3,280.4,148.3z"/>
<path style="fill:#3583C7;" d="M516.8,104.4H410.5c-2.7,0-4.8-2.2-4.8-4.8V50.5c0-2.7,2.2-4.8,4.8-4.8h106.3c2.7,0,4.8,2.2,4.8,4.8
	v49.1C521.6,102.3,519.5,104.4,516.8,104.4z"/>
<path style="fill:#3583C7;" d="M516.8,166.2H410.5c-2.7,0-4.8-2.2-4.8-4.8v-49.1c0-2.7,2.2-4.8,4.8-4.8h106.3c2.7,0,4.8,2.2,4.8,4.8
	v49.1C521.6,164.1,519.5,166.2,516.8,166.2z"/>
<path style="fill:#3583C7;" d="M489.7,212h-85.9c-2,0-3.7-1.7-3.7-3.7V173c0-2,1.7-3.7,3.7-3.7h85.9c2,0,3.7,1.7,3.7,3.7v35.3
	C493.4,210.4,491.8,212,489.7,212z"/>
<path style="fill:#3583C7;" d="M169.4,155H63.5c-2,0-3.7,1.7-3.7,3.7V171c0,2,1.7,3.7,3.7,3.7h17.9V201c0,1.8,1.5,3.2,3.2,3.2h85.2
	c1.8,0,3.2-1.5,3.2-3.2V186v-13.3v-14C173.1,156.7,171.4,155,169.4,155z"/>
<path style="fill:#3583C7;" d="M488.7,284.1h-83.9c-2.6,0-4.7-2.1-4.7-4.7V220c0-2.6,2.1-4.7,4.7-4.7h83.9c2.6,0,4.7,2.1,4.7,4.7
	v59.4C493.4,282,491.3,284.1,488.7,284.1z"/>
<path style="fill:#3583C7;" d="M284.2,383.4H208c-3.1,0-5.6-2.5-5.6-5.6V286c0-3.1,2.5-5.6,5.6-5.6h76.2c3.1,0,5.6,2.5,5.6,5.6v91.8
	C289.8,380.9,287.3,383.4,284.2,383.4z"/>
<path style="fill:#3583C7;" d="M167.6,383.4H70.9c-3.4,0-6.2-2.8-6.2-6.2v-90.5c0-3.4,2.8-6.2,6.2-6.2h96.8c3.4,0,6.2,2.8,6.2,6.2
	v90.5C173.8,380.6,171.1,383.4,167.6,383.4z"/>
<path style="fill:#3583C7;" d="M514.4,383H302.9c-4,0-7.3-3.3-7.3-7.3v-53.3c0-4,3.3-7.3,7.3-7.3h211.5c4,0,7.3,3.3,7.3,7.3v53.3
	C521.6,379.7,518.4,383,514.4,383z"/>
<path style="fill:#3583C7;" d="M366.9,148.3h-71.5c-3,0-5.4-2.4-5.4-5.4V51.6c0-3,2.4-5.4,5.4-5.4h71.5c3,0,5.4,2.4,5.4,5.4v91.3
	C372.3,145.9,369.8,148.3,366.9,148.3z"/>
</svg>
