<?xml version="1.0" encoding="utf-8"?>
<!-- Generator: Adobe Illustrator 23.0.1, SVG Export Plug-In . SVG Version: 6.00 Build 0)  -->
<svg version="1.1" id="B1" xmlns="http://www.w3.org/2000/svg" xmlns:xlink="http://www.w3.org/1999/xlink" x="0px" y="0px"
	 viewBox="0 0 141.7 104.7" style="enable-background:new 0 0 141.7 104.7;" xml:space="preserve">
<g>
	<g>
		<path style="fill:#3583C7;" d="M31.8,24.2V11.6c0-0.8-0.6-1.4-1.4-1.4H14.3c-0.8,0-1.4,0.6-1.4,1.4v27.3c0,0.8,0.6,1.4,1.4,1.4
			h8.5h9h8.5c0.8,0,1.4-0.6,1.4-1.4V27c0-0.8-0.6-1.4-1.4-1.4h-7.1C32.5,25.6,31.8,25,31.8,24.2z"/>
		<path style="fill:#3583C7;" d="M70,10.2H59.5h-5.6h-19c-1.2,0-2.2,0.6-2.2,1.4v11.9c0,0.8,1,1.4,2.2,1.4h19h5.6H70
			c0.8,0,1.4-0.6,1.4-1.4V11.6C71.4,10.8,70.8,10.2,70,10.2z"/>
		<path style="fill:#3583C7;" d="M73.6,10.1h12.2c0.8,0,1.4,0.6,1.4,1.4v11.9c0,0.8-0.6,1.4-1.4,1.4H73.6c-0.8,0-1.4-0.6-1.4-1.4
			V11.6C72.2,10.8,72.8,10.1,73.6,10.1z"/>
		<path style="fill:#3583C7;" d="M89.4,10.1h12.2c0.8,0,1.4,0.6,1.4,1.4v11.9c0,0.8-0.6,1.4-1.4,1.4H89.4c-0.8,0-1.4-0.6-1.4-1.4
			V11.6C87.9,10.8,88.6,10.1,89.4,10.1z"/>
		<path style="fill:#3583C7;" d="M105.3,10.1h22c0.8,0,1.4,0.6,1.4,1.4v11.9c0,0.8-0.6,1.4-1.4,1.4h-22.1c-0.8,0-1.4-0.6-1.4-1.4
			V11.6C103.8,10.8,104.5,10.1,105.3,10.1z"/>
		<path style="fill:#3583C7;" d="M105.3,25.6h22c0.8,0,1.4,0.6,1.4,1.4v11.8c0,0.8-0.6,1.4-1.4,1.4h-22.1c-0.8,0-1.4-0.6-1.4-1.4V27
			C103.8,26.2,104.5,25.6,105.3,25.6z"/>
		<path style="fill:#3583C7;" d="M99.8,41.1H121c0.4,0,0.7,0.3,0.7,0.7v8.5c0,0.8-0.6,1.4-1.4,1.4H99.7c-0.8,0-1.4-0.6-1.4-1.4v-7.8
			C98.3,41.7,99,41.1,99.8,41.1z"/>
		<path style="fill:#3583C7;" d="M99.7,52.6h20.5c0.8,0,1.4,0.6,1.4,1.4v7.8c0,0.8-0.6,1.4-1.4,1.4H99.7c-0.8,0-1.4-0.6-1.4-1.4V54
			C98.3,53.2,99,52.6,99.7,52.6z"/>
		<path style="fill:#3583C7;" d="M19.8,41.1h20.5c0.8,0,1.4,0.6,1.4,1.4v7.8c0,0.8-0.6,1.4-1.4,1.4H19.8c-0.8,0-1.4-0.6-1.4-1.4
			v-7.8C18.4,41.7,19.1,41.1,19.8,41.1z"/>
		<path style="fill:#3583C7;" d="M19.9,52.6h20.5c0.8,0,1.4,0.6,1.4,1.4v7.8c0,0.8-0.6,1.4-1.4,1.4H19.9c-0.8,0-1.4-0.6-1.4-1.4V54
			C18.4,53.2,19.1,52.6,19.9,52.6z"/>
		<path style="fill:#3583C7;" d="M96.1,77.5H76.4h-3.2H47.3c-1,0-1.8,0.7-1.8,1.4V93c0,0.8,0.8,1.4,1.8,1.4H73c0.1,0,0.2,0,0.2,0
			h22.8c0.8,0,1.4-0.7,1.4-1.4V78.9C97.5,78.1,96.9,77.5,96.1,77.5z"/>
		<path style="fill:#3583C7;" d="M99.8,64h27.6c0.8,0,1.4,0.6,1.4,1.4V93c0,0.8-0.6,1.4-1.4,1.4H99.8c-0.8,0-1.4-0.6-1.4-1.4V65.5
			C98.3,64.7,99,64,99.8,64z"/>
		<path style="fill:#3583C7;" d="M15.8,64h27.6c0.8,0,1.4,0.6,1.4,1.4V93c0,0.8-0.6,1.4-1.4,1.4H15.8c-0.8,0-1.4-0.6-1.4-1.4V65.4
			C14.4,64.7,15,64,15.8,64z"/>
	</g>
	<path style="fill:#2D3B80;" d="M50.7,37.5h4.9c0.8,0,1.4,0.6,1.4,1.4V47c0,0.8-0.6,1.4-1.4,1.4h-4.9c-0.8,0-1.4-0.6-1.4-1.4v-8.1
		C49.2,38.1,49.9,37.5,50.7,37.5z"/>
	<path style="fill:#2D3B80;" d="M59.2,37.5h4.9c0.8,0,1.4,0.6,1.4,1.4V47c0,0.8-0.6,1.4-1.4,1.4h-4.9c-0.8,0-1.4-0.6-1.4-1.4v-8.1
		C57.8,38.1,58.4,37.5,59.2,37.5z"/>
	<path style="fill:#2D3B80;" d="M67.6,37.5h4.9c0.8,0,1.4,0.6,1.4,1.4V47c0,0.8-0.6,1.4-1.4,1.4h-4.9c-0.8,0-1.4-0.6-1.4-1.4v-8.1
		C66.2,38.1,66.8,37.5,67.6,37.5z"/>
	<g>
		<path style="fill:#2C3B80;" d="M76.2,37.5h13.8c0.8,0,1.4,0.6,1.4,1.4V47c0,0.8-0.6,1.4-1.4,1.4H76.2c-0.8,0-1.4-0.6-1.4-1.4v-8.1
			C74.8,38.1,75.4,37.5,76.2,37.5z"/>
	</g>
	<path style="fill:#2D3B80;" d="M50.7,56.1h4.9c0.8,0,1.4,0.6,1.4,1.4v8.1c0,0.8-0.6,1.4-1.4,1.4h-4.9c-0.8,0-1.4-0.6-1.4-1.4v-8.1
		C49.2,56.7,49.9,56.1,50.7,56.1z"/>
	<path style="fill:#2D3B80;" d="M59.2,56.1h4.9c0.8,0,1.4,0.6,1.4,1.4v8.1c0,0.8-0.6,1.4-1.4,1.4h-4.9c-0.8,0-1.4-0.6-1.4-1.4v-8.1
		C57.8,56.7,58.4,56.1,59.2,56.1z"/>
	<path style="fill:#2D3B80;" d="M67.6,56.1h4.9c0.8,0,1.4,0.6,1.4,1.4v8.1c0,0.8-0.6,1.4-1.4,1.4h-4.9c-0.8,0-1.4-0.6-1.4-1.4v-8.1
		C66.2,56.7,66.8,56.1,67.6,56.1z"/>
	<path style="fill:#2C3B80;" d="M76.2,56.1h13.8c0.8,0,1.4,0.6,1.4,1.4v8.1c0,0.8-0.6,1.4-1.4,1.4H76.2c-0.8,0-1.4-0.6-1.4-1.4v-8.1
		C74.8,56.7,75.4,56.1,76.2,56.1z"/>
</g>
</svg>
