<?xml version="1.0" encoding="utf-8"?>
<!-- Generator: Adobe Illustrator 23.0.1, SVG Export Plug-In . SVG Version: 6.00 Build 0)  -->
<svg version="1.1" id="B1" xmlns="http://www.w3.org/2000/svg" xmlns:xlink="http://www.w3.org/1999/xlink" x="0px" y="0px"
	 viewBox="0 0 141.7 104.7" style="enable-background:new 0 0 141.7 104.7;" xml:space="preserve">
<g>
	<g>
		<path style="fill:#2D3B80;" d="M50.6,37.5h4.9c0.8,0,1.4,0.6,1.4,1.4V47c0,0.8-0.6,1.4-1.4,1.4h-4.9c-0.8,0-1.4-0.6-1.4-1.4v-8.1
			C49.2,38.2,49.8,37.5,50.6,37.5z"/>
		<path style="fill:#2D3B80;" d="M59.2,37.5h4.9c0.8,0,1.4,0.6,1.4,1.4V47c0,0.8-0.6,1.4-1.4,1.4h-4.9c-0.8,0-1.4-0.6-1.4-1.4v-8.1
			C57.7,38.2,58.4,37.5,59.2,37.5z"/>
		<path style="fill:#2D3B80;" d="M67.6,37.5h4.9c0.8,0,1.4,0.6,1.4,1.4V47c0,0.8-0.6,1.4-1.4,1.4h-4.9c-0.8,0-1.4-0.6-1.4-1.4v-8.1
			C66.2,38.2,66.8,37.5,67.6,37.5z"/>
		<g>
			<path style="fill:#2C3B80;" d="M76.2,37.5H90c0.8,0,1.4,0.6,1.4,1.4V47c0,0.8-0.6,1.4-1.4,1.4H76.2c-0.8,0-1.4-0.6-1.4-1.4v-8.1
				C74.8,38.2,75.4,37.5,76.2,37.5z"/>
		</g>
		<path style="fill:#2D3B80;" d="M50.6,56.2h4.9c0.8,0,1.4,0.6,1.4,1.4v8.1c0,0.8-0.6,1.4-1.4,1.4h-4.9c-0.8,0-1.4-0.6-1.4-1.4v-8.1
			C49.2,56.8,49.8,56.2,50.6,56.2z"/>
		<path style="fill:#2D3B80;" d="M59.2,56.2h4.9c0.8,0,1.4,0.6,1.4,1.4v8.1c0,0.8-0.6,1.4-1.4,1.4h-4.9c-0.8,0-1.4-0.6-1.4-1.4v-8.1
			C57.7,56.8,58.4,56.2,59.2,56.2z"/>
		<path style="fill:#2D3B80;" d="M67.6,56.2h4.9c0.8,0,1.4,0.6,1.4,1.4v8.1c0,0.8-0.6,1.4-1.4,1.4h-4.9c-0.8,0-1.4-0.6-1.4-1.4v-8.1
			C66.2,56.8,66.8,56.2,67.6,56.2z"/>
		<path style="fill:#2C3B80;" d="M76.2,56.2H90c0.8,0,1.4,0.6,1.4,1.4v8.1c0,0.8-0.6,1.4-1.4,1.4H76.2c-0.8,0-1.4-0.6-1.4-1.4v-8.1
			C74.8,56.8,75.4,56.2,76.2,56.2z"/>
	</g>
	<path style="fill:#3583C7;" d="M90,77.6H41.7v-2.3v-9.8V42.6c0-0.8-0.6-1.4-1.4-1.4H19.8c-0.8,0-1.4,0.6-1.4,1.4v21.5h-4.1
		c-0.8,0-1.4,0.6-1.4,1.4v27.6c0,0.8,0.6,1.4,1.4,1.4h25.5c0.1,0,0.2,0.1,0.4,0.1H90c0.8,0,1.4-0.6,1.4-1.4V79
		C91.5,78.2,90.8,77.6,90,77.6z"/>
	<path style="fill:#3583C7;" d="M127.3,36h-19.8c-0.8,0-1.4-0.6-1.4-1.4v-23c0-0.8,0.6-1.4,1.4-1.4h19.8c0.8,0,1.4,0.6,1.4,1.4v23
		C128.7,35.4,128.1,36,127.3,36z"/>
	<path style="fill:#3583C7;" d="M120.4,51.8H99.6c-0.5,0-0.9-0.4-0.9-0.9v-8.8c0-0.5,0.4-0.9,0.9-0.9h20.8c0.5,0,0.9,0.4,0.9,0.9
		v8.8C121.3,51.4,120.9,51.8,120.4,51.8z"/>
	<path style="fill:#3583C7;" d="M120.4,63.3H99.6c-0.5,0-0.9-0.4-0.9-0.9v-8.8c0-0.5,0.4-0.9,0.9-0.9h20.8c0.5,0,0.9,0.4,0.9,0.9
		v8.8C121.3,62.9,120.9,63.3,120.4,63.3z"/>
	<path style="fill:#3583C7;" d="M127.3,94.5H99.8c-0.7,0-1.2-0.6-1.2-1.2V80.9c0-0.7,0.6-1.2,1.2-1.2h27.5c0.7,0,1.2,0.6,1.2,1.2
		v12.3C128.6,93.9,128,94.5,127.3,94.5z"/>
	<path style="fill:#3583C7;" d="M127.3,78.9H99.8c-0.7,0-1.2-0.6-1.2-1.2V65.3c0-0.7,0.6-1.2,1.2-1.2h27.5c0.7,0,1.2,0.6,1.2,1.2
		v12.3C128.6,78.3,128,78.9,127.3,78.9z"/>
	<path style="fill:#3583C7;" d="M34,36H14.3c-0.8,0-1.4-0.6-1.4-1.4v-23c0-0.8,0.6-1.4,1.4-1.4H34c0.8,0,1.4,0.6,1.4,1.4v23
		C35.5,35.4,34.8,36,34,36z"/>
	<path style="fill:#3583C7;" d="M104,29H37.6c-0.7,0-1.3-0.6-1.3-1.3V11.5c0-0.7,0.6-1.3,1.3-1.3H104c0.7,0,1.3,0.6,1.3,1.3v16.2
		C105.3,28.4,104.7,29,104,29z"/>
</g>
</svg>
