<?xml version="1.0" encoding="utf-8"?>
<!-- Generator: Adobe Illustrator 23.0.1, SVG Export Plug-In . SVG Version: 6.00 Build 0)  -->
<svg version="1.1" id="B1" xmlns="http://www.w3.org/2000/svg" xmlns:xlink="http://www.w3.org/1999/xlink" x="0px" y="0px"
	 viewBox="0 0 141.7 104.7" style="enable-background:new 0 0 141.7 104.7;" xml:space="preserve">
<g>
	<path style="fill:#2D3B80;" d="M51.2,37.7h4.9c0.8,0,1.4,0.6,1.4,1.4v8.1c0,0.8-0.6,1.4-1.4,1.4h-4.9c-0.8,0-1.4-0.6-1.4-1.4v-8.1
		C49.8,38.3,50.4,37.7,51.2,37.7z"/>
	<path style="fill:#2D3B80;" d="M59.7,37.7h4.9c0.8,0,1.4,0.6,1.4,1.4v8.1c0,0.8-0.6,1.4-1.4,1.4h-4.9c-0.8,0-1.4-0.6-1.4-1.4v-8.1
		C58.3,38.3,58.9,37.7,59.7,37.7z"/>
	<path style="fill:#2D3B80;" d="M68.1,37.7h4.9c0.8,0,1.4,0.6,1.4,1.4v8.1c0,0.8-0.6,1.4-1.4,1.4h-4.9c-0.8,0-1.4-0.6-1.4-1.4v-8.1
		C66.7,38.3,67.3,37.7,68.1,37.7z"/>
	<g>
		<path style="fill:#2C3B80;" d="M76.7,37.7h13.8c0.8,0,1.4,0.6,1.4,1.4v8.1c0,0.8-0.6,1.4-1.4,1.4H76.7c-0.8,0-1.4-0.6-1.4-1.4
			v-8.1C75.3,38.3,75.9,37.7,76.7,37.7z"/>
	</g>
	<path style="fill:#2D3B80;" d="M51.2,56.3h4.9c0.8,0,1.4,0.6,1.4,1.4v8.1c0,0.8-0.6,1.4-1.4,1.4h-4.9c-0.8,0-1.4-0.6-1.4-1.4v-8.1
		C49.8,56.9,50.4,56.3,51.2,56.3z"/>
	<path style="fill:#2D3B80;" d="M59.7,56.3h4.9c0.8,0,1.4,0.6,1.4,1.4v8.1c0,0.8-0.6,1.4-1.4,1.4h-4.9c-0.8,0-1.4-0.6-1.4-1.4v-8.1
		C58.3,56.9,58.9,56.3,59.7,56.3z"/>
	<path style="fill:#2D3B80;" d="M68.1,56.3h4.9c0.8,0,1.4,0.6,1.4,1.4v8.1c0,0.8-0.6,1.4-1.4,1.4h-4.9c-0.8,0-1.4-0.6-1.4-1.4v-8.1
		C66.7,56.9,67.3,56.3,68.1,56.3z"/>
	<path style="fill:#2C3B80;" d="M76.7,56.3h13.8c0.8,0,1.4,0.6,1.4,1.4v8.1c0,0.8-0.6,1.4-1.4,1.4H76.7c-0.8,0-1.4-0.6-1.4-1.4v-8.1
		C75.3,56.9,75.9,56.3,76.7,56.3z"/>
</g>
<path style="fill:#3583C7;" d="M40.7,36.2H15.4c-0.9,0-1.6-0.7-1.6-1.6V11.9c0-0.9,0.7-1.6,1.6-1.6h25.3c0.9,0,1.6,0.7,1.6,1.6v22.6
	C42.3,35.4,41.6,36.2,40.7,36.2z"/>
<path style="fill:#3583C7;" d="M68.9,36H51.1c-0.8,0-1.3-0.6-1.3-1.3V11.8c0-0.8,0.6-1.4,1.3-1.4H69c0.8,0,1.3,0.6,1.3,1.4v22.8
	C70.3,35.4,69.7,36,68.9,36z"/>
<path style="fill:#3583C7;" d="M128,25h-26.6c-0.7,0-1.2-0.5-1.2-1.2V11.6c0-0.7,0.6-1.2,1.2-1.2H128c0.7,0,1.2,0.6,1.2,1.2v12.3
	C129.2,24.5,128.7,25,128,25z"/>
<path style="fill:#3583C7;" d="M128,40.5h-26.6c-0.7,0-1.2-0.5-1.2-1.2V27c0-0.7,0.6-1.2,1.2-1.2H128c0.7,0,1.2,0.5,1.2,1.2v12.3
	C129.2,40,128.7,40.5,128,40.5z"/>
<path style="fill:#3583C7;" d="M121.3,51.9H99.8c-0.5,0-0.9-0.4-0.9-0.9v-8.8c0-0.5,0.4-0.9,0.9-0.9h21.5c0.5,0,0.9,0.4,0.9,0.9V51
	C122.2,51.5,121.8,51.9,121.3,51.9z"/>
<path style="fill:#3583C7;" d="M41.2,37.7H14.7c-0.5,0-0.9,0.4-0.9,0.9v3.1c0,0.5,0.4,0.9,0.9,0.9h4.5v6.6c0,0.5,0.4,0.8,0.8,0.8
	h21.3c0.5,0,0.8-0.4,0.8-0.8v-3.8v-3.3v-3.5C42.1,38.1,41.7,37.7,41.2,37.7z"/>
<path style="fill:#3583C7;" d="M121,70h-21c-0.7,0-1.2-0.5-1.2-1.2V53.9c0-0.7,0.5-1.2,1.2-1.2h21c0.7,0,1.2,0.5,1.2,1.2v14.8
	C122.2,69.4,121.7,70,121,70z"/>
<path style="fill:#3583C7;" d="M69.9,94.8H50.8c-0.8,0-1.4-0.6-1.4-1.4V70.4c0-0.8,0.6-1.4,1.4-1.4h19.1c0.8,0,1.4,0.6,1.4,1.4v22.9
	C71.3,94.2,70.7,94.8,69.9,94.8z"/>
<path style="fill:#3583C7;" d="M40.7,94.8H16.6c-0.9,0-1.6-0.7-1.6-1.6V70.6c0-0.8,0.7-1.6,1.6-1.6h24.2c0.8,0,1.5,0.7,1.5,1.6v22.6
	C42.3,94.1,41.6,94.8,40.7,94.8z"/>
<path style="fill:#3583C7;" d="M127.4,94.7H74.6c-1,0-1.8-0.8-1.8-1.8V79.5c0-1,0.8-1.8,1.8-1.8h52.9c1,0,1.8,0.8,1.8,1.8v13.3
	C129.2,93.9,128.4,94.7,127.4,94.7z"/>
<path style="fill:#3583C7;" d="M90.6,36H72.7c-0.8,0-1.3-0.6-1.3-1.3V11.8c0-0.8,0.6-1.4,1.3-1.4h17.9c0.8,0,1.3,0.6,1.3,1.4v22.8
	C91.9,35.4,91.3,36,90.6,36z"/>
</svg>
