<?xml version="1.0" encoding="utf-8"?>
<!-- Generator: Adobe Illustrator 23.0.1, SVG Export Plug-In . SVG Version: 6.00 Build 0)  -->
<svg version="1.1" id="B1" xmlns="http://www.w3.org/2000/svg" xmlns:xlink="http://www.w3.org/1999/xlink" x="0px" y="0px"
	 viewBox="0 0 141.7 104.7" style="enable-background:new 0 0 141.7 104.7;" xml:space="preserve">
<path style="opacity:0.3;fill:#4A7793;enable-background:new    ;" d="M142.5,40.6h-2.9c-0.3-7.1-0.8-14.3-1.6-21.4l-1.3-11.9
	c0-1.2-1-2.2-2.2-2.2L127,4.8L127,7.4L100,6.5l0.1-2.7L84.4,3.2v2.4H57.5V3.1L43.9,3.7l0.1,2.7L17,7.2l-0.1-2.4L6.7,5.2
	c-1.2,0-2.2,1-2.2,2.2l0,0c-1.2,10.5-1.9,21-2.3,31.5h-2.8v26.9h2.8c0.3,10.5,1.1,21.1,2.3,31.5l0,0c0,1.2,1,2.2,2.2,2.2l10.3,0.4
	l0.1-2.8L44.1,98l-0.1,2.9l13.5,0.5v-2.3h26.9v2.3l15.8-0.6l-0.1-2.8l26.9-0.8l0.1,2.6l7.4-0.3c1.2,0,2.2-1,2.2-2.2l1.3-11.8
	c0.7-6,1.1-11.9,1.4-18h3L142.5,40.6L142.5,40.6z"/>
<g>
	<g>
		<path style="fill:#2D3B80;" d="M174.5-63.6h4.9c0.8,0,1.4,0.6,1.4,1.4v8.1c0,0.8-0.6,1.4-1.4,1.4h-4.9c-0.8,0-1.4-0.6-1.4-1.4
			v-8.1C173.1-63,173.7-63.6,174.5-63.6z"/>
		<path style="fill:#2D3B80;" d="M183-63.6h4.9c0.8,0,1.4,0.6,1.4,1.4v8.1c0,0.8-0.6,1.4-1.4,1.4H183c-0.8,0-1.4-0.6-1.4-1.4v-8.1
			C181.6-63,182.2-63.6,183-63.6z"/>
		<path style="fill:#2D3B80;" d="M191.5-63.6h4.9c0.8,0,1.4,0.6,1.4,1.4v8.1c0,0.8-0.6,1.4-1.4,1.4h-4.9c-0.8,0-1.4-0.6-1.4-1.4
			v-8.1C190-63,190.7-63.6,191.5-63.6z"/>
		<g>
			<path style="fill:#2C3B80;" d="M200.1-63.6h13.9c0.8,0,1.4,0.6,1.4,1.4v8.1c0,0.8-0.6,1.4-1.4,1.4H200c-0.8,0-1.4-0.6-1.4-1.4
				v-8.1C198.6-63,199.3-63.6,200.1-63.6z"/>
		</g>
		<path style="fill:#2D3B80;" d="M174.5-45h4.9c0.8,0,1.4,0.6,1.4,1.4v8.1c0,0.8-0.6,1.4-1.4,1.4h-4.9c-0.8,0-1.4-0.6-1.4-1.4v-8.1
			C173.1-44.4,173.7-45,174.5-45z"/>
		<path style="fill:#2D3B80;" d="M183-45h4.9c0.8,0,1.4,0.6,1.4,1.4v8.1c0,0.8-0.6,1.4-1.4,1.4H183c-0.8,0-1.4-0.6-1.4-1.4v-8.1
			C181.6-44.4,182.2-45,183-45z"/>
		<path style="fill:#2D3B80;" d="M191.5-45h4.9c0.8,0,1.4,0.6,1.4,1.4v8.1c0,0.8-0.6,1.4-1.4,1.4h-4.9c-0.8,0-1.4-0.6-1.4-1.4v-8.1
			C190-44.4,190.7-45,191.5-45z"/>
		<path style="fill:#2C3B80;" d="M200.1-45h13.9c0.8,0,1.4,0.6,1.4,1.4v8.1c0,0.8-0.6,1.4-1.4,1.4H200c-0.8,0-1.4-0.6-1.4-1.4v-8.1
			C198.6-44.4,199.3-45,200.1-45z"/>
	</g>
	<path style="fill:#3583C7;" d="M213.9-23.6h-48.3v-2.3v-9.8v-22.9c0-0.8-0.6-1.4-1.4-1.4h-20.5c-0.8,0-1.4,0.6-1.4,1.4v21.5h-4.1
		c-0.8,0-1.4,0.6-1.4,1.4v27.6c0,0.8,0.6,1.4,1.4,1.4h25.5c0.1,0,0.2,0.1,0.4,0.1h49.9c0.8,0,1.4-0.6,1.4-1.4v-14.1
		C215.3-22.9,214.7-23.6,213.9-23.6z"/>
	<path style="fill:#3583C7;" d="M251.2-65.1h-19.8c-0.8,0-1.4-0.6-1.4-1.4v-23c0-0.8,0.6-1.4,1.4-1.4h19.8c0.8,0,1.4,0.6,1.4,1.4v23
		C252.6-65.8,251.9-65.1,251.2-65.1z"/>
	<path style="fill:#3583C7;" d="M244.2-49.4h-20.8c-0.5,0-0.9-0.4-0.9-0.9v-8.8c0-0.5,0.4-0.9,0.9-0.9h20.8c0.5,0,0.9,0.4,0.9,0.9
		v8.8C245.2-49.8,244.7-49.4,244.2-49.4z"/>
	<path style="fill:#3583C7;" d="M244.2-37.9h-20.8c-0.5,0-0.9-0.4-0.9-0.9v-8.8c0-0.5,0.4-0.9,0.9-0.9h20.8c0.5,0,0.9,0.4,0.9,0.9
		v8.8C245.2-38.3,244.7-37.9,244.2-37.9z"/>
	<path style="fill:#3583C7;" d="M251.2-6.7h-27.6c-0.7,0-1.2-0.6-1.2-1.2v-12.3c0-0.7,0.6-1.2,1.2-1.2h27.6c0.7,0,1.2,0.6,1.2,1.2
		v12.3C252.4-7.2,251.9-6.7,251.2-6.7z"/>
	<path style="fill:#3583C7;" d="M251.2-22.3h-27.6c-0.7,0-1.2-0.6-1.2-1.2v-12.3c0-0.7,0.6-1.2,1.2-1.2h27.6c0.7,0,1.2,0.6,1.2,1.2
		v12.3C252.4-22.8,251.9-22.3,251.2-22.3z"/>
	<path style="fill:#3583C7;" d="M157.9-65.1h-19.8c-0.8,0-1.4-0.6-1.4-1.4v-23c0-0.8,0.6-1.4,1.4-1.4h19.8c0.8,0,1.4,0.6,1.4,1.4v23
		C159.3-65.8,158.7-65.1,157.9-65.1z"/>
	<path style="fill:#3583C7;" d="M227.9-72.1h-66.4c-0.7,0-1.3-0.6-1.3-1.3v-16.2c0-0.7,0.6-1.3,1.3-1.3h66.4c0.7,0,1.3,0.6,1.3,1.3
		v16.2C229.2-72.7,228.6-72.1,227.9-72.1z"/>
</g>
</svg>
