<?xml version="1.0" encoding="utf-8"?>
<!-- Generator: Adobe Illustrator 23.0.1, SVG Export Plug-In . SVG Version: 6.00 Build 0)  -->
<svg version="1.1" id="图层_1" xmlns="http://www.w3.org/2000/svg" xmlns:xlink="http://www.w3.org/1999/xlink" x="0px" y="0px"
	 viewBox="0 0 580 428" style="enable-background:new 0 0 580 428;" xml:space="preserve">
<path style="opacity:0.3;fill:#4A7793;enable-background:new    ;" d="M554.2,178.1l18.6-1c1.3,0,2.3-0.9,2.3-2
	c-1.3-25.7-3.7-59.7-7.1-85.6l-6-44.4c0-4.5-4.4-8.2-9.9-8.2l-33.2-1c-1.3,0-2.3,0.8-2.4,1.8l-0.2,5.9c0,1-1.1,1.9-2.4,1.8L433.9,69
	c-1.2,0-2.2-0.9-2.2-1.9l0.3-6.6c0-1-0.9-1.9-2.2-1.9l-83,14.3c-1.3,0-2.3,0.8-2.3,1.9V80c0,1-1,1.9-2.3,1.9l-100.7,8.2
	c-1.2,0-2.3-0.8-2.3-1.9v-5.4c0-1.1-1.1-1.9-2.3-1.9l-57,1.8c-1.2,0-2.2,0.9-2.2,1.9L178,91c0,1-0.9,1.9-2.2,1.9l-89.4-6.2
	c-1.3,0-2.3-0.8-2.3-1.8l-0.2-5.3c0-1-1.1-1.9-2.3-1.8l-29.6,1.4c-3.1-0.1-7.6,3.4-9.9,8.2l0,0c-10.7,27-27.3,83.4-24.8,87.7
	c0.5,0.9,1,1.9,2.3,1.9h8.3c1.2,0,2.3,0.8,2.3,1.9l-11.3,71.8c0,1-1,1.9-2.3,1.9H7.2c-1.3,0-2.3,0.9-2.3,1.9
	c1.6,38.7,1.1,82.5,6.3,121.1l0,0c0,4.5,4.4,8.2,9.9,8.2l44.4,1.6c1.2,0,2.3-0.8,2.3-1.8l0.3-6.6c0-1,1.1-1.8,2.3-1.8l105.9-2
	c1.2,0,2.2,0.9,2.2,1.9l-0.3,7.1c0,1,0.9,1.9,2.2,1.9l56.5,1.8c1.3,0,2.3-0.8,2.3-1.9v-4.8c0-1,1-1.9,2.3-1.9l117.2,6.2
	c1.2,0,2.3,0.8,2.3,1.9v4.7c0,1.1,1.1,1.9,2.3,1.9l66.8-2.2c1.2,0,2.2-0.9,2.2-1.9l-0.2-7c0-1,0.9-1.9,2.2-1.9l79.9,2.3
	c1.3,0,2.3,0.8,2.3,1.8l0.2,5.9c0,1,1.1,1.9,2.4,1.8l32.9-1c5.4,0,9.9-3.6,9.9-8.2l6-44.4c3-21.7,5.1-58.6,6.4-80.8
	c0.1-1.1-1-2-2.3-2c-2.5,0-13.1-1-15.6-1c-1.2,0-2.3-0.8-2.3-1.9v-73.6H554.2z"/>
</svg>
