<?xml version="1.0" encoding="utf-8"?>
<svg xmlns="http://www.w3.org/2000/svg" class="leaflet-zoom-animated" width="2000" height="1108" viewBox="-606 -290 2000 1108" style="transform: translate3d(-606px, -290px, 0px);">
  <g>
    <path stroke-linejoin="round" stroke-linecap="round" fill-rule="evenodd" stroke="#333" stroke-opacity="1" stroke-width="1" fill="transparent" fill-opacity="0.2" class="leaflet-clickable" d="M607 179L607 179zM601 183L601 183zM602 183L602 183zM557 186L557 186zM604 186L603 186zM593 294L590 292L592 293zM601 306L601 306zM595 310L595 310zM598 315L598 315zM569 371L569 371zM566 372L568 372L566 372zM511 407L511 407zM507 408L508 408zM490 418L491 416zM460 436L470 436L471 441L466 445L464 453L456 457L456 459L443 455L442 451L443 444L450 438L455 437zM503 582L509 578L508 582L505 5å83zM546 494L548 494L546 495zM478 482L477 481L479 481L478 483L479 482zM597 311L597 311zM499 411L500 411zM623 169L623 169zM472 438L472 438zM532 550L532 551zM507 406L506 407L509 407L507 410L505 408L502 410L504 406L507 406zM464 424L465 426L461 425L462 423zM577 407L573 399L574 391L584 375L591 371L595 375L593 377L594 381L591 387L589 398L584 405L582 414L580 413L580 409zM600 301L600 302zM598 308L598 308zM598 308L600 308zM598 310L599 311L595 311L594 309zM623 169L620 175L609 175L610 176L605 177L596 183L596 186L591 186L592 188L585 190L585 187L591 185L590 182L592 181L589 182L586 178L589 177L589 174L593 172L595 169L594 168L598 165L593 158L583 159L584 161L579 165L578 169L567 173L564 179L565 180L560 184L556 184L555 188L550 183L548 185L548 189L545 189L546 194L550 199L560 199L562 204L564 205L561 206L560 208L564 213L569 213L575 207L575 205L581 203L586 207L588 206L590 209L596 207L597 209L603 210L600 215L602 215L601 217L597 218L597 216L595 216L590 219L589 218L582 221L584 222L580 224L580 228L576 229L576 227L574 227L576 230L573 231L571 235L568 235L568 238L563 244L564 246L567 247L565 247L567 247L566 248L576 253L579 263L582 267L583 276L588 278L589 283L594 285L595 292L589 290L588 291L592 294L596 303L594 300L584 303L592 311L597 312L593 315L595 316L595 323L591 322L593 326L591 326L592 328L590 328L592 332L585 337L585 335L585 340L583 338L580 341L579 348L573 352L574 354L570 356L573 353L568 353L568 355L570 355L571 358L568 360L568 366L566 367L569 369L570 367L570 370L569 369L568 371L567 369L567 371L566 369L564 369L563 370L565 372L562 372L562 375L562 372L560 372L561 373L559 374L561 374L561 376L557 377L559 378L557 379L557 381L551 380L551 384L547 389L543 393L537 393L536 396L533 398L533 401L525 403L518 402L514 406L513 403L510 404L510 407L508 405L503 407L501 403L499 411L496 414L494 411L492 414L490 413L489 415L483 415L480 418L478 417L467 420L466 422L461 424L465 431L462 434L458 434L456 429L455 426L457 419L454 418L449 420L449 418L443 416L438 419L438 417L429 417L425 415L425 413L421 413L421 409L419 408L423 402L416 402L415 400L412 401L408 399L405 395L404 397L399 399L399 402L394 404L392 402L390 406L386 403L385 405L383 402L380 407L373 403L371 407L366 408L365 406L362 409L366 417L364 420L366 422L365 423L362 421L359 422L358 415L351 419L348 419L346 418L347 416L345 416L344 412L336 411L336 407L338 406L337 403L339 402L338 401L340 401L337 398L332 398L332 392L330 388L332 386L323 386L318 390L317 388L319 386L317 378L320 377L319 374L324 370L324 367L326 368L328 364L330 364L329 361L331 355L330 343L327 341L327 343L324 335L321 332L320 333L318 330L316 331L314 336L315 337L312 340L302 334L296 333L292 335L291 338L280 342L272 351L261 350L255 352L255 346L249 343L250 340L248 337L246 336L243 339L239 336L229 334L222 340L222 345L219 347L217 344L218 339L216 335L205 339L199 339L194 336L190 338L188 337L188 335L186 336L187 338L182 332L181 334L176 333L175 328L172 330L165 325L164 320L158 322L154 317L149 315L146 311L142 310L141 306L133 305L132 311L130 311L129 308L121 303L118 303L113 298L107 298L103 293L103 285L100 283L99 277L103 275L103 278L106 280L109 276L108 268L102 262L102 256L105 255L106 253L98 248L95 240L96 237L85 236L78 233L78 231L74 232L71 228L72 226L70 220L66 219L65 216L59 216L59 214L55 214L55 212L59 212L62 210L59 206L59 194L53 191L51 191L50 193L47 192L47 186L43 181L48 178L48 171L59 167L58 165L63 165L67 162L69 165L68 167L75 165L76 167L78 165L80 157L92 156L93 154L96 153L96 151L102 150L110 144L119 141L119 138L121 138L119 132L120 129L124 128L122 126L126 123L126 118L122 109L122 101L119 97L117 98L116 96L118 94L122 94L137 88L139 91L146 91L146 88L143 86L143 84L152 58L162 62L171 62L174 64L177 61L180 61L182 57L180 44L183 38L192 36L196 25L206 25L207 28L205 30L209 33L208 35L214 38L216 42L221 45L226 44L228 48L232 47L233 50L235 51L237 58L243 66L241 73L243 78L239 83L241 91L271 95L285 105L293 106L292 110L294 110L298 122L304 130L313 129L339 133L355 131L365 134L368 138L376 139L389 145L396 143L396 147L402 148L404 145L430 134L451 135L464 129L470 121L481 115L475 105L481 93L486 93L490 97L500 99L509 91L510 88L520 88L529 83L533 73L542 72L543 69L545 68L546 70L553 66L559 67L560 65L562 68L569 69L571 67L572 63L569 58L558 49L556 45L547 45L543 51L536 47L530 47L526 50L522 46L521 42L525 40L525 36L528 31L527 30L535 13L547 19L556 11L562 10L565 7L565 4L562 3L570 -9L573 -20L580 -25L581 -29L579 -33L581 -36L578 -38L573 -37L573 -40L582 -50L599 -54L605 -53L610 -55L617 -54L619 -51L621 -52L623 -49L626 -49L628 -47L631 -49L638 -44L637 -42L639 -43L640 -40L642 -40L640 -37L643 -36L645 -33L644 -32L646 -32L644 -30L647 -28L646 -25L649 -21L648 -19L651 -15L650 -13L651 -12L652 -14L651 -9L655 -3L655 2L659 6L658 14L661 17L665 18L672 17L672 19L676 21L681 20L681 23L683 23L685 27L689 30L694 30L692 34L693 36L695 36L696 40L694 43L697 50L715 50L717 46L721 43L726 43L734 38L740 39L744 37L739 40L738 45L740 50L738 54L734 56L732 68L730 70L731 74L728 76L729 77L726 81L726 84L722 88L722 92L720 94L708 89L703 95L699 95L697 97L699 99L701 110L701 120L699 126L691 130L693 131L693 134L692 132L691 133L689 131L689 128L685 126L683 135L679 135L674 141L664 142L667 148L665 151L659 151L653 148L651 144L650 146L649 145L647 147L647 151L640 158L630 163L630 165L628 164z"/>
  </g>
  <g>
    <path stroke-linejoin="round" stroke-linecap="round" fill-rule="evenodd" stroke="#999" stroke-opacity="1" stroke-width="1" stroke-dasharray="1,6" fill="transparent" fill-opacity="0.2" class="leaflet-clickable" d="M541 170L535 172L538 175L531 180L529 178L522 178L520 175L522 174L520 172L526 168L526 166L524 165L526 162L527 163L530 160L532 160L531 158L535 156L535 158L538 161L544 162L541 164L542 170z"/>
  </g>
  <g>
    <path stroke-linejoin="round" stroke-linecap="round" fill-rule="evenodd" stroke="#999" stroke-opacity="1" stroke-width="1" stroke-dasharray="1,6" fill="transparent" fill-opacity="0.2" class="leaflet-clickable" d="M541 170L545 168L547 171L544 173L546 177L545 178L549 178L548 182L550 182L548 185L548 189L547 188L547 190L543 193L537 191L535 187L537 185L536 177L540 177L540 172z"/>
  </g>
  <g>
    <path stroke-linejoin="round" stroke-linecap="round" fill-rule="evenodd" stroke="#999" stroke-opacity="1" stroke-width="1" stroke-dasharray="1,6" fill="transparent" fill-opacity="0.2" class="leaflet-clickable" d="M543 168L541 164L544 162L539 161L535 158L535 156L531 158L532 160L524 164L526 168L520 172L522 174L520 175L522 178L528 178L531 180L534 177L536 177L537 185L535 187L535 190L543 193L544 192L547 196L549 195L546 200L543 203L536 203L532 209L530 207L530 209L527 210L524 215L525 216L521 219L519 223L521 226L519 228L518 226L514 229L514 227L511 228L504 224L501 224L498 220L501 217L501 214L506 205L504 205L505 204L502 199L499 198L499 193L502 190L501 187L505 184L505 186L508 185L510 181L509 180L511 178L509 177L509 174L503 171L510 167L507 165L502 155L503 150L507 149L506 145L508 142L510 142L510 140L513 140L515 144L514 147L520 148L519 146L526 142L527 145L529 142L537 141L536 138L537 139L538 135L547 132L550 135L549 138L551 139L551 141L553 141L553 145L551 144L554 152L563 152L559 160L564 164L567 164L571 172L567 173L564 179L565 180L562 183L556 185L555 188L549 182L549 178L545 178L546 177L544 174L545 172L547 172L545 168L543 168z"/>
  </g>
  <g>
    <path stroke-linejoin="round" stroke-linecap="round" fill-rule="evenodd" stroke="#999" stroke-opacity="1" stroke-width="1" stroke-dasharray="1,6" fill="transparent" fill-opacity="0.2" class="leaflet-clickable" d="M537 176L538 175L535 172L541 170L540 176L537 176z"/>
  </g>
  <g>
    <path stroke-linejoin="round" stroke-linecap="round" fill-rule="evenodd" stroke="#999" stroke-opacity="1" stroke-width="1" stroke-dasharray="1,6" fill="transparent" fill-opacity="0.2" class="leaflet-clickable" d="M501 224L499 235L494 239L493 238L490 241L482 240L482 243L480 242L476 246L472 246L470 248L461 248L461 244L465 237L463 216L468 207L464 198L469 194L470 187L473 182L471 181L474 180L475 177L479 178L487 167L490 169L491 167L505 164L505 161L507 165L510 167L503 171L509 174L509 177L511 178L508 184L505 186L505 184L501 187L502 190L499 193L499 198L501 198L504 204L506 205L501 214L502 215L498 219L501 223z"/>
  </g>
  <g>
    <path stroke-linejoin="round" stroke-linecap="round" fill-rule="evenodd" stroke="#999" stroke-opacity="1" stroke-width="1" stroke-dasharray="1,6" fill="transparent" fill-opacity="0.2" class="leaflet-clickable" d="M614 120L613 126L609 126L609 129L600 129L600 131L594 131L594 133L591 135L588 134L584 138L583 137L579 139L573 146L570 139L571 138L564 137L564 147L566 148L564 151L565 152L554 152L551 145L553 145L553 143L549 138L550 135L547 132L538 135L537 139L536 138L537 140L535 142L529 142L528 145L526 142L519 146L520 148L514 148L514 141L513 139L510 140L510 142L508 142L506 145L507 149L503 149L504 154L502 155L506 161L505 163L496 167L491 167L491 169L487 167L485 168L481 177L475 177L474 180L471 181L471 178L465 182L461 180L461 182L449 193L446 198L448 200L446 202L445 200L445 206L437 206L436 204L430 202L427 199L419 197L424 187L422 181L420 181L416 182L412 189L412 197L410 198L410 204L394 209L392 209L387 204L383 203L383 200L385 199L384 195L389 192L393 185L391 180L383 182L379 185L373 183L366 185L368 188L365 191L360 189L358 187L359 186L354 186L354 180L350 181L350 179L348 179L348 177L345 175L341 173L339 174L347 168L348 162L345 158L335 159L335 162L333 160L331 161L331 163L330 161L326 163L326 158L318 150L320 147L313 129L339 133L354 131L359 132L365 134L368 138L376 139L389 145L396 143L396 147L402 148L404 145L430 134L450 135L460 132L466 127L470 121L481 115L480 111L476 108L475 105L477 98L481 93L486 93L488 96L500 99L508 93L510 88L520 88L529 83L533 73L542 72L544 68L546 70L553 66L559 67L559 65L562 68L569 69L572 66L572 63L569 58L567 58L565 54L558 49L556 45L547 45L543 51L537 47L530 47L526 50L522 46L521 42L525 40L525 36L528 31L527 30L535 13L547 19L548 17L551 17L556 11L562 10L565 7L565 4L562 3L564 2L564 -1L567 -3L567 -6L572 -14L573 -20L581 -26L581 -31L579 -32L580 -36L578 -38L573 -37L573 -41L582 -50L588 -51L591 -50L593 -46L586 -37L590 -35L593 -31L597 -36L602 -31L604 -31L604 -29L602 -29L605 -16L610 -12L612 -13L619 0L617 4L616 2L615 4L617 7L622 7L623 3L626 10L625 12L632 14L632 24L628 24L627 26L623 43L621 36L609 48L601 53L600 56L601 59L605 61L605 65L607 66L612 63L613 65L613 63L614 66L609 69L606 69L608 76L604 77L604 83L600 80L598 82L593 78L592 82L595 83L595 87L597 87L598 91L596 92L596 100L599 107L603 106L608 102L612 115L612 117L610 117L613 120z"/>
  </g>
  <g>
    <path stroke-linejoin="round" stroke-linecap="round" fill-rule="evenodd" stroke="#999" stroke-opacity="1" stroke-width="1" stroke-dasharray="1,6" fill="transparent" fill-opacity="0.2" class="leaflet-clickable" d="M619 0L612 -13L615 -15L617 -13L622 -13L629 -16L628 -17L630 -17L630 -20L633 -19L637 -15L641 -7L638 -3L639 0L632 8L632 13L630 14L629 12L626 14L624 3L621 0z"/>
  </g>
  <g>
    <path stroke-linejoin="round" stroke-linecap="round" fill-rule="evenodd" stroke="#999" stroke-opacity="1" stroke-width="1" stroke-dasharray="1,6" fill="transparent" fill-opacity="0.2" class="leaflet-clickable" d="M564 152L566 149L564 147L564 138L567 136L571 138L570 139L573 145L579 139L583 137L584 138L588 134L594 133L594 131L599 131L599 129L609 129L609 127L612 125L613 126L615 118L618 122L620 122L623 125L623 129L627 124L631 137L635 139L633 141L633 147L634 146L635 151L638 154L636 158L637 159L626 166L619 175L616 174L611 176L610 175L606 178L605 177L596 183L597 184L594 187L591 186L592 188L585 190L585 187L591 185L592 181L589 182L586 179L597 166L597 162L593 159L588 158L582 162L578 169L571 172L567 164L564 164L560 160L560 157L564 152z"/>
  </g>
  <g>
    <path stroke-linejoin="round" stroke-linecap="round" fill-rule="evenodd" stroke="#999" stroke-opacity="1" stroke-width="1" stroke-dasharray="1,6" fill="transparent" fill-opacity="0.2" class="leaflet-clickable" d="M606 179L607 179z"/>
  </g>
  <g>
    <path stroke-linejoin="round" stroke-linecap="round" fill-rule="evenodd" stroke="#999" stroke-opacity="1" stroke-width="1" stroke-dasharray="1,6" fill="transparent" fill-opacity="0.2" class="leaflet-clickable" d="M637 159L636 158L638 154L634 146L633 147L633 141L635 139L631 137L628 129L628 124L623 129L623 125L620 122L618 122L615 118L615 120L611 120L611 108L608 102L601 107L598 106L596 100L596 92L598 90L597 87L595 87L595 83L591 82L593 80L592 78L596 79L598 82L600 80L603 83L605 80L604 77L607 77L608 74L611 75L617 73L619 84L624 88L629 86L630 88L634 88L636 86L638 90L642 92L647 90L652 92L653 101L658 101L657 103L662 109L664 109L664 105L666 105L668 102L668 107L672 112L673 118L677 117L677 114L680 112L683 112L685 110L686 113L690 110L691 116L696 119L701 119L699 127L691 130L693 131L692 134L692 132L687 127L688 126L686 126L683 130L683 135L677 136L677 138L672 141L664 141L667 147L665 151L653 149L653 145L649 145L641 158L638 158z"/>
  </g>
  <g>
    <path stroke-linejoin="round" stroke-linecap="round" fill-rule="evenodd" stroke="#999" stroke-opacity="1" stroke-width="1" stroke-dasharray="1,6" fill="transparent" fill-opacity="0.2" class="leaflet-clickable" d="M610 74L608 74L606 69L613 67L614 64L613 63L613 65L611 63L608 66L605 65L605 61L601 59L601 53L613 44L619 37L621 36L621 39L623 42L624 41L624 35L628 24L632 24L632 8L639 0L638 -2L641 -9L633 -19L630 -20L630 -17L628 -17L628 -15L623 -15L622 -13L617 -13L615 -15L610 -12L605 -16L602 -29L604 -29L604 -31L597 -35L593 -31L587 -37L593 -46L589 -51L597 -54L600 -53L614 -55L621 -52L623 -49L626 -49L626 -47L635 -47L638 -44L637 -43L640 -40L642 -40L640 -38L644 -35L644 -32L646 -32L644 -30L647 -28L646 -25L651 -15L650 -12L651 -14L652 -13L651 -9L655 -4L656 4L659 6L658 13L662 18L672 17L672 19L676 21L681 21L687 28L694 30L692 34L695 36L696 40L694 43L698 50L715 50L717 47L716 46L718 46L722 42L726 43L734 38L744 37L739 40L738 44L740 49L733 58L734 59L732 68L730 71L731 74L728 76L729 77L725 83L726 84L723 86L721 90L722 92L720 94L708 89L703 95L699 95L697 97L699 99L701 110L701 118L699 119L696 119L692 116L690 110L687 113L685 110L683 112L680 112L677 114L677 117L673 118L672 113L668 107L668 102L664 105L664 108L660 109L660 107L657 104L658 101L653 101L652 93L647 90L642 92L637 89L637 86L634 88L630 88L630 86L624 88L618 82L618 74L617 73L611 75z"/>
  </g>
  <g>
    <path stroke-linejoin="round" stroke-linecap="round" fill-rule="evenodd" stroke="#999" stroke-opacity="1" stroke-width="1" stroke-dasharray="1,6" fill="transparent" fill-opacity="0.2" class="leaflet-clickable" d="M623 3L622 6L619 7L617 7L615 4L616 2L617 4L619 0L623 1z"/>
  </g>
  <g>
    <path stroke-linejoin="round" stroke-linecap="round" fill-rule="evenodd" stroke="#999" stroke-opacity="1" stroke-width="1" stroke-dasharray="1,6" fill="transparent" fill-opacity="0.2" class="leaflet-clickable" d="M595 300L591 300L588 302L582 296L585 296L584 294L587 291L590 292L595 298z"/>
  </g>
  <g>
    <path stroke-linejoin="round" stroke-linecap="round" fill-rule="evenodd" stroke="#999" stroke-opacity="1" stroke-width="1" stroke-dasharray="1,6" fill="transparent" fill-opacity="0.2" class="leaflet-clickable" d="M588 290L585 288L587 286L592 289L595 289L594 292L589 290z"/>
  </g>
  <g>
    <path stroke-linejoin="round" stroke-linecap="round" fill-rule="evenodd" stroke="#999" stroke-opacity="1" stroke-width="1" stroke-dasharray="1,6" fill="transparent" fill-opacity="0.2" class="leaflet-clickable" d="M592 293L590 291L592 292z"/>
  </g>
  <g>
    <path stroke-linejoin="round" stroke-linecap="round" fill-rule="evenodd" stroke="#999" stroke-opacity="1" stroke-width="1" stroke-dasharray="1,6" fill="transparent" fill-opacity="0.2" class="leaflet-clickable" d="M593 294L594 293z"/>
  </g>
  <g>
    <path stroke-linejoin="round" stroke-linecap="round" fill-rule="evenodd" stroke="#999" stroke-opacity="1" stroke-width="1" stroke-dasharray="1,6" fill="transparent" fill-opacity="0.2" class="leaflet-clickable" d="M594 295L595 296z"/>
  </g>
  <g>
    <path stroke-linejoin="round" stroke-linecap="round" fill-rule="evenodd" stroke="#999" stroke-opacity="1" stroke-width="1" stroke-dasharray="1,6" fill="transparent" fill-opacity="0.2" class="leaflet-clickable" d="M595 289L592 289L587 286L585 288L588 290L584 294L585 296L582 296L583 297L580 298L578 301L571 295L558 295L560 291L559 289L557 289L558 288L555 287L554 283L557 280L556 277L563 277L563 273L559 271L558 274L554 275L552 273L552 268L550 269L549 267L551 260L548 261L544 256L543 257L538 255L539 254L531 248L531 245L538 245L540 251L543 249L543 251L545 251L547 248L551 248L550 249L552 250L552 252L555 250L554 249L556 247L558 247L560 243L563 242L563 245L567 247L566 248L576 253L583 270L583 275L589 279L589 283L592 284L595 288z"/>
  </g>
  <g>
    <path stroke-linejoin="round" stroke-linecap="round" fill-rule="evenodd" stroke="#999" stroke-opacity="1" stroke-width="1" stroke-dasharray="1,6" fill="transparent" fill-opacity="0.2" class="leaflet-clickable" d="M578 348L575 344L571 346L567 341L564 344L560 344L558 337L559 335L557 333L555 334L554 328L550 323L550 320L560 312L560 306L564 306L564 303L568 300L569 295L571 295L575 299L577 298L576 299L578 301L583 297L584 300L587 302L584 303L586 306L592 311L597 312L593 315L595 316L595 322L592 322L593 326L591 326L592 328L590 328L592 332L591 334L589 333L587 336L584 336L584 338L586 338L583 338L581 340L579 348z"/>
  </g>
  <g>
    <path stroke-linejoin="round" stroke-linecap="round" fill-rule="evenodd" stroke="#999" stroke-opacity="1" stroke-width="1" stroke-dasharray="1,6" fill="transparent" fill-opacity="0.2" class="leaflet-clickable" d="M599 312L595 310L595 308L599 311z"/>
  </g>
  <g>
    <path stroke-linejoin="round" stroke-linecap="round" fill-rule="evenodd" stroke="#999" stroke-opacity="1" stroke-width="1" stroke-dasharray="1,6" fill="transparent" fill-opacity="0.2" class="leaflet-clickable" d="M596 307L598 307L596 307z"/>
  </g>
  <g>
    <path stroke-linejoin="round" stroke-linecap="round" fill-rule="evenodd" stroke="#999" stroke-opacity="1" stroke-width="1" stroke-dasharray="1,6" fill="transparent" fill-opacity="0.2" class="leaflet-clickable" d="M599 308L600 308z"/>
  </g>
  <g>
    <path stroke-linejoin="round" stroke-linecap="round" fill-rule="evenodd" stroke="#999" stroke-opacity="1" stroke-width="1" stroke-dasharray="1,6" fill="transparent" fill-opacity="0.2" class="leaflet-clickable" d="M600 312L600 312z"/>
  </g>
  <g>
    <path stroke-linejoin="round" stroke-linecap="round" fill-rule="evenodd" stroke="#999" stroke-opacity="1" stroke-width="1" stroke-dasharray="1,6" fill="transparent" fill-opacity="0.2" class="leaflet-clickable" d="M599 305L600 306L598 305z"/>
  </g>
  <g>
    <path stroke-linejoin="round" stroke-linecap="round" fill-rule="evenodd" stroke="#999" stroke-opacity="1" stroke-width="1" stroke-dasharray="1,6" fill="transparent" fill-opacity="0.2" class="leaflet-clickable" d="M599 313L598 313z"/>
  </g>
  <g>
    <path stroke-linejoin="round" stroke-linecap="round" fill-rule="evenodd" stroke="#999" stroke-opacity="1" stroke-width="1" stroke-dasharray="1,6" fill="transparent" fill-opacity="0.2" class="leaflet-clickable" d="M597 315L597 315z"/>
  </g>
  <g>
    <path stroke-linejoin="round" stroke-linecap="round" fill-rule="evenodd" stroke="#999" stroke-opacity="1" stroke-width="1" stroke-dasharray="1,6" fill="transparent" fill-opacity="0.2" class="leaflet-clickable" d="M594 301L595 300L595 302z"/>
  </g>
  <g>
    <path stroke-linejoin="round" stroke-linecap="round" fill-rule="evenodd" stroke="#999" stroke-opacity="1" stroke-width="1" stroke-dasharray="1,6" fill="transparent" fill-opacity="0.2" class="leaflet-clickable" d="M594 311L593 310L594 311z"/>
  </g>
  <g>
    <path stroke-linejoin="round" stroke-linecap="round" fill-rule="evenodd" stroke="#999" stroke-opacity="1" stroke-width="1" stroke-dasharray="1,6" fill="transparent" fill-opacity="0.2" class="leaflet-clickable" d="M597 311L597 311z"/>
  </g>
  <g>
    <path stroke-linejoin="round" stroke-linecap="round" fill-rule="evenodd" stroke="#999" stroke-opacity="1" stroke-width="1" stroke-dasharray="1,6" fill="transparent" fill-opacity="0.2" class="leaflet-clickable" d="M585 338L585 337z"/>
  </g>
  <g>
    <path stroke-linejoin="round" stroke-linecap="round" fill-rule="evenodd" stroke="#999" stroke-opacity="1" stroke-width="1" stroke-dasharray="1,6" fill="transparent" fill-opacity="0.2" class="leaflet-clickable" d="M585 340L585 340z"/>
  </g>
  <g>
    <path stroke-linejoin="round" stroke-linecap="round" fill-rule="evenodd" stroke="#999" stroke-opacity="1" stroke-width="1" stroke-dasharray="1,6" fill="transparent" fill-opacity="0.2" class="leaflet-clickable" d="M597 311L597 311z"/>
  </g>
  <g>
    <path stroke-linejoin="round" stroke-linecap="round" fill-rule="evenodd" stroke="#999" stroke-opacity="1" stroke-width="1" stroke-dasharray="1,6" fill="transparent" fill-opacity="0.2" class="leaflet-clickable" d="M521 278L518 276L518 273L514 271L514 269L519 269L519 264L523 263L522 257L524 256L529 261L534 259L533 253L531 253L529 249L530 250L531 248L538 252L538 255L543 257L544 256L547 261L551 260L551 264L549 267L550 269L552 268L552 273L554 275L558 275L559 271L561 271L563 277L556 277L557 282L554 285L560 291L558 295L565 294L566 296L568 296L568 300L564 303L565 306L560 306L560 311L557 316L555 316L552 319L550 316L544 316L541 312L536 317L534 316L537 312L535 310L533 310L533 312L530 314L528 312L528 308L524 302L528 298L523 295L522 296L520 293L521 289L526 287L526 279L521 278z"/>
  </g>
  <g>
    <path stroke-linejoin="round" stroke-linecap="round" fill-rule="evenodd" stroke="#999" stroke-opacity="1" stroke-width="1" stroke-dasharray="1,6" fill="transparent" fill-opacity="0.2" class="leaflet-clickable" d="M535 315L535 315z"/>
  </g>
  <g>
    <path stroke-linejoin="round" stroke-linecap="round" fill-rule="evenodd" stroke="#999" stroke-opacity="1" stroke-width="1" stroke-dasharray="1,6" fill="transparent" fill-opacity="0.2" class="leaflet-clickable" d="M560 291L559 291z"/>
  </g>
  <g>
    <path stroke-linejoin="round" stroke-linecap="round" fill-rule="evenodd" stroke="#999" stroke-opacity="1" stroke-width="1" stroke-dasharray="1,6" fill="transparent" fill-opacity="0.2" class="leaflet-clickable" d="M521 278L521 278z"/>
  </g>
  <g>
    <path stroke-linejoin="round" stroke-linecap="round" fill-rule="evenodd" stroke="#999" stroke-opacity="1" stroke-width="1" stroke-dasharray="1,6" fill="transparent" fill-opacity="0.2" class="leaflet-clickable" d="M578 348L573 352L574 353L571 356L573 352L568 355L570 355L571 358L568 360L569 364L566 367L570 367L570 370L568 369L568 371L564 369L563 370L565 372L562 372L562 375L562 372L560 372L561 373L559 374L561 374L561 376L557 377L559 378L556 381L551 380L551 384L543 393L540 393L537 386L538 385L535 380L536 379L533 380L531 377L530 378L525 375L525 372L527 371L528 366L532 361L531 360L533 357L534 358L533 353L535 350L539 348L539 341L541 341L541 339L544 337L545 339L547 339L551 336L554 336L553 334L557 333L559 334L558 336L560 344L563 344L567 341L570 346L574 344L577 347z"/>
  </g>
  <g>
    <path stroke-linejoin="round" stroke-linecap="round" fill-rule="evenodd" stroke="#999" stroke-opacity="1" stroke-width="1" stroke-dasharray="1,6" fill="transparent" fill-opacity="0.2" class="leaflet-clickable" d="M554 381L555 382L553 383L553 381L554 382z"/>
  </g>
  <g>
    <path stroke-linejoin="round" stroke-linecap="round" fill-rule="evenodd" stroke="#999" stroke-opacity="1" stroke-width="1" stroke-dasharray="1,6" fill="transparent" fill-opacity="0.2" class="leaflet-clickable" d="M567 373L566 372z"/>
  </g>
  <g>
    <path stroke-linejoin="round" stroke-linecap="round" fill-rule="evenodd" stroke="#999" stroke-opacity="1" stroke-width="1" stroke-dasharray="1,6" fill="transparent" fill-opacity="0.2" class="leaflet-clickable" d="M550 382L551 382z"/>
  </g>
  <g>
    <path stroke-linejoin="round" stroke-linecap="round" fill-rule="evenodd" stroke="#999" stroke-opacity="1" stroke-width="1" stroke-dasharray="1,6" fill="transparent" fill-opacity="0.2" class="leaflet-clickable" d="M569 354L569 354z"/>
  </g>
  <g>
    <path stroke-linejoin="round" stroke-linecap="round" fill-rule="evenodd" stroke="#999" stroke-opacity="1" stroke-width="1" stroke-dasharray="1,6" fill="transparent" fill-opacity="0.2" class="leaflet-clickable" d="M503 323L507 321L507 319L510 320L517 317L517 315L520 316L523 313L526 315L528 313L530 314L533 310L537 312L534 316L536 317L540 314L540 312L548 317L551 317L550 322L554 327L555 333L553 334L554 335L547 339L545 339L544 337L538 343L540 344L540 346L533 352L534 358L533 357L531 360L532 361L528 365L525 374L526 376L524 378L525 381L523 381L520 378L514 379L514 381L512 380L509 382L506 379L513 372L510 370L505 372L503 370L504 362L507 361L503 360L505 357L505 355L502 354L503 345L500 345L499 343L501 338L505 336L504 335L507 333L505 330L506 327L504 325z"/>
  </g>
  <g>
    <path stroke-linejoin="round" stroke-linecap="round" fill-rule="evenodd" stroke="#999" stroke-opacity="1" stroke-width="1" stroke-dasharray="1,6" fill="transparent" fill-opacity="0.2" class="leaflet-clickable" d="M588 206L590 209L594 209L596 207L597 209L603 209L600 215L602 215L601 217L597 218L597 216L595 216L582 221L584 222L580 224L580 228L576 229L576 227L574 227L575 229L571 235L569 235L565 242L560 243L557 248L556 247L554 249L555 250L552 252L552 250L550 249L551 248L547 248L547 250L545 251L543 251L543 249L541 251L536 244L532 245L531 248L528 250L521 249L517 243L513 243L516 238L518 238L528 228L521 231L520 233L519 232L521 229L519 223L521 219L525 216L524 215L526 212L531 207L532 209L536 203L543 203L548 197L551 197L550 198L556 200L561 200L562 204L564 205L562 205L560 208L562 212L564 212L565 214L571 212L575 205L581 203L585 207L588 207z"/>
  </g>
  <g>
    <path stroke-linejoin="round" stroke-linecap="round" fill-rule="evenodd" stroke="#999" stroke-opacity="1" stroke-width="1" stroke-dasharray="1,6" fill="transparent" fill-opacity="0.2" class="leaflet-clickable" d="M521 231L521 231z"/>
  </g>
  <g>
    <path stroke-linejoin="round" stroke-linecap="round" fill-rule="evenodd" stroke="#999" stroke-opacity="1" stroke-width="1" stroke-dasharray="1,6" fill="transparent" fill-opacity="0.2" class="leaflet-clickable" d="M589 207L589 207z"/>
  </g>
  <g>
    <path stroke-linejoin="round" stroke-linecap="round" fill-rule="evenodd" stroke="#999" stroke-opacity="1" stroke-width="1" stroke-dasharray="1,6" fill="transparent" fill-opacity="0.2" class="leaflet-clickable" d="M589 207L589 207z"/>
  </g>
  <g>
    <path stroke-linejoin="round" stroke-linecap="round" fill-rule="evenodd" stroke="#999" stroke-opacity="1" stroke-width="1" stroke-dasharray="1,6" fill="transparent" fill-opacity="0.2" class="leaflet-clickable" d="M529 249L529 251L533 253L534 258L529 261L526 257L522 257L523 263L519 264L519 269L515 269L519 277L522 279L526 279L526 287L521 289L519 293L518 290L514 292L510 289L511 288L507 288L506 286L504 288L504 286L502 286L501 279L498 281L495 279L486 280L477 276L470 267L470 263L465 259L466 255L463 253L463 249L476 246L480 242L482 243L482 240L490 241L498 236L501 229L501 224L511 228L514 227L514 229L518 226L519 228L521 227L519 232L520 233L521 231L528 228L518 238L516 238L513 243L517 243L523 250L528 250z"/>
  </g>
  <g>
    <path stroke-linejoin="round" stroke-linecap="round" fill-rule="evenodd" stroke="#999" stroke-opacity="1" stroke-width="1" stroke-dasharray="1,6" fill="transparent" fill-opacity="0.2" class="leaflet-clickable" d="M521 231L521 231z"/>
  </g>
  <g>
    <path stroke-linejoin="round" stroke-linecap="round" fill-rule="evenodd" stroke="#999" stroke-opacity="1" stroke-width="1" stroke-dasharray="1,6" fill="transparent" fill-opacity="0.2" class="leaflet-clickable" d="M501 281L501 281z"/>
  </g>
  <g>
    <path stroke-linejoin="round" stroke-linecap="round" fill-rule="evenodd" stroke="#999" stroke-opacity="1" stroke-width="1" stroke-dasharray="1,6" fill="transparent" fill-opacity="0.2" class="leaflet-clickable" d="M450 322L448 321L448 319L446 320L445 315L443 313L442 315L440 313L442 312L441 304L442 305L448 302L449 304L461 298L460 293L457 290L455 290L454 287L454 276L460 276L460 274L456 272L455 269L452 269L454 267L461 269L465 267L465 269L467 270L470 267L477 276L485 280L495 279L498 281L501 279L501 283L502 286L504 286L504 288L506 286L507 288L511 288L510 289L514 292L517 290L519 293L520 292L522 296L523 295L527 298L524 301L526 307L528 308L528 312L526 315L521 313L520 316L517 315L517 317L513 319L507 319L507 321L505 321L503 324L500 322L501 316L499 313L494 318L492 318L492 314L485 317L479 312L474 312L473 310L467 309L464 310L466 314L463 316L461 314L457 314L452 317L450 322z"/>
  </g>
  <g>
    <path stroke-linejoin="round" stroke-linecap="round" fill-rule="evenodd" stroke="#999" stroke-opacity="1" stroke-width="1" stroke-dasharray="1,6" fill="transparent" fill-opacity="0.2" class="leaflet-clickable" d="M493 314L492 314z"/>
  </g>
  <g>
    <path stroke-linejoin="round" stroke-linecap="round" fill-rule="evenodd" stroke="#999" stroke-opacity="1" stroke-width="1" stroke-dasharray="1,6" fill="transparent" fill-opacity="0.2" class="leaflet-clickable" d="M470 268L470 268z"/>
  </g>
  <g>
    <path stroke-linejoin="round" stroke-linecap="round" fill-rule="evenodd" stroke="#999" stroke-opacity="1" stroke-width="1" stroke-dasharray="1,6" fill="transparent" fill-opacity="0.2" class="leaflet-clickable" d="M448 303L448 303z"/>
  </g>
  <g>
    <path stroke-linejoin="round" stroke-linecap="round" fill-rule="evenodd" stroke="#999" stroke-opacity="1" stroke-width="1" stroke-dasharray="1,6" fill="transparent" fill-opacity="0.2" class="leaflet-clickable" d="M490 279L490 279z"/>
  </g>
  <g>
    <path stroke-linejoin="round" stroke-linecap="round" fill-rule="evenodd" stroke="#999" stroke-opacity="1" stroke-width="1" stroke-dasharray="1,6" fill="transparent" fill-opacity="0.2" class="leaflet-clickable" d="M458 360L458 354L454 354L452 348L448 348L446 350L445 349L453 341L451 340L451 329L449 329L451 327L450 322L452 317L455 316L456 314L461 314L463 316L466 314L464 310L467 309L473 310L474 312L478 312L486 317L493 314L492 318L494 318L499 313L499 315L501 316L500 321L506 327L505 330L507 331L507 333L501 338L499 343L500 345L503 345L502 354L505 355L503 360L507 361L503 366L503 370L498 371L494 369L491 372L493 372L493 376L483 373L483 377L478 378L476 380L475 374L473 373L470 376L469 375L474 367L473 366L476 364L472 363L473 359L466 358L462 363L459 362L460 360z"/>
  </g>
  <g>
    <path stroke-linejoin="round" stroke-linecap="round" fill-rule="evenodd" stroke="#999" stroke-opacity="1" stroke-width="1" stroke-dasharray="1,6" fill="transparent" fill-opacity="0.2" class="leaflet-clickable" d="M453 362L452 359L450 359L452 356L451 354L457 353L457 357L458 356L459 358L455 364L453 362z"/>
  </g>
  <g>
    <path stroke-linejoin="round" stroke-linecap="round" fill-rule="evenodd" stroke="#999" stroke-opacity="1" stroke-width="1" stroke-dasharray="1,6" fill="transparent" fill-opacity="0.2" class="leaflet-clickable" d="M456 419L458 414L463 414L463 410L464 411L467 409L467 405L471 404L475 400L474 394L478 391L477 390L481 388L480 386L482 384L481 380L483 377L483 373L489 373L490 376L493 376L493 372L491 372L496 369L498 371L510 370L513 372L507 379L509 381L514 381L514 379L519 378L525 381L525 376L530 378L531 377L533 380L536 379L535 380L537 382L538 389L540 392L538 394L537 393L533 401L525 403L524 402L521 404L518 402L514 405L512 404L513 403L510 404L510 407L503 407L501 403L498 412L495 414L494 411L492 414L490 413L489 415L486 416L482 415L482 417L474 418L466 422L463 422L461 425L465 431L463 434L458 434L455 428L455 423L457 419z"/>
  </g>
  <g>
    <path stroke-linejoin="round" stroke-linecap="round" fill-rule="evenodd" stroke="#999" stroke-opacity="1" stroke-width="1" stroke-dasharray="1,6" fill="transparent" fill-opacity="0.2" class="leaflet-clickable" d="M539 395L540 394z"/>
  </g>
  <g>
    <path stroke-linejoin="round" stroke-linecap="round" fill-rule="evenodd" stroke="#999" stroke-opacity="1" stroke-width="1" stroke-dasharray="1,6" fill="transparent" fill-opacity="0.2" class="leaflet-clickable" d="M491 415L491 417L491 415z"/>
  </g>
  <g>
    <path stroke-linejoin="round" stroke-linecap="round" fill-rule="evenodd" stroke="#999" stroke-opacity="1" stroke-width="1" stroke-dasharray="1,6" fill="transparent" fill-opacity="0.2" class="leaflet-clickable" d="M488 417L489 416z"/>
  </g>
  <g>
    <path stroke-linejoin="round" stroke-linecap="round" fill-rule="evenodd" stroke="#999" stroke-opacity="1" stroke-width="1" stroke-dasharray="1,6" fill="transparent" fill-opacity="0.2" class="leaflet-clickable" d="M464 424L465 425L461 425L462 423z"/>
  </g>
  <g>
    <path stroke-linejoin="round" stroke-linecap="round" fill-rule="evenodd" stroke="#999" stroke-opacity="1" stroke-width="1" stroke-dasharray="1,6" fill="transparent" fill-opacity="0.2" class="leaflet-clickable" d="M464 423L463 422L466 422L465 423z"/>
  </g>
  <g>
    <path stroke-linejoin="round" stroke-linecap="round" fill-rule="evenodd" stroke="#999" stroke-opacity="1" stroke-width="1" stroke-dasharray="1,6" fill="transparent" fill-opacity="0.2" class="leaflet-clickable" d="M536 427L537 430L535 429L537 428z"/>
  </g>
  <g>
    <path stroke-linejoin="round" stroke-linecap="round" fill-rule="evenodd" stroke="#999" stroke-opacity="1" stroke-width="1" stroke-dasharray="1,6" fill="transparent" fill-opacity="0.2" class="leaflet-clickable" d="M465 426L466 426z"/>
  </g>
  <g>
    <path stroke-linejoin="round" stroke-linecap="round" fill-rule="evenodd" stroke="#999" stroke-opacity="1" stroke-width="1" stroke-dasharray="1,6" fill="transparent" fill-opacity="0.2" class="leaflet-clickable" d="M526 423L527 424z"/>
  </g>
  <g>
    <path stroke-linejoin="round" stroke-linecap="round" fill-rule="evenodd" stroke="#999" stroke-opacity="1" stroke-width="1" stroke-dasharray="1,6" fill="transparent" fill-opacity="0.2" class="leaflet-clickable" d="M482 378L482 383L480 386L481 388L477 390L478 391L475 392L474 394L475 400L471 404L467 405L466 410L463 410L463 414L459 414L456 419L454 418L449 420L449 418L443 416L438 419L438 417L429 417L425 415L425 413L421 412L421 408L419 408L423 402L417 402L415 400L412 401L408 399L408 397L412 393L415 393L414 386L407 387L402 382L398 384L396 379L399 380L404 375L413 380L415 376L425 372L424 370L427 367L434 374L440 368L443 371L444 367L447 368L447 366L451 366L453 362L456 364L458 360L460 360L459 362L462 363L466 358L473 359L472 363L476 364L473 366L474 367L469 375L470 376L473 373L475 375L476 380L478 378L481 378z"/>
  </g>
  <g>
    <path stroke-linejoin="round" stroke-linecap="round" fill-rule="evenodd" stroke="#999" stroke-opacity="1" stroke-width="1" stroke-dasharray="1,6" fill="transparent" fill-opacity="0.2" class="leaflet-clickable" d="M403 376L403 376z"/>
  </g>
  <g>
    <path stroke-linejoin="round" stroke-linecap="round" fill-rule="evenodd" stroke="#999" stroke-opacity="1" stroke-width="1" stroke-dasharray="1,6" fill="transparent" fill-opacity="0.2" class="leaflet-clickable" d="M450 438L453 438L455 436L458 437L467 435L468 437L470 437L471 441L467 444L465 451L454 459L447 457L443 453L443 445L449 439z"/>
  </g>
  <g>
    <path stroke-linejoin="round" stroke-linecap="round" fill-rule="evenodd" stroke="#999" stroke-opacity="1" stroke-width="1" stroke-dasharray="1,6" fill="transparent" fill-opacity="0.2" class="leaflet-clickable" d="M503 582L509 578L510 579L508 582L504 583z"/>
  </g>
  <g>
    <path stroke-linejoin="round" stroke-linecap="round" fill-rule="evenodd" stroke="#999" stroke-opacity="1" stroke-width="1" stroke-dasharray="1,6" fill="transparent" fill-opacity="0.2" class="leaflet-clickable" d="M477 481L476 482z"/>
  </g>
  <g>
    <path stroke-linejoin="round" stroke-linecap="round" fill-rule="evenodd" stroke="#999" stroke-opacity="1" stroke-width="1" stroke-dasharray="1,6" fill="transparent" fill-opacity="0.2" class="leaflet-clickable" d="M504 568L504 569z"/>
  </g>
  <g>
    <path stroke-linejoin="round" stroke-linecap="round" fill-rule="evenodd" stroke="#999" stroke-opacity="1" stroke-width="1" stroke-dasharray="1,6" fill="transparent" fill-opacity="0.2" class="leaflet-clickable" d="M482 481L482 480z"/>
  </g>
  <g>
    <path stroke-linejoin="round" stroke-linecap="round" fill-rule="evenodd" stroke="#999" stroke-opacity="1" stroke-width="1" stroke-dasharray="1,6" fill="transparent" fill-opacity="0.2" class="leaflet-clickable" d="M525 558L526 558z"/>
  </g>
  <g>
    <path stroke-linejoin="round" stroke-linecap="round" fill-rule="evenodd" stroke="#999" stroke-opacity="1" stroke-width="1" stroke-dasharray="1,6" fill="transparent" fill-opacity="0.2" class="leaflet-clickable" d="M452 585L457 583L453 585z"/>
  </g>
  <g>
    <path stroke-linejoin="round" stroke-linecap="round" fill-rule="evenodd" stroke="#999" stroke-opacity="1" stroke-width="1" stroke-dasharray="1,6" fill="transparent" fill-opacity="0.2" class="leaflet-clickable" d="M487 484L486 484z"/>
  </g>
  <g>
    <path stroke-linejoin="round" stroke-linecap="round" fill-rule="evenodd" stroke="#999" stroke-opacity="1" stroke-width="1" stroke-dasharray="1,6" fill="transparent" fill-opacity="0.2" class="leaflet-clickable" d="M509 545L511 544L510 545z"/>
  </g>
  <g>
    <path stroke-linejoin="round" stroke-linecap="round" fill-rule="evenodd" stroke="#999" stroke-opacity="1" stroke-width="1" stroke-dasharray="1,6" fill="transparent" fill-opacity="0.2" class="leaflet-clickable" d="M486 481L487 481z"/>
  </g>
  <g>
    <path stroke-linejoin="round" stroke-linecap="round" fill-rule="evenodd" stroke="#999" stroke-opacity="1" stroke-width="1" stroke-dasharray="1,6" fill="transparent" fill-opacity="0.2" class="leaflet-clickable" d="M532 550L534 550L532 551z"/>
  </g>
  <g>
    <path stroke-linejoin="round" stroke-linecap="round" fill-rule="evenodd" stroke="#999" stroke-opacity="1" stroke-width="1" stroke-dasharray="1,6" fill="transparent" fill-opacity="0.2" class="leaflet-clickable" d="M517 573L518 574z"/>
  </g>
  <g>
    <path stroke-linejoin="round" stroke-linecap="round" fill-rule="evenodd" stroke="#999" stroke-opacity="1" stroke-width="1" stroke-dasharray="1,6" fill="transparent" fill-opacity="0.2" class="leaflet-clickable" d="M458 579L459 578L458 580z"/>
  </g>
  <g>
    <path stroke-linejoin="round" stroke-linecap="round" fill-rule="evenodd" stroke="#999" stroke-opacity="1" stroke-width="1" stroke-dasharray="1,6" fill="transparent" fill-opacity="0.2" class="leaflet-clickable" d="M512 543L513 542z"/>
  </g>
  <g>
    <path stroke-linejoin="round" stroke-linecap="round" fill-rule="evenodd" stroke="#999" stroke-opacity="1" stroke-width="1" stroke-dasharray="1,6" fill="transparent" fill-opacity="0.2" class="leaflet-clickable" d="M464 576L464 577z"/>
  </g>
  <g>
    <path stroke-linejoin="round" stroke-linecap="round" fill-rule="evenodd" stroke="#999" stroke-opacity="1" stroke-width="1" stroke-dasharray="1,6" fill="transparent" fill-opacity="0.2" class="leaflet-clickable" d="M541 547L543 547z"/>
  </g>
  <g>
    <path stroke-linejoin="round" stroke-linecap="round" fill-rule="evenodd" stroke="#999" stroke-opacity="1" stroke-width="1" stroke-dasharray="1,6" fill="transparent" fill-opacity="0.2" class="leaflet-clickable" d="M502 446L503 447z"/>
  </g>
  <g>
    <path stroke-linejoin="round" stroke-linecap="round" fill-rule="evenodd" stroke="#999" stroke-opacity="1" stroke-width="1" stroke-dasharray="1,6" fill="transparent" fill-opacity="0.2" class="leaflet-clickable" d="M448 303L444 303L442 305L441 304L440 306L442 308L442 312L440 313L442 315L443 313L446 317L446 320L448 319L448 321L451 323L451 327L449 329L451 329L447 335L444 333L444 330L443 333L443 329L440 328L439 323L435 324L433 323L433 321L431 321L427 327L427 325L425 325L422 327L422 331L419 331L419 327L418 326L419 330L417 330L416 326L410 324L410 320L408 321L405 317L410 312L408 309L411 305L415 308L420 307L423 311L427 308L430 302L429 301L436 299L435 298L438 291L442 289L439 285L442 282L454 288L460 293L461 296L459 300L457 299L451 304L448 303z"/>
  </g>
  <g>
    <path stroke-linejoin="round" stroke-linecap="round" fill-rule="evenodd" stroke="#999" stroke-opacity="1" stroke-width="1" stroke-dasharray="1,6" fill="transparent" fill-opacity="0.2" class="leaflet-clickable" d="M408 309L408 309z"/>
  </g>
  <g>
    <path stroke-linejoin="round" stroke-linecap="round" fill-rule="evenodd" stroke="#999" stroke-opacity="1" stroke-width="1" stroke-dasharray="1,6" fill="transparent" fill-opacity="0.2" class="leaflet-clickable" d="M448 303L448 303z"/>
  </g>
  <g>
    <path stroke-linejoin="round" stroke-linecap="round" fill-rule="evenodd" stroke="#999" stroke-opacity="1" stroke-width="1" stroke-dasharray="1,6" fill="transparent" fill-opacity="0.2" class="leaflet-clickable" d="M448 303L448 303z"/>
  </g>
  <g>
    <path stroke-linejoin="round" stroke-linecap="round" fill-rule="evenodd" stroke="#999" stroke-opacity="1" stroke-width="1" stroke-dasharray="1,6" fill="transparent" fill-opacity="0.2" class="leaflet-clickable" d="M425 310L425 310z"/>
  </g>
  <g>
    <path stroke-linejoin="round" stroke-linecap="round" fill-rule="evenodd" stroke="#999" stroke-opacity="1" stroke-width="1" stroke-dasharray="1,6" fill="transparent" fill-opacity="0.2" class="leaflet-clickable" d="M410 308L409 307L408 309L410 313L405 317L408 321L410 320L410 324L416 326L417 331L413 327L409 330L409 333L411 333L411 335L414 335L417 338L415 340L405 341L405 337L402 336L397 339L394 337L395 333L393 332L393 330L395 329L389 328L389 333L384 335L384 340L380 345L378 345L377 349L380 356L379 358L375 360L372 359L369 362L366 362L364 359L363 360L364 358L361 355L362 353L360 353L361 352L359 351L353 339L352 338L349 341L346 337L346 331L342 328L342 326L339 328L338 335L335 332L335 321L333 315L334 310L332 302L333 301L329 295L329 293L332 293L328 289L325 281L315 275L315 271L317 271L316 269L319 265L315 263L315 259L318 258L318 255L320 254L323 256L327 256L327 259L332 269L335 270L336 273L338 272L342 274L343 270L347 276L348 274L352 277L353 275L359 275L357 268L358 267L360 267L361 269L362 268L363 270L366 263L366 268L369 268L371 265L373 265L369 258L372 258L377 253L381 256L380 257L383 261L385 260L385 262L386 261L392 263L395 269L394 272L399 276L406 275L407 272L408 275L411 273L418 276L421 274L425 275L427 279L429 277L430 279L436 282L442 282L440 282L441 283L439 285L442 288L438 291L435 298L436 299L430 300L429 305L425 310L423 311L420 308L416 308L411 305L410 307z"/>
  </g>
  <g>
    <path stroke-linejoin="round" stroke-linecap="round" fill-rule="evenodd" stroke="#999" stroke-opacity="1" stroke-width="1" stroke-dasharray="1,6" fill="transparent" fill-opacity="0.2" class="leaflet-clickable" d="M416 308L416 308z"/>
  </g>
  <g>
    <path stroke-linejoin="round" stroke-linecap="round" fill-rule="evenodd" stroke="#999" stroke-opacity="1" stroke-width="1" stroke-dasharray="1,6" fill="transparent" fill-opacity="0.2" class="leaflet-clickable" d="M408 309L408 308z"/>
  </g>
  <g>
    <path stroke-linejoin="round" stroke-linecap="round" fill-rule="evenodd" stroke="#999" stroke-opacity="1" stroke-width="1" stroke-dasharray="1,6" fill="transparent" fill-opacity="0.2" class="leaflet-clickable" d="M424 310L424 310z"/>
  </g>
  <g>
    <path stroke-linejoin="round" stroke-linecap="round" fill-rule="evenodd" stroke="#999" stroke-opacity="1" stroke-width="1" stroke-dasharray="1,6" fill="transparent" fill-opacity="0.2" class="leaflet-clickable" d="M424 310L424 310z"/>
  </g>
  <g>
    <path stroke-linejoin="round" stroke-linecap="round" fill-rule="evenodd" stroke="#999" stroke-opacity="1" stroke-width="1" stroke-dasharray="1,6" fill="transparent" fill-opacity="0.2" class="leaflet-clickable" d="M424 310L424 310z"/>
  </g>
  <g>
    <path stroke-linejoin="round" stroke-linecap="round" fill-rule="evenodd" stroke="#999" stroke-opacity="1" stroke-width="1" stroke-dasharray="1,6" fill="transparent" fill-opacity="0.2" class="leaflet-clickable" d="M453 353L451 354L452 356L450 359L452 358L453 361L451 365L446 366L448 366L447 369L444 367L443 371L440 368L434 374L427 367L425 368L425 371L415 375L413 380L404 375L399 380L396 378L399 372L400 373L396 370L397 368L394 368L397 355L395 353L394 355L392 354L391 356L389 356L386 348L390 344L396 344L397 346L400 346L402 344L404 345L406 340L411 341L417 339L415 335L413 336L411 335L411 333L409 333L409 330L412 329L413 327L417 331L419 328L418 326L420 329L419 331L422 331L422 327L425 325L427 325L427 327L429 326L429 322L433 321L434 324L439 323L441 329L443 329L443 333L444 331L447 335L450 331L450 333L452 333L451 339L453 341L445 349L446 350L448 348L452 348L453 352z"/>
  </g>
  <g>
    <path stroke-linejoin="round" stroke-linecap="round" fill-rule="evenodd" stroke="#999" stroke-opacity="1" stroke-width="1" stroke-dasharray="1,6" fill="transparent" fill-opacity="0.2" class="leaflet-clickable" d="M453 353L453 353z"/>
  </g>
  <g>
    <path stroke-linejoin="round" stroke-linecap="round" fill-rule="evenodd" stroke="#999" stroke-opacity="1" stroke-width="1" stroke-dasharray="1,6" fill="transparent" fill-opacity="0.2" class="leaflet-clickable" d="M453 352L453 352z"/>
  </g>
  <g>
    <path stroke-linejoin="round" stroke-linecap="round" fill-rule="evenodd" stroke="#999" stroke-opacity="1" stroke-width="1" stroke-dasharray="1,6" fill="transparent" fill-opacity="0.2" class="leaflet-clickable" d="M408 398L405 395L404 397L399 399L399 402L395 404L392 402L390 406L383 402L380 406L374 403L370 407L365 406L363 409L363 413L365 414L365 423L362 421L359 422L359 418L357 416L358 415L351 419L348 419L343 411L336 411L335 410L338 406L337 403L340 401L337 398L336 399L332 397L333 396L330 388L332 386L323 386L317 388L319 386L317 378L319 377L320 372L324 369L324 367L326 368L328 364L330 364L330 342L327 341L327 343L324 338L324 332L327 336L331 333L329 330L329 326L331 324L332 327L333 322L335 321L335 332L338 335L338 330L341 326L346 331L345 332L347 333L345 335L349 341L350 339L353 339L356 346L361 352L360 353L362 353L361 356L364 358L363 359L366 362L369 362L374 358L379 358L379 353L377 349L378 346L384 340L385 334L389 333L389 328L394 329L393 332L395 338L397 339L404 336L404 345L390 345L386 350L388 350L387 352L389 356L391 356L392 354L394 355L395 353L398 358L395 366L394 365L394 367L397 368L396 370L400 372L396 377L397 383L404 383L405 387L414 386L415 393L412 393L408 397z"/>
  </g>
  <g>
    <path stroke-linejoin="round" stroke-linecap="round" fill-rule="evenodd" stroke="#999" stroke-opacity="1" stroke-width="1" stroke-dasharray="1,6" fill="transparent" fill-opacity="0.2" class="leaflet-clickable" d="M106 253L108 251L114 251L122 237L127 239L133 238L139 240L141 239L140 237L144 236L145 233L148 235L151 234L151 237L153 238L167 238L177 232L178 234L185 233L190 227L194 225L196 226L200 224L203 225L210 223L214 223L217 225L219 224L228 228L225 229L225 231L229 232L228 237L225 238L226 244L229 245L228 248L230 253L227 256L227 258L235 267L244 270L248 269L251 272L255 272L257 275L265 274L266 276L268 275L271 278L274 277L278 279L279 277L284 275L287 279L293 282L292 285L294 288L298 287L301 290L302 285L304 285L308 289L309 288L307 284L314 283L314 277L316 276L325 280L327 287L332 292L329 295L332 301L334 310L333 315L335 321L333 321L334 324L332 325L332 327L331 324L329 326L329 330L331 333L327 336L325 332L325 334L322 335L321 332L320 333L318 330L316 331L317 333L315 333L315 337L311 340L305 335L298 333L292 336L291 338L280 342L272 351L260 350L255 352L254 344L249 343L250 340L246 336L244 339L240 336L238 337L229 334L222 340L222 345L220 347L217 345L218 337L216 335L211 338L210 337L210 339L198 339L193 336L191 338L188 337L188 335L186 337L187 338L185 338L182 332L175 332L176 328L172 330L165 325L166 324L164 320L159 322L153 316L149 315L146 311L143 310L141 306L133 306L131 311L125 305L121 303L119 304L112 297L106 297L103 293L103 285L99 282L100 276L103 275L103 277L106 280L109 277L109 272L102 262L102 256L105 255L106 253z"/>
  </g>
  <g>
    <path stroke-linejoin="round" stroke-linecap="round" fill-rule="evenodd" stroke="#999" stroke-opacity="1" stroke-width="1" stroke-dasharray="1,6" fill="transparent" fill-opacity="0.2" class="leaflet-clickable" d="M428 215L427 210L432 203L436 204L436 206L445 206L445 200L448 200L446 198L449 193L461 182L460 180L463 182L467 182L469 179L472 179L471 181L473 182L470 187L469 194L464 198L468 206L463 216L465 237L461 244L461 248L466 255L465 259L470 263L470 267L467 270L465 269L465 267L461 269L454 267L452 269L460 273L461 276L454 277L454 287L450 288L441 281L436 282L430 279L429 277L427 279L425 275L421 274L418 276L413 273L408 275L407 272L408 273L412 271L412 268L410 267L411 264L420 263L418 258L420 255L419 253L421 254L421 252L417 249L419 247L420 242L430 245L434 244L432 240L433 239L443 239L441 231L444 227L443 224L436 221L433 218L428 217z"/>
  </g>
  <g>
    <path stroke-linejoin="round" stroke-linecap="round" fill-rule="evenodd" stroke="#999" stroke-opacity="1" stroke-width="1" stroke-dasharray="1,6" fill="transparent" fill-opacity="0.2" class="leaflet-clickable" d="M414 274L414 274z"/>
  </g>
  <g>
    <path stroke-linejoin="round" stroke-linecap="round" fill-rule="evenodd" stroke="#999" stroke-opacity="1" stroke-width="1" stroke-dasharray="1,6" fill="transparent" fill-opacity="0.2" class="leaflet-clickable" d="M470 264L470 264z"/>
  </g>
  <g>
    <path stroke-linejoin="round" stroke-linecap="round" fill-rule="evenodd" stroke="#999" stroke-opacity="1" stroke-width="1" stroke-dasharray="1,6" fill="transparent" fill-opacity="0.2" class="leaflet-clickable" d="M419 243L420 247L417 249L421 252L421 254L419 253L420 255L418 258L420 263L411 264L410 267L413 268L412 271L408 273L407 272L406 275L400 276L394 273L395 266L391 262L385 262L385 260L383 261L378 253L374 255L375 256L373 256L372 258L370 258L371 263L373 263L373 265L366 269L366 263L363 264L362 261L359 262L356 259L354 253L355 252L367 256L370 252L367 249L367 245L372 241L371 237L372 238L373 235L376 237L377 236L375 233L376 231L379 230L379 227L376 221L374 220L376 218L373 216L373 214L375 214L368 206L365 206L363 203L358 203L353 197L348 196L346 193L345 194L347 198L331 185L329 187L326 186L323 190L322 188L315 184L310 183L311 191L310 193L308 192L306 196L307 198L303 197L303 199L296 195L294 197L291 197L289 195L283 196L281 190L268 188L267 184L258 186L258 183L261 179L264 163L274 162L277 155L283 149L285 149L289 145L291 148L292 146L301 142L301 138L299 135L300 133L304 130L313 129L320 147L318 149L325 158L326 163L329 162L330 160L331 163L331 161L333 160L335 162L335 160L345 158L348 162L347 168L339 174L341 173L348 176L348 179L350 179L350 181L354 180L354 186L359 186L358 187L360 189L365 191L368 188L366 185L373 183L379 185L383 182L390 180L393 185L389 192L384 195L385 199L383 200L383 203L387 204L392 209L398 209L397 212L399 212L401 215L404 215L404 221L408 227L405 231L409 233L411 237L412 236L417 240L419 238L418 234L424 232L423 227L420 226L418 222L419 219L421 218L420 213L425 213L428 215L428 217L433 218L443 224L444 227L443 230L441 231L443 238L441 240L433 239L432 240L434 243L430 245L420 242z"/>
  </g>
  <g>
    <path stroke-linejoin="round" stroke-linecap="round" fill-rule="evenodd" stroke="#999" stroke-opacity="1" stroke-width="1" stroke-dasharray="1,6" fill="transparent" fill-opacity="0.2" class="leaflet-clickable" d="M414 237L414 237z"/>
  </g>
  <g>
    <path stroke-linejoin="round" stroke-linecap="round" fill-rule="evenodd" stroke="#999" stroke-opacity="1" stroke-width="1" stroke-dasharray="1,6" fill="transparent" fill-opacity="0.2" class="leaflet-clickable" d="M414 238L414 237z"/>
  </g>
  <g>
    <path stroke-linejoin="round" stroke-linecap="round" fill-rule="evenodd" stroke="#999" stroke-opacity="1" stroke-width="1" stroke-dasharray="1,6" fill="transparent" fill-opacity="0.2" class="leaflet-clickable" d="M377 224L377 224z"/>
  </g>
  <g>
    <path stroke-linejoin="round" stroke-linecap="round" fill-rule="evenodd" stroke="#999" stroke-opacity="1" stroke-width="1" stroke-dasharray="1,6" fill="transparent" fill-opacity="0.2" class="leaflet-clickable" d="M419 233L419 233z"/>
  </g>
  <g>
    <path stroke-linejoin="round" stroke-linecap="round" fill-rule="evenodd" stroke="#999" stroke-opacity="1" stroke-width="1" stroke-dasharray="1,6" fill="transparent" fill-opacity="0.2" class="leaflet-clickable" d="M242 269L235 267L227 258L227 256L229 255L229 245L226 244L225 238L228 237L229 232L224 229L233 226L241 229L244 228L243 223L239 221L239 219L241 216L242 217L246 215L246 213L243 208L237 205L237 196L235 197L232 194L259 185L267 184L267 188L281 190L283 196L288 195L294 197L296 195L302 199L303 197L307 198L306 196L308 192L311 192L310 183L315 184L322 188L323 190L325 186L329 187L330 185L335 187L334 188L346 198L346 193L358 203L363 203L365 206L367 205L375 214L373 214L373 216L376 218L374 220L380 227L378 228L379 230L376 231L375 233L377 236L376 237L373 235L373 237L371 237L372 240L368 245L367 249L370 252L365 256L356 252L353 255L356 259L358 259L358 262L362 261L363 264L365 264L363 270L360 267L357 268L359 275L353 275L352 277L349 274L347 276L343 270L342 274L338 272L336 273L336 271L332 269L327 257L320 254L318 255L319 257L316 259L315 263L319 265L316 269L317 270L315 271L315 274L319 277L314 277L314 282L312 284L307 284L309 288L308 289L304 285L302 285L301 287L302 290L299 287L297 289L295 287L294 288L292 285L293 282L291 282L291 280L289 281L291 280L285 277L284 275L279 277L278 279L274 277L271 278L268 275L266 276L265 274L257 275L255 272L253 273L248 269L244 270z"/>
  </g>
  <g>
    <path stroke-linejoin="round" stroke-linecap="round" fill-rule="evenodd" stroke="#999" stroke-opacity="1" stroke-width="1" stroke-dasharray="1,6" fill="transparent" fill-opacity="0.2" class="leaflet-clickable" d="M414 237L411 237L410 234L407 233L406 231L408 227L404 221L404 215L401 215L400 212L397 211L398 209L395 209L411 203L410 198L412 197L411 196L414 185L416 182L422 181L424 186L419 196L427 199L432 203L428 207L427 214L420 213L421 218L418 221L419 226L424 228L424 232L418 234L419 238L417 240L414 237z"/>
  </g>
  <g>
    <path stroke-linejoin="round" stroke-linecap="round" fill-rule="evenodd" stroke="#999" stroke-opacity="1" stroke-width="1" stroke-dasharray="1,6" fill="transparent" fill-opacity="0.2" class="leaflet-clickable" d="M414 237L412 237z"/>
  </g>
  <g>
    <path stroke-linejoin="round" stroke-linecap="round" fill-rule="evenodd" stroke="#999" stroke-opacity="1" stroke-width="1" stroke-dasharray="1,6" fill="transparent" fill-opacity="0.2" class="leaflet-clickable" d="M414 237L414 237z"/>
  </g>
  <g>
    <path stroke-linejoin="round" stroke-linecap="round" fill-rule="evenodd" stroke="#999" stroke-opacity="1" stroke-width="1" fill="transparent" fill-opacity="0.2" class="leaflet-clickable" d="M106 253L101 249L98 249L95 242L96 237L85 236L78 233L79 231L73 232L73 229L71 229L72 224L69 219L66 219L65 216L62 215L59 216L59 214L55 215L55 212L62 211L62 209L59 206L59 195L58 193L52 191L48 193L46 190L47 186L43 181L48 178L48 171L54 170L57 167L59 167L59 164L62 165L67 162L69 165L68 166L70 167L75 165L76 167L78 165L80 157L93 156L92 155L96 153L96 151L101 149L102 150L103 148L110 144L119 141L120 129L122 129L122 126L126 124L126 119L122 111L122 101L119 97L117 98L119 93L122 94L123 92L128 92L138 88L139 91L143 90L146 92L147 89L143 86L143 84L152 58L162 62L171 62L173 64L177 61L180 61L182 58L180 45L183 38L192 36L196 25L206 25L207 28L205 30L209 33L208 35L215 39L217 43L221 45L226 44L228 47L231 47L233 50L235 50L237 58L243 66L241 73L243 78L239 83L241 91L247 93L267 94L273 96L287 106L292 106L292 110L294 110L298 122L304 130L300 132L299 135L301 141L300 143L292 146L291 148L289 145L285 149L283 149L274 159L274 162L264 163L261 179L258 183L258 186L238 191L235 194L232 194L235 198L237 196L237 205L244 209L246 213L246 215L242 217L241 216L239 218L239 221L243 222L244 228L241 229L232 226L228 228L222 225L221 226L214 223L208 223L203 225L195 225L188 228L185 233L178 234L177 232L168 236L167 238L158 239L152 237L151 234L148 235L145 233L144 236L140 237L141 239L139 240L134 240L133 238L125 239L122 237L115 251L106 252z" stroke-dasharray="1,6"/>
  </g>
  <g>
    <path stroke-linejoin="round" stroke-linecap="round" fill-rule="evenodd" stroke="#999" stroke-opacity="1" stroke-width="1" stroke-dasharray="1,6" fill="transparent" fill-opacity="0.2" class="leaflet-clickable" d="M577 407L573 399L573 391L584 375L590 371L594 373L594 380L587 401L584 404L582 414L580 413L579 408z"/>
  </g>
  <g>
    <path stroke-linejoin="round" stroke-linecap="round" fill-rule="evenodd" stroke="#999" stroke-opacity="1" stroke-width="1" stroke-dasharray="1,6" fill="transparent" fill-opacity="0.2" class="leaflet-clickable" d="M568 393L569 393z"/>
  </g>
  <g>
    <path stroke-linejoin="round" stroke-linecap="round" fill-rule="evenodd" stroke="#999" stroke-opacity="1" stroke-width="1" stroke-dasharray="1,6" fill="transparent" fill-opacity="0.2" class="leaflet-clickable" d="M612 366L612 366z"/>
  </g>
  <g>
    <path stroke-linejoin="round" stroke-linecap="round" fill-rule="evenodd" stroke="#999" stroke-opacity="1" stroke-width="1" stroke-dasharray="1,6" fill="transparent" fill-opacity="0.2" class="leaflet-clickable" d="M613 366L613 366z"/>
  </g>
  <g>
    <path stroke-linejoin="round" stroke-linecap="round" fill-rule="evenodd" stroke="#999" stroke-opacity="1" stroke-width="1" stroke-dasharray="1,6" fill="transparent" fill-opacity="0.2" class="leaflet-clickable" d="M614 363L614 364z"/>
  </g>
  <g>
    <path stroke-linejoin="round" stroke-linecap="round" fill-rule="evenodd" stroke="#999" stroke-opacity="1" stroke-width="1" stroke-dasharray="1,6" fill="transparent" fill-opacity="0.2" class="leaflet-clickable" d="M613 366L613 366z"/>
  </g>
  <g>
    <path stroke-linejoin="round" stroke-linecap="round" fill-rule="evenodd" stroke="#999" stroke-opacity="1" stroke-width="1" stroke-dasharray="1,6" fill="transparent" fill-opacity="0.2" class="leaflet-clickable" d="M590 411L590 412z"/>
  </g>
  <g>
    <path stroke-linejoin="round" stroke-linecap="round" fill-rule="evenodd" stroke="#999" stroke-opacity="1" stroke-width="1" stroke-dasharray="1,6" fill="transparent" fill-opacity="0.2" class="leaflet-clickable" d="M613 366L613 366z"/>
  </g>
  <g>
    <path stroke-linejoin="round" stroke-linecap="round" fill-rule="evenodd" stroke="#999" stroke-opacity="1" stroke-width="1" stroke-dasharray="1,6" fill="transparent" fill-opacity="0.2" class="leaflet-clickable" d="M504 406L508 407L508 409L507 410L505 408L502 410L504 408L503 407z"/>
  </g>
  <g>
    <path stroke-linejoin="round" stroke-linecap="round" fill-rule="evenodd" stroke="#999" stroke-opacity="1" stroke-width="1" stroke-dasharray="1,6" fill="transparent" fill-opacity="0.2" class="leaflet-clickable" d="M508 409L508 409z"/>
  </g>
  <g>
    <path stroke-linejoin="round" stroke-linecap="round" fill-rule="evenodd" stroke="#999" stroke-opacity="1" stroke-width="1" stroke-dasharray="1,6" fill="transparent" fill-opacity="0.2" class="leaflet-clickable" d="M508 408L508 408z"/>
  </g>
  <g>
    <path stroke-linejoin="round" stroke-linecap="round" fill-rule="evenodd" stroke="#999" stroke-opacity="1" stroke-width="1" stroke-dasharray="1,6" fill="transparent" fill-opacity="0.2" class="leaflet-clickable" d="M508 408L508 408z"/>
  </g>
  <g>
    <path stroke-linejoin="round" stroke-linecap="round" fill-rule="evenodd" stroke="#999" stroke-opacity="1" stroke-width="1" stroke-dasharray="1,6" fill="transparent" fill-opacity="0.2" class="leaflet-clickable" d="M499 410L499 411z"/>
  </g>
  <g>
    <path stroke-linejoin="round" stroke-linecap="round" fill-rule="evenodd" stroke="#999" stroke-opacity="1" stroke-width="1" stroke-dasharray="1,6" fill="transparent" fill-opacity="0.2" class="leaflet-clickable" d="M601 394L604 380z"/>
  </g>
  <g>
    <path stroke-linejoin="round" stroke-linecap="round" fill-rule="evenodd" stroke="#999" stroke-opacity="1" stroke-width="1" stroke-dasharray="1,6" fill="transparent" fill-opacity="0.2" class="leaflet-clickable" d="M586 427L594 416z"/>
  </g>
  <g>
    <path stroke-linejoin="round" stroke-linecap="round" fill-rule="evenodd" stroke="#999" stroke-opacity="1" stroke-width="1" stroke-dasharray="1,6" fill="transparent" fill-opacity="0.2" class="leaflet-clickable" d="M566 461L573 448z"/>
  </g>
  <g>
    <path stroke-linejoin="round" stroke-linecap="round" fill-rule="evenodd" stroke="#999" stroke-opacity="1" stroke-width="1" stroke-dasharray="1,6" fill="transparent" fill-opacity="0.2" class="leaflet-clickable" d="M562 496L562 484z"/>
  </g>
  <g>
    <path stroke-linejoin="round" stroke-linecap="round" fill-rule="evenodd" stroke="#999" stroke-opacity="1" stroke-width="1" stroke-dasharray="1,6" fill="transparent" fill-opacity="0.2" class="leaflet-clickable" d="M557 541L561 532L556 544z"/>
  </g>
  <g>
    <path stroke-linejoin="round" stroke-linecap="round" fill-rule="evenodd" stroke="#999" stroke-opacity="1" stroke-width="1" stroke-dasharray="1,6" fill="transparent" fill-opacity="0.2" class="leaflet-clickable" d="M522 587L530 578z"/>
  </g>
  <g>
    <path stroke-linejoin="round" stroke-linecap="round" fill-rule="evenodd" stroke="#999" stroke-opacity="1" stroke-width="1" stroke-dasharray="1,6" fill="transparent" fill-opacity="0.2" class="leaflet-clickable" d="M485 629L491 626L479 630z"/>
  </g>
  <g>
    <path stroke-linejoin="round" stroke-linecap="round" fill-rule="evenodd" stroke="#999" stroke-opacity="1" stroke-width="1" stroke-dasharray="1,6" fill="transparent" fill-opacity="0.2" class="leaflet-clickable" d="M439 600L438 588L439 600z"/>
  </g>
  <g>
    <path stroke-linejoin="round" stroke-linecap="round" fill-rule="evenodd" stroke="#999" stroke-opacity="1" stroke-width="1" stroke-dasharray="1,6" fill="transparent" fill-opacity="0.2" class="leaflet-clickable" d="M460 539L462 530L462 536L459 540z"/>
  </g>
  <g>
    <path stroke-linejoin="round" stroke-linecap="round" fill-rule="evenodd" stroke="#999" stroke-opacity="1" stroke-width="1" stroke-dasharray="1,6" fill="transparent" fill-opacity="0.2" class="leaflet-clickable" d="M457 494L451 482L455 488L457 495z"/>
  </g>
</svg>