<?xml version="1.0" encoding="utf-8"?>
<!-- Generator: Adobe Illustrator 23.0.1, SVG Export Plug-In . SVG Version: 6.00 Build 0)  -->
<svg version="1.1" id="图层_1" xmlns="http://www.w3.org/2000/svg" xmlns:xlink="http://www.w3.org/1999/xlink" x="0px" y="0px"
	 viewBox="0 0 580 428" style="enable-background:new 0 0 580 428;" xml:space="preserve">
<polygon style="fill:#265BFF;" points="68.8,305.1 101.8,299.3 112.8,310.1 118.5,345.7 61.9,355.7 55.6,323.7 "/>
<polygon style="fill:#265BFF;" points="140.6,292.8 135.1,306.1 142.1,341.8 200.6,331.6 200.6,304.6 188.1,284.8 "/>
<polygon style="fill:#265BFF;" points="229.3,301 240.2,280.4 287.6,280.4 295.6,292.1 295.6,328.5 234.2,328.5 "/>
<polygon style="fill:#265BFF;" points="47.7,314.1 65.2,297.8 86.5,294.1 88.8,280.4 43.2,275.5 43.2,281.7 38.2,281.3 42.9,305.6 
	"/>
<polygon style="fill:#265BFF;" points="114.8,274.8 115.3,292.6 145.1,287.1 143.3,277.8 "/>
<polygon style="fill:#265BFF;" points="148.2,276.2 150.2,286.1 178.6,281.2 178.6,268.2 "/>
<polygon style="fill:#265BFF;" points="249.8,264.9 249.8,274.8 274.6,274.8 274.6,265.5 "/>
<polygon style="fill:#265BFF;" points="281.6,264.9 281.6,274.8 304.8,277.2 304.8,268.2 "/>
<polygon style="fill:#265BFF;" points="315.8,268.2 315.8,278.8 346.6,273.5 343.1,259 "/>
<polygon style="fill:#265BFF;" points="42.2,212.4 55.6,214.3 54.5,231.2 56.2,231.2 54.4,246.7 90,249.9 88.2,266.1 71.2,271.4 
	35.9,267.1 "/>
<polygon style="fill:#265BFF;" points="56.5,214.5 55.4,230.5 77.5,231.5 78.3,216.8 "/>
<polygon style="fill:#265BFF;" points="57.2,231.5 77.3,232.6 76.5,247.7 55.7,245.5 "/>
<polygon style="fill:#265BFF;" points="79.3,217.1 90.8,218.1 91.6,235.3 78.3,233.8 "/>
<polygon style="fill:#265BFF;" points="78,234.9 91.6,236.6 90.5,248.8 77.6,247.7 "/>
<polygon style="fill:#265BFF;" points="47.9,156.6 66.3,158.6 65,169.2 62.1,169.2 61,182.5 59.7,182.5 59.2,187.6 45.2,185.9 "/>
<polygon style="fill:#265BFF;" points="45.2,186.6 59,188.3 59,191.7 63.6,192 62.4,205.3 43.2,203.2 "/>
<polygon style="fill:#265BFF;" points="66,168.3 69.3,168.5 69.3,169.5 84.8,171.3 84.8,174.6 83.3,174.6 80.5,206.7 63.4,205.3 
	64.6,192.2 64.8,191.4 59.7,190.9 60.6,183.3 62.1,183.2 63.1,169.9 65.8,170 "/>
<polygon style="fill:#265BFF;" points="85.8,171.3 85.8,175.4 84,175.4 81.3,206.7 92.8,207.9 102.2,198.4 98.5,193 96,186.6 
	95.2,180.4 95.6,172.5 "/>
<polygon style="fill:#265BFF;" points="49.9,142 48.2,155.5 67,158 66.3,167 70,167.5 70,168.8 95.8,171.9 97,161 89.5,152 
	75.3,144.1 65.3,143 65.3,142 52.5,140.7 50.9,141 "/>
<g>
	<circle style="opacity:0.52;fill:#FFFF10;enable-background:new    ;" cx="52.9" cy="211.5" r="1.5"/>
	<circle style="fill:#FFFF10;" cx="52.9" cy="211.5" r="1"/>
</g>
<g>
	<circle style="opacity:0.52;fill:#FFFF10;enable-background:new    ;" cx="90" cy="213" r="1.5"/>
	<circle style="fill:#FFFF10;" cx="90" cy="213" r="1"/>
</g>
<g>
	<circle style="opacity:0.52;fill:#FFFF10;enable-background:new    ;" cx="101.3" cy="157.1" r="1.5"/>
	<circle style="fill:#FFFF10;" cx="101.3" cy="157.1" r="1"/>
</g>
<g>
	<circle style="opacity:0.52;fill:#FFFF10;enable-background:new    ;" cx="106" cy="153.4" r="1.5"/>
	<circle style="fill:#FFFF10;" cx="106" cy="153.4" r="1"/>
</g>
<g>
	<circle style="opacity:0.52;fill:#FFFF10;enable-background:new    ;" cx="148.6" cy="154.4" r="1.5"/>
	<circle style="fill:#FFFF10;" cx="148.6" cy="154.4" r="1"/>
</g>
<g>
	<circle style="opacity:0.52;fill:#FFFF10;enable-background:new    ;" cx="94.8" cy="270.4" r="1.5"/>
	<circle style="fill:#FFFF10;" cx="94.8" cy="270.4" r="1"/>
</g>
<g>
	<circle style="opacity:0.52;fill:#FFFF10;enable-background:new    ;" cx="94.8" cy="275.5" r="1.5"/>
	<circle style="fill:#FFFF10;" cx="94.8" cy="275.5" r="1"/>
</g>
<g>
	<circle style="opacity:0.52;fill:#FFFF10;enable-background:new    ;" cx="95.3" cy="281.7" r="1.5"/>
	<circle style="fill:#FFFF10;" cx="95.3" cy="281.7" r="1"/>
</g>
<g>
	<circle style="opacity:0.52;fill:#FFFF10;enable-background:new    ;" cx="95.8" cy="288.2" r="1.5"/>
	<circle style="fill:#FFFF10;" cx="95.8" cy="288.2" r="1"/>
</g>
<g>
	<circle style="opacity:0.52;fill:#FFFF10;enable-background:new    ;" cx="96.3" cy="295.6" r="1.5"/>
	<circle style="fill:#FFFF10;" cx="96.3" cy="295.6" r="1"/>
</g>
<g>
	<circle style="opacity:0.52;fill:#FFFF10;enable-background:new    ;" cx="114.8" cy="304.7" r="1.5"/>
	<circle style="fill:#FFFF10;" cx="114.8" cy="304.7" r="1"/>
</g>
<g>
	<circle style="opacity:0.52;fill:#FFFF10;enable-background:new    ;" cx="134.6" cy="316.8" r="1.5"/>
	<circle style="fill:#FFFF10;" cx="134.6" cy="316.8" r="1"/>
</g>
<g>
	<circle style="opacity:0.52;fill:#FFFF10;enable-background:new    ;" cx="202.2" cy="303.4" r="1.5"/>
	<circle style="fill:#FFFF10;" cx="202.2" cy="303.4" r="1"/>
</g>
<g>
	<circle style="opacity:0.52;fill:#FFFF10;enable-background:new    ;" cx="206.8" cy="303.7" r="1.5"/>
	<circle style="fill:#FFFF10;" cx="206.8" cy="303.7" r="1"/>
</g>
<g>
	<circle style="opacity:0.52;fill:#FFFF10;enable-background:new    ;" cx="227.8" cy="300.9" r="1.5"/>
	<circle style="fill:#FFFF10;" cx="227.8" cy="300.9" r="1"/>
</g>
<g>
	<circle style="opacity:0.52;fill:#FFFF10;enable-background:new    ;" cx="298.4" cy="303.4" r="1.5"/>
	<circle style="fill:#FFFF10;" cx="298.4" cy="303.4" r="1"/>
</g>
<g>
	<circle style="opacity:0.52;fill:#FFFF10;enable-background:new    ;" cx="317.8" cy="305.8" r="1.5"/>
	<circle style="fill:#FFFF10;" cx="317.8" cy="305.8" r="1"/>
</g>
<g>
	<circle style="opacity:0.52;fill:#FFFF10;enable-background:new    ;" cx="397.4" cy="273" r="1.5"/>
	<circle style="fill:#FFFF10;" cx="397.4" cy="273" r="1"/>
</g>
<g>
	<circle style="opacity:0.52;fill:#FFFF10;enable-background:new    ;" cx="402.9" cy="272.5" r="1.5"/>
	<circle style="fill:#FFFF10;" cx="402.9" cy="272.5" r="1"/>
</g>
<g>
	<circle style="opacity:0.52;fill:#FFFF10;enable-background:new    ;" cx="407.4" cy="272" r="1.5"/>
	<circle style="fill:#FFFF10;" cx="407.4" cy="272" r="1"/>
</g>
<g>
	<circle style="opacity:0.52;fill:#FFFF10;enable-background:new    ;" cx="320.8" cy="160.8" r="1.5"/>
	<circle style="fill:#FFFF10;" cx="320.8" cy="160.8" r="1"/>
</g>
<g>
	<circle style="opacity:0.52;fill:#FFFF10;enable-background:new    ;" cx="236.3" cy="162.3" r="1.5"/>
	<circle style="fill:#FFFF10;" cx="236.3" cy="162.3" r="1"/>
</g>
<g>
	<circle style="opacity:0.52;fill:#FFFF10;enable-background:new    ;" cx="206.8" cy="162.3" r="1.5"/>
	<circle style="fill:#FFFF10;" cx="206.8" cy="162.3" r="1"/>
</g>
<g>
	<circle style="opacity:0.52;fill:#FFFF10;enable-background:new    ;" cx="216.6" cy="167.1" r="1.5"/>
	<circle style="fill:#FFFF10;" cx="216.6" cy="167.1" r="1"/>
</g>
<g>
	<circle style="opacity:0.52;fill:#FFFF10;enable-background:new    ;" cx="222.6" cy="167.1" r="1.5"/>
	<circle style="fill:#FFFF10;" cx="222.6" cy="167.1" r="1"/>
</g>
<g>
	<circle style="opacity:0.52;fill:#FFFF10;enable-background:new    ;" cx="226.6" cy="167.1" r="1.5"/>
	<circle style="fill:#FFFF10;" cx="226.6" cy="167.1" r="1"/>
</g>
<g>
	<circle style="opacity:0.52;fill:#FFFF10;enable-background:new    ;" cx="379.4" cy="128.1" r="1.5"/>
	<circle style="fill:#FFFF10;" cx="379.4" cy="128.1" r="1"/>
</g>
<g>
	<circle style="opacity:0.52;fill:#FFFF10;enable-background:new    ;" cx="377.4" cy="121.2" r="1.5"/>
	<circle style="fill:#FFFF10;" cx="377.4" cy="121.2" r="1"/>
</g>
<g>
	<circle style="opacity:0.52;fill:#FFFF10;enable-background:new    ;" cx="384.8" cy="121.2" r="1.5"/>
	<circle style="fill:#FFFF10;" cx="384.8" cy="121.2" r="1"/>
</g>
<g>
	<circle style="opacity:0.52;fill:#FFFF10;enable-background:new    ;" cx="388.2" cy="121.2" r="1.5"/>
	<circle style="fill:#FFFF10;" cx="388.2" cy="121.2" r="1"/>
</g>
<g>
	<circle style="opacity:0.52;fill:#FFFF10;enable-background:new    ;" cx="395.9" cy="120.2" r="1.5"/>
	<circle style="fill:#FFFF10;" cx="395.9" cy="120.2" r="1"/>
</g>
<polygon style="fill:#31C1D1;" points="117.2,307.3 121,330.7 133.6,328.5 129.8,305.8 "/>
<polygon style="fill:#31C1D1;" points="208.6,311.9 212.3,332 231.8,328.5 228.8,308.3 "/>
<polygon style="fill:#31C1D1;" points="188.8,264.9 236.3,264.9 235.3,273 230.3,280.6 224.1,286.1 215.6,288.2 205.3,287.1 
	198.1,283.2 191.6,277 "/>
<path style="fill:#31C1D1;" d="M299.9,289.7c1,0.5,15.9,0.7,15.9,0.7v24.9h-15.9V289.7z"/>
<polygon style="fill:#265BFF;" points="429.9,292.6 429.9,309.2 432.4,325.6 421.4,327.5 417.9,310.1 417.9,292.6 "/>
<polygon style="fill:#31C1D1;" points="476.1,247.6 491.2,247.6 491.2,262.6 495.6,262.6 495.6,266.6 480.2,266.6 476.1,263.1 "/>
<polygon style="fill:#31C1D1;" points="216.6,124.7 215.2,146.1 229.3,147.3 229.3,126.6 "/>
<polygon style="fill:#265BFF;" points="99,114.2 99,125.9 102.8,140.7 110.3,150.3 125.6,151.8 131.3,153.4 139.6,157.3 
	147.2,148.6 147.2,142.8 116.3,139.8 116.3,136 112.8,136 115.3,108.6 101.3,108.6 99,109.6 "/>
<polygon style="fill:#265BFF;" points="116.6,108 115.3,123.1 129.1,124.8 129.8,118.1 148.6,119.4 149.8,108 "/>
<polygon style="fill:#265BFF;" points="120.5,132.6 128.8,133.6 129.2,129 136.3,129.7 136.3,133.6 147.2,134.6 147.2,141.8 
	119.5,139.1 "/>
<polygon style="fill:#265BFF;" points="156.6,135.4 168.6,136 169.3,129.5 172.6,129.5 171.8,140.7 182.3,141.8 183.3,133.8 
	187.6,134.1 186.8,146.1 185.2,146.1 185.1,147.3 182.1,147.3 182.1,145.5 175.2,145 174.8,146 167.6,145.5 167.6,144 158.6,143.4 
	158.6,144.5 155.2,144.2 152.1,170.1 183.1,173.1 204.6,160.8 205.3,123.2 204.6,122 189.6,108 159.3,108.6 "/>
<polygon style="fill:#31C1D1;" points="104.5,176.4 109.5,174.6 115.3,190.6 109.8,193.5 "/>
<polygon style="fill:#31C1D1;" points="349.9,193.5 357.9,191.3 361.2,209.9 354.6,209.9 "/>
<rect x="407.4" y="237.8" style="fill:#31C1D1;" width="10.5" height="4.7"/>
<polygon style="fill:#31C1D1;" points="456.9,310.1 472.9,307.3 474.6,319 459.6,321.6 "/>
<polygon style="fill:#31C1D1;" points="351.4,297.9 367.2,295.7 370.2,310.1 355.6,312.3 "/>
<polygon style="fill:#31C1D1;" points="427.2,159.8 427.2,181.3 436.4,181.3 436.4,160.8 "/>
<polygon style="fill:#31C1D1;" points="147.2,226.2 145.1,241.9 160.2,243.4 161.6,227.8 "/>
<rect x="417.9" y="233.3" style="fill:#31C1D1;" width="14.4" height="10.1"/>
<polygon style="fill:#31C1D1;" points="93.8,230 99,233.3 111.5,212 106,207.9 "/>
<polygon style="fill:#31C1D1;" points="164.8,178.1 163.3,184.1 186.3,191.3 188.8,187.5 "/>
<polygon style="fill:#31C1D1;" points="270.6,181.3 274.6,187.5 295.6,178.1 293.2,173.1 "/>
<polygon style="fill:#31C1D1;" points="320.8,161.8 315.8,168.6 335.6,181.3 339.6,176.4 "/>
<polygon style="fill:#31C1D1;" points="403.9,193.5 408.9,197.7 395.9,219.3 389.8,214.5 "/>
<polygon style="fill:#265BFF;" points="215.2,174.6 215.2,191.3 218.2,193.5 239.6,191.3 239.6,174.6 "/>
<polygon style="fill:#265BFF;" points="117.2,206.7 125.3,206.7 133.2,205.3 142.2,200.6 147.2,193.5 202.2,200.1 200.6,228.6 
	182.1,226.2 182.8,212.5 178.6,212 176.1,224.6 143.8,220.6 141.8,234.8 116.3,233.3 "/>
<polygon style="fill:#265BFF;" points="184.3,231.5 180.8,260.9 189.8,258.7 198.6,258.4 199.6,231.5 "/>
<polygon style="fill:#265BFF;" points="115.3,237.4 111.5,268.2 142.3,271.4 173.6,262.6 177.2,229.8 164.3,228.3 163.3,246.2 
	142.3,244.5 "/>
<polygon style="fill:#265BFF;" points="215.2,152.9 229.3,153.4 229.3,161.8 215.2,160.8 "/>
<polygon style="fill:#265BFF;" points="234.8,200.6 314.9,189.6 341.2,195.1 342.4,205.3 346.6,214.1 348.9,219.3 234.1,217.1 "/>
<polygon style="fill:#265BFF;" points="361.2,231.5 351.4,248.8 319.8,259 319.2,247.7 314.9,247.7 314.9,233.3 296.9,233.3 
	296.9,223 348.9,223 351.4,223 356.9,228.3 "/>
<polygon style="fill:#265BFF;" points="234.1,240.1 244.6,240.1 244.6,257.6 233.1,257.8 "/>
<polygon style="fill:#31C1D1;" points="215.2,206.7 223.6,207.9 222.3,229.6 213.6,229.6 "/>
<polygon style="fill:#265BFF;" points="250.8,257.8 250.8,239.6 255.8,239.6 255.8,233.3 273.4,233.3 273.4,238.3 285.9,237.8 
	285.9,247.7 283.1,247.7 283.1,252.2 285.9,252.2 285.9,257.8 "/>
<polygon style="fill:#265BFF;" points="295.6,237.8 309.6,237.8 309.6,260.9 299.4,260.9 299.4,254 302.6,254.2 301.6,247.7 
	295.6,247.7 "/>
<rect x="276.1" y="220.6" style="fill:#265BFF;" width="12" height="12.7"/>
<polygon style="fill:#265BFF;" points="251.6,219.3 251.6,228.3 242.1,228.3 242.1,231.5 234.1,231.5 234.1,219.3 "/>
<polygon style="fill:#265BFF;" points="239.6,155.4 239.6,159.8 254.2,172.1 304.2,165.6 315.8,153.4 314.2,140.6 277.6,144.7 
	278.8,148.9 279.2,151.6 264.8,153.4 264.4,150.9 "/>
<polygon style="fill:#265BFF;" points="321.8,139.2 323.2,153.4 351.6,171.3 358.9,163.8 366.8,159.8 373.6,158.2 375.9,136 
	375.9,130.4 "/>
<polygon style="fill:#265BFF;" points="237.8,143.2 265.6,139.4 264.6,133 270.6,131.4 271.4,137.3 313.6,131.4 311.9,119.7 
	291.4,122.7 288.1,103.9 258.4,108 239.6,124.8 "/>
<polygon style="fill:#265BFF;" points="322.2,99 324.9,118.7 319.2,119.1 320.8,129.6 348.9,126.6 345.1,99 335.1,96.4 "/>
<polygon style="fill:#265BFF;" points="348.9,100.4 353.2,126.6 374.9,123.5 371.9,105.7 "/>
<polygon style="fill:#265BFF;" points="394.9,159.8 402.2,93.3 457.2,66 477.6,56.3 488.2,53.1 496.9,53.1 504.6,54.5 512.5,57.4 
	518.5,60 523.2,63.1 527.5,66.9 531.5,71.8 536.5,80.6 539.2,87.1 541,93.7 541,103.9 538.8,121.2 523,121.2 517.8,122.2 
	510.8,124.7 503.6,129.1 497.9,135.1 493.9,141.6 491.8,149.9 491.6,153.3 462.2,152.9 462.1,150.8 430.6,151.8 430.4,158.2 
	418.6,158.2 408.9,168.2 "/>
<polygon style="fill:#265BFF;" points="538.2,123.1 525.7,122.7 517.5,124.4 510.2,127 504.6,131.6 501.1,135.3 498.8,139.1 
	497.1,142 495.4,145.7 494.6,148 493.8,150.8 493.6,154.8 464.2,154.8 464.2,178.1 454.6,178.1 454.6,263.1 472.4,263.1 
	472.4,245.2 494.1,244.5 494.1,260.9 525,260.9 "/>
<rect x="437.6" y="159.8" style="fill:#265BFF;" width="24.2" height="16"/>
<polygon style="fill:#265BFF;" points="451.6,233.3 451.6,263.1 428.4,263.1 428.4,270.4 417.9,270.4 417.9,278.8 410.2,278.8 
	410.2,254.2 406.4,247.7 418.9,249 417.9,246.2 434.4,246.2 434.6,233.3 "/>
<polygon style="fill:#265BFF;" points="461.9,266 461.9,277.2 422.2,277.2 422.2,273.5 431.8,272.5 431.8,266 "/>
<polygon style="fill:#265BFF;" points="412.6,289.7 425.2,289.7 435.4,289.7 467.8,283.2 467.8,278.8 422.2,278.8 422.2,281.8 
	411.1,282.3 "/>
<polygon style="fill:#265BFF;" points="445.9,291.2 467.8,285.5 470.9,300.9 449.2,306.2 "/>
<polygon style="fill:#265BFF;" points="471.6,277.9 517,277.9 517,298.6 492.2,301.9 478.2,322.3 476.1,309.3 "/>
<polygon style="fill:#265BFF;" points="329.1,291 329.1,304.2 331.2,315.7 348.9,313.3 344.2,289.2 "/>
<polygon style="fill:#265BFF;" points="367.2,285.5 372.4,308.3 384.6,306.8 386.9,316.8 401.4,315.3 394.9,280.4 "/>
<polygon style="fill:#265BFF;" points="451.6,184.1 417.9,184.1 419.9,194.6 419.4,202.3 417.9,209.9 414.9,215.5 406.4,226.2 
	398.4,229.6 398.4,233.3 414.9,233.3 415.1,230.5 451.6,229.6 "/>
<polygon style="fill:#265BFF;" points="432.4,292.6 439.4,291.2 440.9,296.1 443.8,295.7 451.6,327.5 445.2,327.5 435.2,327.5 
	433.2,316.8 432.4,308.3 "/>
</svg>
