<?xml version="1.0" encoding="utf-8"?>
<!-- Generator: Adobe Illustrator 23.0.1, SVG Export Plug-In . SVG Version: 6.00 Build 0)  -->
<svg version="1.1" id="B1" xmlns="http://www.w3.org/2000/svg" xmlns:xlink="http://www.w3.org/1999/xlink" x="0px" y="0px"
	 viewBox="0 0 580.1 428.6" style="enable-background:new 0 0 580.1 428.6;" xml:space="preserve">
<g>
	
		<rect x="309.2" y="130" transform="matrix(0.9886 -0.1508 0.1508 0.9886 -16.7026 48.5595)" style="fill:#2D3B80;" width="5.2" height="8.8"/>
	
		<rect x="330.9" y="145.8" transform="matrix(0.9886 -0.1508 0.1508 0.9886 -18.6658 52.417)" style="fill:#2D3B80;" width="10.7" height="6.9"/>
	<polygon style="fill:#3582C6;" points="42.2,213.3 47.3,166.8 65.4,168.6 64.5,179.4 61,179.2 59.8,192.9 58.4,193 57.7,201.8 
		62.8,202.3 61.3,215.7 	"/>
	<path style="fill:#3582C6;" d="M47.4,165.8l1.7-14c0,0,1-1.2,1.5-1.3c0.6-0.1,14,1.4,14,1.4v1l10.1,1l14.6,8.3l7,8.9l-1.3,11.7
		c0,0-1.7,12.1,2,19c3.6,6.7,4.2,6.8,4.2,6.8l-8.9,10.1l-12.5-1.5l0.2-3.3l-1.1-0.1l1.3-9.4l1.2,0.1l0.9-8.3l-1.2-0.2l1.3-11.1
		l1,0.1l0.5-3.5l-18.3-2.2l1.1-12L47.4,165.8z"/>
	<polygon style="fill:#3582C6;" points="79.1,227.5 90,228.6 90.9,246.1 77.3,244.6 77.6,240.5 76.4,240.6 77.5,231 78.8,231 	"/>
	<path style="fill:#3582C6;" d="M116.1,117.6l-1.4,15.3h-1.2l-1.2,13.1l3.8,0.4l-0.4,3.2l7.2,1v1.2l3.9,0.3l-1.2,9.7l-15.5-1.6
		L103,151l-4.7-16l1-10.3l-1-0.1l0.7-5.7c0,0,0.7-1.4,3-1.4S116.1,117.6,116.1,117.6z"/>
	<polygon style="fill:#3582C6;" points="128.8,134.6 129.6,127.4 141.4,128.7 141.1,132.3 148.1,133.1 149.8,117.6 116.7,117.6 
		115.4,133 	"/>
	<path style="fill:#3582C6;" d="M149,159.9l-1.7,17.3c0,0-0.9,0.8-1.4-0.2s-2.5-7.5-7.2-10.3c-4.7-2.8-6.8-3.9-11.8-4.8l1.2-9.8
		l3.1,0.4l0.1-1.2l14.6,1.6l-0.3,2.3l3,0.2l-0.4,4.5H149z"/>
	<polygon style="fill:#3582C6;" points="159,117.6 157,137.9 172.5,139.6 173.2,133.2 188.1,134.9 189.8,117.8 189.1,117.6 	"/>
	<path style="fill:#3582C6;" d="M190.5,117.9l-1.7,17h0.5l-2.4,20.8l18.2,1.5l1-24.1c0,0,0.3-0.8-1.1-2
		C203.6,130,190.5,117.9,190.5,117.9z"/>
	<polygon style="fill:#3582C6;" points="182.8,183.2 183.3,183.2 204.6,169.8 204.9,157.8 185.7,156.3 	"/>
	<polygon style="fill:#3582C6;" points="171.4,155.7 168.5,181.5 182.2,183.2 185,157.1 181.9,156.8 182,155.5 175.7,155 175.6,156 
			"/>
	<polygon style="fill:#3582C6;" points="155,154 152.3,179.6 167.8,181.4 170.6,155.8 167.5,155.5 167.5,153.9 158.7,153.1 
		158.6,154.3 	"/>
	<path style="fill:#3582C6;" d="M239.7,153.3l26.4-4.2l-1-6.6h1l-0.6-6.1l5.2-1l-3.2-19.2l-6.9,1.1c0,0-0.7-0.1-2.5,1.5
		c-1.8,1.6-16.8,14.4-16.8,14.4s-0.6,0.4-0.7,2.3S239.7,153.3,239.7,153.3z"/>
	<polygon style="fill:#3582C6;" points="289.1,113 291.5,129.8 281.8,131.1 282.3,133.9 271.4,135.3 268.2,116.2 	"/>
	<polygon style="fill:#3582C6;" points="323.6,108.9 337,107.1 346.7,109.4 348.7,125.1 338.8,126.4 338.2,124 326.3,125.5 	"/>
	<polygon style="fill:#3582C6;" points="350.2,109.3 370.6,114.3 370.6,115.1 373.7,115.9 374.3,120.9 358.7,123.3 358.6,122.8 
		355.9,123 355.5,120.4 352,120.9 351.5,117.2 352.7,116.9 352.2,113 350.6,113.1 	"/>
	<path style="fill:#3582C6;" d="M356.4,143.7l20.8-3.2l0.5,3.8l-2.5,23.6c0,0-6.4,0.6-14.7,6.2C359.7,167.9,356.4,143.7,356.4,143.7
		z"/>
	<path style="fill:#3582C6;" d="M325.1,154.4l0.7,6.4l-0.7,0.2l0.4,2.6l20.5,13c0,0,4.4,2.2,10,0c2.6-1.1,3.6-2,3.6-2l-4.2-30.9
		l-3.5,0.6l1,6.2L325.1,154.4z"/>
	<polygon style="fill:#3582C6;" points="315.6,149.5 316.6,155.7 315.6,155.9 316.1,160.7 317.4,160.5 317.7,163.1 304.3,174.8 
		300.9,175.2 298.2,158.5 302.1,158.1 301,151.7 	"/>
	<path style="fill:#3582C6;" d="M284.1,160.7c0.1,0.1,2.2,16.6,2.2,16.6l14-2.1l-2.7-16.5L284.1,160.7z"/>
	<polygon style="fill:#3582C6;" points="268.1,161.5 268.3,162.8 269,162.8 271.5,179.6 285.4,177.5 283.3,160.8 276.5,161.6 
		276.4,160.3 	"/>
	<polygon style="fill:#3582C6;" points="257.5,163 264.5,162 264.8,163.3 267.7,163 267.9,164.6 268.6,164.5 270.9,179.6 
		259.9,181.4 	"/>
	<polygon style="fill:#3582C6;" points="240.2,165.2 240.2,169.9 255.6,181.7 259.3,181.4 256.8,163.1 	"/>
	<path style="fill:#3582C6;" d="M419.6,191.9h19.6v-6.6h10.5v4.1l7.5,0.2v54.1h-36.4v-0.7l-16.5,0.1l-1.8,1.1L401,242l4.7-2.9
		c1.2-0.8,2.4-1.7,3.4-2.7l4.1-4.3c0.9-0.9,1.6-1.8,2.3-2.8l1.6-2.4c0.5-0.7,0.9-1.5,1.3-2.3l2.2-5.3l1-3.7c0.4-1.3,0.6-2.6,0.7-4
		l0.1-2l0.1-2.4c0-1.1,0-2.2-0.1-3.3l-0.3-2.6c0-0.4-0.1-0.8-0.2-1.2l-0.3-1.8c-0.2-1.1-0.5-2.2-0.9-3.3L419.6,191.9z"/>
	<polygon style="fill:#3582C6;" points="420.6,254.3 434.8,254.3 434.8,245.1 457.2,245.1 457.2,274.2 450,274.2 450,272 435,272 
		435,274.2 431,274.2 431,281.7 420,281.7 420,289 412.1,289 412.1,266.2 409.6,261.7 413.1,261.7 413.1,259 420.7,259 	"/>
	<polygon style="fill:#3582C6;" points="415.1,294.7 415.7,298 413.9,298.4 414.5,301.1 417.5,300.5 434.9,300.6 434.9,299.2 
		437.5,298.6 437.9,299.9 447.5,297.9 447.5,296.9 450.3,296.4 450.7,297.5 470.9,294 470,289.5 425.4,289.5 425.9,292.8 	"/>
	<polygon style="fill:#3582C6;" points="432.5,303.4 432.5,321 435.8,339.7 455.5,339.7 463.4,338.5 459.1,315.5 451.1,316.9 
		449.5,306.7 444.4,307.7 443.2,301.8 438.1,302.5 438.4,303.9 435.5,304.6 435.2,303.4 	"/>
	<polygon style="fill:#3582C6;" points="380.8,289.5 380.8,293.7 383.1,304.5 385,304.1 386.6,312.3 401.5,309.6 397.7,289 	"/>
	<polygon style="fill:#3582C6;" points="344.1,291.1 355.1,289.5 377.8,289.5 377.8,293.4 378.2,296 375.1,296 376.8,305.3 
		347.7,310.7 	"/>
	<polygon style="fill:#3582C6;" points="322.3,321.2 341.6,321.4 339.7,312.1 346.6,310.9 343.1,291.3 322.3,295 322.3,299.1 
		328.5,297.5 329.2,302.6 322.3,303.9 	"/>
	<polygon style="fill:#3582C6;" points="322.3,339.9 347,339.9 347,338.4 344.2,338.4 344.2,335.8 349.3,335.8 348,328.7 
		346.6,328.8 346,325.6 342.4,326.4 341.6,322 322.3,322 	"/>
	<path style="fill:#3582C6;" d="M396.7,169.7c0,0,4-0.5,15.1,10.1c9.2-9.2,9.7-10.2,9.7-10.2h13.3v-16.8h61.5
		c0,0,5.7-27.1,46.3-21.7l1.7-12.8c0,0,6.3-35.4-27.7-51.9c-7.3-2.7-20.3-9-42.7,1.3c-21.1,10.8-69,34.6-69,34.6L396.7,169.7z"/>
	<path style="fill:#3582C6;" d="M343.3,205.2c0,0-0.3,14.2,6.9,24.3h-4.8v-0.8h-3.6v1h-6.6v-0.9h-4v-26L343.3,205.2z"/>
	<polygon style="fill:#3582C6;" points="316.2,199.9 330.5,202.8 330.5,228.8 327.2,228.8 327.2,229.7 320.1,229.7 320.1,228.8 
		316.2,228.8 	"/>
	<polygon style="fill:#3582C6;" points="301.3,202.1 315.6,200.1 315.6,228.7 312.3,228.7 312.3,229.7 305.4,229.7 305.4,228.7 
		301.3,228.7 	"/>
	<polygon style="fill:#3582C6;" points="286.5,204.3 300.6,202.4 300.6,228.7 297.3,228.7 297.3,229.7 290.5,229.7 290.5,228.7 
		286.5,228.7 	"/>
	<polygon style="fill:#30596B;" points="271.6,206.5 285.8,204.5 285.8,228.6 282.5,228.6 282.5,229.7 275.5,229.7 275.5,228.7 
		271.6,228.7 	"/>
	<polygon style="fill:#3582C6;" points="256.8,208.8 270.8,206.7 270.8,229.1 256.8,229.1 	"/>
	<polygon style="fill:#3582C6;" points="236.6,211.7 256,208.9 256,228.6 252.1,228.6 252.1,239.4 242.1,239.4 242.1,244.6 
		234.6,244.1 	"/>
	<polygon style="fill:#3582C6;" points="245.5,250.3 245.3,269.3 233.3,269.3 234.1,250.2 235.4,250.3 235.4,251.3 241.3,251.4 
		241.4,250.4 	"/>
	<polygon style="fill:#3582C6;" points="251.7,261.2 251.7,269.7 287,269.3 287,263 284.1,263 284.1,258.6 273.4,258.6 273.4,261.2 
			"/>
	<polygon style="fill:#3582C6;" points="302.2,265.2 302.2,258.6 310.7,258.6 310.3,272.6 300.7,271.2 300.7,265.3 	"/>
	<polygon style="fill:#3582C6;" points="200.4,241.8 199.1,270 188.9,270 181.4,272.2 180.8,270.7 184.2,240.9 187.6,241.2 
		187.5,242.6 190.5,242.8 190.6,241.5 	"/>
	<path style="fill:#3582C6;" d="M118.1,217.9c0,0,4.1,0.6,8.2,0c4-0.6,11.6-1.4,20-12c4.4,0.5,4.4,0.5,4.4,0.5l-2.6,25.1h-4.2
		l-1.9,14.9l-6.2-0.6l0.1-1.1l-8.1-0.9l-0.1,0.9l-12.4-1.1L118.1,217.9z"/>
	<polygon style="fill:#3582C6;" points="201.7,211.9 200.4,238.1 191.8,237.8 191.8,236.5 188.1,236.2 188.1,237.2 181.7,236.4 
		182.8,230 183.7,230.1 183.9,226.8 182.8,226.8 183.4,221.1 179.8,220.8 179.8,222.1 168,220.9 168,219.6 159.6,218.8 158.2,234 
		151.7,233.5 151.7,232.1 148.9,231.8 151.6,206.4 	"/>
	<polygon style="fill:#3582C6;" points="157,278.4 158.8,263.8 173.6,265.3 173,271.1 173.2,272.8 173.6,273.9 	"/>
	<path style="fill:#30596B;" d="M317.7,243.9l7.7-0.1l0-10.1h20.1v1.2l5.1,0.1v-1.3h3.4c0,0,4.8,5.5,10.3,7.9
		c-3.5,6-12.1,18-12.1,18L321,271.6l-0.8-1.9l-0.1-7.8l4-0.2v-3.1h7.4l-0.1-10.2l-13.6,0V243.9z"/>
	<polygon style="fill:#30596B;" points="114.9,247.5 111.2,279.3 142.7,283 155.8,279.1 158.1,260.5 162.1,260.8 162.7,255.8 
		159.5,255.6 159.6,254.2 145.1,252.8 145.1,251.6 135.2,250.6 135.2,251.4 126.5,250.6 126.6,249.4 	"/>
	<path style="fill:#30596B;" d="M70,282l17.5-4.9l3.4-30.2l-13.8-1.6l-0.3,3.4l-1.3-0.1l-0.7,6.4l1.3,0.2l-0.2,3.6l-1.3-0.1
		l-0.3,1.2l-21.2-2.6l1.5-14.5h-3.5v-1.5H50l0.5-3.6l3.5,0.2l1.2-13.2L41,223.2l-5.5,51.2c0,0-1.1,3.6,2.8,4.1S70,282,70,282z"/>
	<polygon style="fill:#3582C6;" points="55.9,335.8 69.3,317.2 83.3,314.8 85.8,327.9 70.9,330.9 71.3,333.7 67.3,334.5 72.7,364.5 
		61.5,366.5 	"/>
	<polygon style="fill:#3582C6;" points="84.6,314.5 100.9,311.7 110.8,322 117,356.5 100.4,359.5 97.3,342 96.1,342.2 93.2,329.8 
		90,330.6 89.5,327.6 87,327.8 	"/>
	<path style="fill:#3582C6;" d="M142.3,352.2l10-1.7l-0.9-5.4h-2l-1.7-8.2l2.2-0.4c0,0-0.9-10.1-4.2-12.8c-3.3-2.6-5.1-3.2-5.1-3.2
		v-0.9l2.7-11l-0.4-3.3h-1.4l-5.2,12.2l4.1,24.3l5.4-1.1l0.9,5l-5.3,1L142.3,352.2z"/>
	<path style="fill:#3582C6;" d="M159.5,322.1l-1.3-6.9l19-3.3l0.4,2.7l6.5-1.2l-0.3-1.3l6.4-1.1l3,18.6l-7.3,1.3l2.3,13.2l11.7-2
		v-26.3l-11.7-18.6l-44.3,7.9l0.7,3.4C144.6,308.6,154.8,311.7,159.5,322.1z"/>
	<polygon style="fill:#3582C6;" points="231.5,313.1 241.3,292.6 242.8,292.6 242.8,297.9 247.6,297.9 247.6,292.6 257.6,292.6 
		257.6,294.9 251.5,295.2 251.4,307.9 248.2,307.9 248.2,306.3 241.9,306.3 241.9,325.6 249.6,325.6 249.6,339.2 236.1,339.2 	"/>
	<polygon style="fill:#3582C6;" points="273.6,339.2 296.1,339.2 296.1,303.7 288.6,292.6 258.6,292.6 258.6,295.7 252.4,296 
		252.4,307.8 254.8,307.8 254.8,305.3 273.9,305.3 	"/>
	
		<rect x="356.1" y="309.5" transform="matrix(-0.9896 0.1437 -0.1437 -0.9896 759.0529 577.6113)" style="fill:#2D3B80;" width="5.2" height="13.5"/>
	
		<rect x="257.5" y="311.9" transform="matrix(-1 -1.224647e-16 1.224647e-16 -1 526.2078 632.5753)" style="fill:#2D3B80;" width="11.3" height="8.8"/>
	
		<rect x="257.2" y="307.1" transform="matrix(-1 -1.224647e-16 1.224647e-16 -1 526.2078 618.4738)" style="fill:#2D3B80;" width="11.9" height="4.2"/>
	
		<rect x="242.2" y="311.1" transform="matrix(-1 -1.224647e-16 1.224647e-16 -1 491.9694 628.6994)" style="fill:#2D3B80;" width="7.6" height="6.6"/>
	
		<rect x="166.3" y="324.4" transform="matrix(-0.9837 0.1798 -0.1798 -0.9837 399.6864 616.8013)" style="fill:#2D3B80;" width="11.2" height="4.2"/>
	
		<rect x="163.9" y="315.6" transform="matrix(-0.9837 0.1798 -0.1798 -0.9837 392.7482 599.7601)" style="fill:#2D3B80;" width="10.6" height="4.2"/>
	
		<rect x="182.8" y="317.4" transform="matrix(-0.9837 0.1798 -0.1798 -0.9837 428.3676 600.1696)" style="fill:#2D3B80;" width="8.4" height="4.2"/>
	
		<rect x="100.6" y="191.7" transform="matrix(-0.282 -0.9594 0.9594 -0.282 -45.9227 353.1465)" style="fill:#2D3B80;" width="17.2" height="4.2"/>
	
		<rect x="424.1" y="177.2" transform="matrix(-1.277560e-02 -0.9999 0.9999 -1.277560e-02 258.9252 614.1861)" style="fill:#2D3B80;" width="17.2" height="4.2"/>
	
		<rect x="446.8" y="141.9" transform="matrix(-1.277560e-02 -0.9999 0.9999 -1.277560e-02 299.3346 608.6544)" style="fill:#2D3B80;" width="6.7" height="29.4"/>
	
		<rect x="441.1" y="174.8" transform="matrix(-1.277560e-02 -0.9999 0.9999 -1.277560e-02 270.2296 626.5304)" style="fill:#2D3B80;" width="6.7" height="10.1"/>
	
		<rect x="353.9" y="124.3" transform="matrix(0.9927 -0.1207 0.1207 0.9927 -13.0123 44.0131)" style="fill:#2D3B80;" width="5.6" height="10.1"/>
	
		<rect x="362.1" y="123.3" transform="matrix(0.9927 -0.1207 0.1207 0.9927 -12.8308 45.0016)" style="fill:#2D3B80;" width="5.6" height="10.1"/>
	
		<rect x="340.1" y="127.1" transform="matrix(0.9886 -0.1508 0.1508 0.9886 -16.0282 53.1166)" style="fill:#2D3B80;" width="4.1" height="10.1"/>
	
		<rect x="328.3" y="127.2" transform="matrix(0.9927 -0.1207 0.1207 0.9927 -13.556 40.8568)" style="fill:#2D3B80;" width="4.1" height="10.1"/>
	
		<rect x="283.4" y="134" transform="matrix(0.9927 -0.1207 0.1207 0.9927 -14.6987 35.4824)" style="fill:#2D3B80;" width="4.1" height="10.1"/>
	
		<rect x="216.1" y="135.1" transform="matrix(0.9995 3.263015e-02 -3.263015e-02 0.9995 4.8831 -7.217)" style="fill:#2D3B80;" width="14.8" height="21.8"/>
	
		<rect x="472.4" y="154.3" transform="matrix(-1.277560e-02 -0.9999 0.9999 -1.277560e-02 325.3002 634.2276)" style="fill:#2D3B80;" width="6.7" height="4.5"/>
	
		<rect x="481.4" y="151.3" transform="matrix(-1.277560e-02 -0.9999 0.9999 -1.277560e-02 334.468 643.0781)" style="fill:#2D3B80;" width="6.7" height="10.3"/>
	
		<rect x="523.1" y="150.8" transform="matrix(-1.277560e-02 -0.9999 0.9999 -1.277560e-02 379.8702 684.0644)" style="fill:#2D3B80;" width="9.1" height="7.4"/>
	
		<rect x="344.6" y="131.7" transform="matrix(-0.1508 -0.9886 0.9886 -0.1508 267.2936 497.1266)" style="fill:#2D3B80;" width="5.2" height="4.2"/>
	
		<rect x="334.9" y="133.9" transform="matrix(0.9886 -0.1508 0.1508 0.9886 -16.6582 52.4537)" style="fill:#2D3B80;" width="5.2" height="4.2"/>
	
		<rect x="319.2" y="128.5" transform="matrix(0.9886 -0.1508 0.1508 0.9886 -16.3573 50.0537)" style="fill:#2D3B80;" width="5.2" height="8.8"/>
	
		<rect x="288.2" y="141.1" transform="matrix(0.9886 -0.1508 0.1508 0.9886 -18.2643 45.5041)" style="fill:#2D3B80;" width="5.2" height="4.2"/>
	
		<rect x="266" y="136.9" transform="matrix(7.587042e-02 0.9971 -0.9971 7.587042e-02 386.8296 -139.3186)" style="fill:#2D3B80;" width="5.2" height="4.2"/>
	
		<rect x="295.6" y="134.2" transform="matrix(0.9886 -0.1508 0.1508 0.9886 -17.1152 46.9956)" style="fill:#2D3B80;" width="11.2" height="4.2"/>
	
		<rect x="271.5" y="137.9" transform="matrix(0.9886 -0.1508 0.1508 0.9886 -17.945 43.4053)" style="fill:#2D3B80;" width="11.2" height="4.2"/>
	
		<rect x="283.2" y="153.7" transform="matrix(0.9886 -0.1508 0.1508 0.9886 -20.3106 45.3502)" style="fill:#2D3B80;" width="11.2" height="5.7"/>
	
		<rect x="517.8" y="150.2" transform="matrix(-0.9999 1.277560e-02 -1.277560e-02 -0.9999 1042.5671 297.8354)" style="fill:#2D3B80;" width="5.2" height="4.2"/>
	
		<rect x="517.8" y="155.3" transform="matrix(-0.9999 1.277560e-02 -1.277560e-02 -0.9999 1042.6335 308.221)" style="fill:#2D3B80;" width="5.2" height="4.2"/>
	
		<rect x="348.8" y="209.3" transform="matrix(-0.1642 -0.9864 0.9864 -0.1642 207.5741 598.7252)" style="fill:#2D3B80;" width="17.2" height="4.2"/>
	
		<rect x="410" y="248.8" transform="matrix(-0.9999 1.277560e-02 -1.277560e-02 -0.9999 833.8625 496.4853)" style="fill:#2D3B80;" width="10.7" height="4.2"/>
	
		<rect x="315.7" y="249.4" transform="matrix(-1.277560e-02 -0.9999 0.9999 -1.277560e-02 70.8947 572.9341)" style="fill:#2D3B80;" width="5.2" height="4.2"/>
	
		<rect x="262.2" y="244.8" transform="matrix(-0.9999 1.277560e-02 -1.277560e-02 -0.9999 532.7763 490.445)" style="fill:#2D3B80;" width="5.2" height="4.2"/>
	
		<rect x="259.7" y="250.1" transform="matrix(-0.9999 1.277560e-02 -1.277560e-02 -0.9999 533.7006 504.7809)" style="fill:#2D3B80;" width="11.2" height="8.1"/>
	
		<rect x="259.7" y="229.7" transform="matrix(-1 -8.183488e-14 8.183488e-14 -1 530.4901 468.7796)" style="fill:#2D3B80;" width="11.2" height="9.4"/>
	
		<rect x="277.3" y="234.1" transform="matrix(-1 -8.183488e-14 8.183488e-14 -1 565.7971 477.5535)" style="fill:#2D3B80;" width="11.2" height="9.4"/>
	
		<rect x="299" y="234.1" transform="matrix(-1 -8.183488e-14 8.183488e-14 -1 609.2437 477.5535)" style="fill:#2D3B80;" width="11.2" height="9.4"/>
	
		<rect x="302.2" y="248.4" transform="matrix(-1 -1.071480e-13 1.071480e-13 -1 612.8713 506.7249)" style="fill:#2D3B80;" width="8.5" height="9.9"/>
	
		<rect x="315.6" y="234.1" transform="matrix(1.936841e-13 -1 1 1.936841e-13 81.53 559.0835)" style="fill:#2D3B80;" width="9.4" height="9.4"/>
	
		<rect x="274.5" y="248.4" transform="matrix(-0.9999 1.277560e-02 -1.277560e-02 -0.9999 562.0309 503.0073)" style="fill:#2D3B80;" width="9.8" height="9.8"/>
	
		<rect x="321.2" y="252.8" transform="matrix(-0.9999 1.277560e-02 -1.277560e-02 -0.9999 655.3221 506.6892)" style="fill:#2D3B80;" width="9.7" height="5.4"/>
	
		<rect x="166.4" y="242.5" transform="matrix(-0.9968 -7.932864e-02 7.932864e-02 -0.9968 318.0826 501.78)" style="fill:#2D3B80;" width="5.2" height="4.2"/>
	
		<rect x="177.2" y="144.5" transform="matrix(-0.9968 -7.932864e-02 7.932864e-02 -0.9968 347.4187 306.9985)" style="fill:#2D3B80;" width="5.2" height="4.2"/>
	
		<rect x="175.9" y="136.8" transform="matrix(-0.9968 -7.932864e-02 7.932864e-02 -0.9968 349.6806 293.2259)" style="fill:#2D3B80;" width="9.6" height="5.8"/>
	
		<rect x="160.6" y="138.8" transform="matrix(-0.9968 -7.932864e-02 7.932864e-02 -0.9968 313.3135 296.575)" style="fill:#2D3B80;" width="4" height="6.6"/>
	
		<rect x="131.7" y="138.3" transform="matrix(-0.9968 -7.932864e-02 7.932864e-02 -0.9968 256.9311 291.0357)" style="fill:#2D3B80;" width="5.2" height="4.2"/>
	
		<rect x="132.8" y="128.4" transform="matrix(-0.9968 -7.932864e-02 7.932864e-02 -0.9968 259.9187 274.0652)" style="fill:#2D3B80;" width="5.2" height="7"/>
	
		<rect x="115.7" y="136.3" transform="matrix(-0.9968 -7.932864e-02 7.932864e-02 -0.9968 229.961 288.0544)" style="fill:#2D3B80;" width="10" height="6.3"/>
	
		<rect x="71" y="189.7" transform="matrix(7.787056e-02 -0.997 0.997 7.787056e-02 -123.3412 250.2681)" style="fill:#2D3B80;" width="5.2" height="4.2"/>
	
		<rect x="61.2" y="188" transform="matrix(7.787056e-02 -0.997 0.997 7.787056e-02 -129.4528 242.2259)" style="fill:#2D3B80;" width="10" height="6.2"/>
	
		<rect x="63.3" y="202.2" transform="matrix(7.787056e-02 -0.997 0.997 7.787056e-02 -141.5958 257.9452)" style="fill:#2D3B80;" width="10.8" height="6.7"/>
	
		<rect x="61.9" y="230.4" transform="matrix(9.516890e-02 -0.9955 0.9955 9.516890e-02 -174.8007 278.1405)" style="fill:#2D3B80;" width="7.4" height="9.7"/>
	
		<rect x="165.6" y="246.5" transform="matrix(9.516890e-02 -0.9955 0.9955 9.516890e-02 -97.7935 395.1493)" style="fill:#2D3B80;" width="5.8" height="9.7"/>
	
		<rect x="170.1" y="225.4" transform="matrix(9.516890e-02 -0.9955 0.9955 9.516890e-02 -73.2668 379.9212)" style="fill:#2D3B80;" width="4.5" height="9.7"/>
	
		<rect x="166.2" y="256.2" transform="matrix(9.516890e-02 -0.9955 0.9955 9.516890e-02 -104.0836 402.9822)" style="fill:#2D3B80;" width="6.9" height="5.1"/>
	
		<rect x="55.1" y="247.1" transform="matrix(7.787056e-02 -0.997 0.997 7.787056e-02 -194.3061 290.4581)" style="fill:#2D3B80;" width="9.5" height="6.3"/>
	
		<rect x="64.2" y="248.8" transform="matrix(7.787056e-02 -0.997 0.997 7.787056e-02 -188.5134 297.9572)" style="fill:#2D3B80;" width="5.2" height="4.2"/>
	
		<rect x="410.1" y="253.6" transform="matrix(-0.9999 1.277560e-02 -1.277560e-02 -0.9999 833.5731 506.7838)" style="fill:#2D3B80;" width="10.2" height="4.9"/>
	
		<rect x="78" y="340.3" transform="matrix(-0.9837 0.1798 -0.1798 -0.9837 221.3557 664.7076)" style="fill:#2D3B80;" width="5.2" height="4.2"/>
	
		<rect x="83.9" y="339.2" transform="matrix(-0.9837 0.1798 -0.1798 -0.9837 232.9186 661.4922)" style="fill:#2D3B80;" width="5.2" height="4.2"/>
	
		<rect x="75.8" y="330.9" transform="matrix(-0.9837 0.1798 -0.1798 -0.9837 221.2564 646.0228)" style="fill:#2D3B80;" width="11.1" height="4.2"/>
	
		<rect x="458.4" y="324.2" transform="matrix(-0.1636 -0.9865 0.9865 -0.1636 217.7292 837.2043)" style="fill:#2D3B80;" width="10.7" height="4.2"/>
	
		<rect x="458.5" y="305.4" transform="matrix(-0.9865 0.1636 -0.1636 -0.9865 966.1676 535.4865)" style="fill:#2D3B80;" width="5.2" height="4.2"/>
	
		<rect x="464.4" y="304.6" transform="matrix(-0.9865 0.1636 -0.1636 -0.9865 977.2422 537.5966)" style="fill:#2D3B80;" width="4.2" height="9"/>
	
		<rect x="516.1" y="290.3" transform="matrix(-1 -1.224647e-16 1.224647e-16 -1 1036.3423 589.4905)" style="fill:#2D3B80;" width="4.2" height="9"/>
	
		<rect x="451.4" y="301.2" transform="matrix(-0.9865 0.1636 -0.1636 -0.9865 951.5416 528.2874)" style="fill:#2D3B80;" width="5.2" height="4.2"/>
	
		<rect x="441.4" y="281.7" transform="matrix(-1 -1.224647e-16 1.224647e-16 -1 887.9396 570.7351)" style="fill:#2D3B80;" width="5.2" height="7.3"/>
	
		<rect x="453.7" y="306.6" transform="matrix(-0.9865 0.1636 -0.1636 -0.9865 956.461 543.3426)" style="fill:#2D3B80;" width="4.4" height="8.9"/>
	
		<rect x="468.6" y="322.7" transform="matrix(-0.1636 -0.9865 0.9865 -0.1636 231.0771 845.5872)" style="fill:#2D3B80;" width="10.7" height="4.2"/>
	
		<rect x="364.8" y="307.6" transform="matrix(-0.9896 0.1437 -0.1437 -0.9896 775.7163 568.0169)" style="fill:#2D3B80;" width="5.2" height="8.9"/>
	
		<rect x="369.9" y="306.8" transform="matrix(-0.9896 0.1437 -0.1437 -0.9896 785.4651 561.0728)" style="fill:#2D3B80;" width="5.2" height="4.2"/>
	
		<rect x="375.5" y="306.2" transform="matrix(-0.9896 0.1437 -0.1437 -0.9896 795.2025 563.1718)" style="fill:#2D3B80;" width="3.6" height="8.2"/>
	
		<rect x="341.7" y="312.2" transform="matrix(-0.9834 0.1813 -0.1813 -0.9834 739.7078 570.0676)" style="fill:#2D3B80;" width="4.2" height="13.2"/>
	
		<rect x="380.6" y="311.3" transform="matrix(-0.9896 0.1437 -0.1437 -0.9896 807.7647 568.9794)" style="fill:#2D3B80;" width="5.6" height="4.8"/>
	<polygon style="fill:#30596B;" points="146.8,236.7 162,238.4 160.4,253.5 145.9,251.9 145.9,251.1 145.1,251 	"/>
	<polygon style="fill:#30596B;" points="347.7,311.2 354.6,310.1 356.5,323.4 349.8,324.5 	"/>
	<rect x="421.1" y="246.6" style="fill:#30596B;" width="13.1" height="7.1"/>
	<rect x="458.2" y="185.8" style="fill:#30596B;" width="11" height="87.8"/>
	<rect x="482.6" y="185.8" style="fill:#30596B;" width="11" height="71.9"/>
	<polygon style="fill:#2D3B80;" points="153.6,199.5 184.1,202.8 185,201.9 186.4,202.2 188.3,196.8 194.6,198.7 195.5,187.5 
		185.7,186.5 185.4,190.6 181.5,191.7 179.4,185.8 155.4,183.2 	"/>
	<polygon style="fill:#2D3B80;" points="258.5,201.4 269.1,199.9 269.1,193.3 272.6,192.1 274.8,197.4 276.8,197 277.3,198.6 
		299.1,195.5 299.1,182.6 258.5,188.4 	"/>
	<polygon style="fill:#2D3B80;" points="317.7,193.1 334.6,196.6 338,192 338.7,192.6 343.4,185.3 322,171.3 317.3,179.2 	"/>
	<polygon style="fill:#2D3B80;" points="406.4,205.5 411.2,208.4 398.3,229.7 393.4,226.8 	"/>
	<polygon style="fill:#2D3B80;" points="317.3,289.5 349.3,284 344.1,269.7 317.3,279.6 	"/>
	<polygon style="fill:#2D3B80;" points="250.7,286.2 275.6,286.2 275.6,276.1 249.8,276.1 	"/>
	<polygon style="fill:#2D3B80;" points="150.6,297.3 178.4,292.6 178.4,278.4 148.9,287.8 	"/>
	<polygon style="fill:#2D3B80;" points="42.2,285 88,291.3 85.8,305.7 64.5,309.2 47.4,325.2 42.2,316.3 37.4,292.6 41.4,292.6 	"/>
	<polygon style="fill:#2D3B80;" points="117,326 132.5,327.7 129.6,314.8 116.4,316.4 	"/>
	<polygon style="fill:#2D3B80;" points="208.2,322.7 211.7,340.7 214.1,340.1 214.6,343.5 233.3,339.9 229.3,319.1 	"/>
	<polygon style="fill:#2D3B80;" points="301.8,311.1 315,314.4 315,302.6 302.3,302.6 	"/>
	<polygon style="fill:#2D3B80;" points="115.3,303.3 145.1,298.1 143.1,289 114.3,286.2 	"/>
	<path style="fill:#30596B;" d="M190.6,276.1h48.8c0,0-2.2,25.1-24.4,24C193.9,299.1,190.6,283,190.6,276.1z"/>
	<polygon style="fill:#2D3B80;" points="281.5,286.2 290,286.2 306.4,289.5 306.4,278.4 285.4,276.1 281.5,276.1 	"/>
	<path style="fill:#30596B;" d="M398.4,251.4l8.2,15.7v14.7l-42.4,1.1l-7.9-17.2l9.5-14.7C365.9,250.9,377.7,257,398.4,251.4z"/>
	<polygon style="fill:#30596B;" points="213.9,204.5 220.7,204.5 239.7,201.4 239.7,184.6 215,184.6 	"/>
	<polygon style="fill:#30596B;" points="73.5,347 90.2,343.8 93.3,360.8 76.4,363.9 	"/>
	<polygon style="fill:#30596B;" points="161.2,332 178,328.7 181,345.3 164.5,348.4 	"/>
	<rect x="256.6" y="322" style="fill:#30596B;" width="15.8" height="17.2"/>
	<polygon style="fill:#30596B;" points="349.9,325.6 402.4,316.1 404.5,328.6 394,330.4 393.8,339.7 351.7,339.9 351.7,335.1 	"/>
	<polygon style="fill:#30596B;" points="386.7,313.1 401.5,310.7 402.1,314.9 387.5,317.3 	"/>
	<polygon style="fill:#30596B;" points="474.4,289.5 478.5,312.3 474.8,313.1 478.9,334.7 480.9,334.4 495.6,313.3 520.3,308.1 
		520.3,300.1 515,300.7 514.9,289.5 	"/>
	<rect x="450.4" y="169.4" style="fill:#30596B;" width="14.6" height="15.9"/>
	<rect x="479.3" y="258.9" style="fill:#30596B;" width="15" height="18.5"/>
	<polygon style="fill:#30596B;" points="509.1,273.6 524.1,273.6 524.1,258.1 526.2,258.1 526.2,243.3 529,243.3 529,205.8 
		526.4,205.8 526.4,183.8 529.7,183.8 529.7,171 530.7,171 530.7,162.6 510.6,162.6 510.6,171.4 509.8,171.4 509.8,185.3 
		509.1,185.3 	"/>
	<polygon style="fill:#30596B;" points="414.7,303.9 418.1,303.3 421.1,303.3 431.5,303.6 431.5,320.8 434.8,339.7 423.7,339.7 
		423.4,338.6 420.9,338.5 	"/>
</g>
</svg>
