<?xml version="1.0" encoding="utf-8"?>
<!-- Generator: Adobe Illustrator 23.0.1, SVG Export Plug-In . SVG Version: 6.00 Build 0)  -->
<svg version="1.1" id="图层_1" xmlns="http://www.w3.org/2000/svg" xmlns:xlink="http://www.w3.org/1999/xlink" x="0px" y="0px"
	 viewBox="0 0 580 428" style="enable-background:new 0 0 580 428;" xml:space="preserve">
<polygon style="fill:#31C1D1;" points="103.1,179.9 101.6,195.9 120.9,198 122.9,181.6 "/>
<rect x="417.8" y="164.7" style="fill:#31C1D1;" width="14" height="15.2"/>
<rect x="402.1" y="230.4" style="fill:#31C1D1;" width="14.6" height="21.6"/>
<polygon style="fill:#265BFF;" points="515.4,84.2 515.4,98.6 502.9,98.6 502.9,85.1 "/>
<rect x="460.5" y="139.7" style="fill:#31C1D1;" width="13.5" height="8.6"/>
<g>
	<circle style="opacity:0.52;fill:#FFFF00;" cx="107" cy="186" r="1.5"/>
	<circle style="fill:#FFFF00;" cx="107" cy="186" r="1"/>
</g>
<g>
	<circle style="opacity:0.52;fill:#FFFF00;" cx="422.6" cy="175.7" r="1.5"/>
	<circle style="fill:#FFFF00;" cx="422.6" cy="175.7" r="1"/>
</g>
<g>
	<circle style="opacity:0.52;fill:#FFFF00;" cx="422.6" cy="170.8" r="1.5"/>
	<circle style="fill:#FFFF00;" cx="422.6" cy="170.8" r="1"/>
</g>
<g>
	<circle style="opacity:0.52;fill:#FFFF00;" cx="411.4" cy="239.4" r="1.5"/>
	<circle style="fill:#FFFF00;" cx="411.4" cy="239.4" r="1"/>
</g>
<g>
	<circle style="opacity:0.52;fill:#FFFF00;" cx="409.1" cy="233" r="1.5"/>
	<circle style="fill:#FFFF00;" cx="409.1" cy="233" r="1"/>
</g>
<g>
	<circle style="opacity:0.52;fill:#FFFF00;" cx="464.5" cy="144" r="1.5"/>
	<circle style="fill:#FFFF00;" cx="464.5" cy="144" r="1"/>
</g>
<g>
	<circle style="opacity:0.52;fill:#FFFF00;" cx="470.8" cy="144" r="1.5"/>
	<circle style="fill:#FFFF00;" cx="470.8" cy="144" r="1"/>
</g>
<g>
	<circle style="opacity:0.52;fill:#FFFF00;" cx="106.6" cy="190.4" r="1.5"/>
	<circle style="fill:#FFFF00;" cx="106.6" cy="190.4" r="1"/>
</g>
<polygon style="fill:#265BFF;" points="52.6,260.3 51.1,314.6 54.2,328.7 73.8,325.4 67.4,289.9 68.2,261.8 "/>
<polygon style="fill:#265BFF;" points="74.3,322.9 80,321.3 81.9,331.5 76,333.8 "/>
<path style="fill:#265BFF;" d="M65.9,344.7c0,0,2,10.9,2.3,10.9s7.1,0.6,7.1,0.6l70.5-12.5l-2.3-9.9l-70.2,12.9l-1.2-3.2L65.9,344.7
	z"/>
<polygon style="fill:#265BFF;" points="113.1,329.1 104.7,330.7 101.5,316.7 110.3,315.1 "/>
<polygon style="fill:#265BFF;" points="139.6,318.7 112.9,322.9 111.3,315.1 110.7,313.4 137.6,308.1 "/>
<polygon style="fill:#24AACE;" points="150.8,270.2 149.5,283.2 151.6,296 154.2,306.5 138.9,309.7 138.6,308.1 136.3,298.7 
	133.5,284.1 135.4,270.2 "/>
<polygon style="fill:#265BFF;" points="162.6,271.9 161.6,283.3 208.2,288.4 218.4,288.4 219.2,277.7 "/>
<polygon style="fill:#265BFF;" points="216.6,331.4 210.2,289.4 218.4,289.4 226.8,329.4 "/>
<polygon style="fill:#265BFF;" points="149.3,343.5 201.5,334.4 200.3,325.1 158.7,333.1 158.9,334.8 147.9,336.6 "/>
<polygon style="fill:#265BFF;" points="244.7,320.9 301.7,320.9 301.7,330.1 244.7,330.7 "/>
<polygon style="fill:#265BFF;" points="324.3,320.9 363.3,320.9 365.2,322.3 365.2,330.3 324.3,330.3 "/>
<polygon style="fill:#265BFF;" points="368.8,320.9 387.3,320.9 387.8,330.3 367.6,330.3 "/>
<polygon style="fill:#265BFF;" points="400.1,312.8 404.8,311.9 407.6,325.8 402.1,326.7 "/>
<polygon style="fill:#265BFF;" points="421.5,295.5 424.1,310.8 426.7,320 430.3,330.7 416.5,330.7 413,309 411.4,297.2 "/>
<polygon style="fill:#265BFF;" points="436.2,330.7 466.7,330.7 466.7,321.2 457.7,321.9 435.6,321.9 "/>
<path style="fill:#265BFF;" d="M410.1,279c0.5,0.1,7.6,0,7.6,0v9.6h-7.1L410.1,279z"/>
<polygon style="fill:#24AACE;" points="451.2,279 460.3,279 460.3,287.6 450.5,288.7 "/>
<path style="fill:#265BFF;" d="M466.7,277.8c0.3,0,11.9,0,11.9,0v9.2l-11.9,0.6V277.8z"/>
<polygon style="fill:#265BFF;" points="483.3,279 502.5,278.6 501.4,288.6 483.3,288.6 "/>
<polygon style="fill:#265BFF;" points="430.5,247.6 502.5,248.3 502.5,267.6 431.3,267.6 "/>
<polygon style="fill:#265BFF;" points="403.9,219.8 516.3,219.8 516.3,239.4 417.8,239.4 417.8,229.4 403.9,229.4 "/>
<polygon style="fill:#265BFF;" points="402.1,253.1 402.1,264.3 419.3,264.7 419.3,253.1 "/>
<rect x="400.9" y="190.1" style="fill:#265BFF;" width="102.9" height="21.1"/>
<polygon style="fill:#265BFF;" points="230.5,277.9 230.5,288.6 239.5,288.6 398.7,288.6 398.7,277.9 "/>
<polygon style="fill:#265BFF;" points="239.3,309.9 239.7,288.6 230.5,288.6 229.9,309.7 "/>
<polygon style="fill:#265BFF;" points="202,173.2 192.6,254.8 216.1,256.3 220.8,175.4 "/>
<polygon style="fill:#265BFF;" points="192,263.5 213.3,265.9 216.1,256.3 192.6,254.8 "/>
<polygon style="fill:#265BFF;" points="173,173.2 192.6,175.1 188,219.2 167.9,216.1 "/>
<polygon style="fill:#265BFF;" points="166,253.3 164.9,262.5 179.8,264.3 181.2,254.8 "/>
<polygon style="fill:#265BFF;" points="81.8,243.1 126.2,248.6 125,258.8 81,254.8 "/>
<polygon style="fill:#265BFF;" points="123.9,181.6 134.4,182.8 126.2,248.6 116.2,247.4 "/>
<polygon style="fill:#265BFF;" points="67.6,220.2 65,249.4 54,248.6 56.4,218.7 "/>
<polygon style="fill:#265BFF;" points="61.3,170.3 71.4,171.4 66.8,206.4 58.1,205.5 "/>
<polygon style="fill:#265BFF;" points="63.7,155.2 91.4,158 92.1,148.8 64.6,146.9 "/>
<polygon style="fill:#265BFF;" points="83.5,167.2 90.8,167.9 91.4,159 84,158.1 "/>
<polygon style="fill:#265BFF;" points="93.9,149.2 134.4,153.7 132.7,172.3 91.8,167.9 93.1,148.8 "/>
<polygon style="fill:#265BFF;" points="84.9,138.1 119.1,141.8 119.9,132 86.3,128.9 "/>
<polygon style="fill:#265BFF;" points="135.9,159.1 182.3,164 183.2,154.5 135.9,149.4 "/>
<polygon style="fill:#265BFF;" points="209.8,135.3 214.1,135.9 212.8,146.4 208.3,145.2 "/>
<polygon style="fill:#265BFF;" points="208.3,149.4 221.4,150.1 220.8,164 206.5,164 "/>
<polygon style="fill:#265BFF;" points="172.4,132.7 178.2,133.2 177.8,143 171.6,142.5 "/>
<polygon style="fill:#265BFF;" points="231.9,135.3 253.3,132.7 258,163.2 243.8,164.8 231.4,163.4 "/>
<polygon style="fill:#265BFF;" points="271.8,152.2 340.7,141.9 341.9,150.7 273.3,162.1 "/>
<polygon style="fill:#265BFF;" points="357.3,138.7 382.5,135.3 382.5,132.7 388.7,131.7 390.1,145 358.6,149.4 "/>
<polygon style="fill:#265BFF;" points="381.2,115.3 390.1,114.4 391.7,129.1 382.1,130.2 "/>
<polygon style="fill:#265BFF;" points="403.3,110.5 487.5,110.5 487.5,130.2 404.1,130.2 "/>
<polygon style="fill:#265BFF;" points="403.8,139.1 444.5,139 444.5,147.9 403.8,147.9 "/>
<rect x="449.3" y="139.7" style="fill:#265BFF;" width="8.6" height="8.6"/>
<path style="fill:#265BFF;" d="M475.5,139.7c0.8,0.3,8.2,0,8.2,0v9.2h-8.2V139.7z"/>
<polygon style="fill:#265BFF;" points="400.9,149.9 400.9,172.8 403.8,172.8 410.8,172.8 411.2,149.9 "/>
<rect x="403.8" y="173.8" style="fill:#265BFF;" width="10.9" height="8"/>
<polygon style="fill:#265BFF;" points="459,173.3 459,181.8 432.7,181.8 432.7,172.8 "/>
<rect x="463.3" y="173.3" style="fill:#265BFF;" width="38.4" height="8.5"/>
<rect x="513.5" y="165.6" style="fill:#265BFF;" width="10.1" height="11.7"/>
<rect x="514" y="181.1" style="fill:#265BFF;" width="9.6" height="11.7"/>
<polygon style="fill:#24AACE;" points="516.4,193.5 524.8,193.5 522.3,208.4 516.8,208.4 "/>
<rect x="501.8" y="100" style="fill:#265BFF;" width="9.9" height="26.4"/>
<polygon style="fill:#265BFF;" points="531.5,80.1 540.6,80.1 540.1,91.1 531.5,91.1 "/>
<polygon style="fill:#265BFF;" points="475.5,62.7 542.6,63.2 542.6,72.7 475.5,72.7 "/>
<path style="fill:#265BFF;" d="M460.5,67.2c0.3-0.2,12.7-3.9,12.7-3.9v8.9l-11.7,0.6L460.5,67.2z"/>
<polygon style="fill:#265BFF;" points="446.3,82.1 487.5,82.1 487.5,101.1 447.5,101.5 "/>
<polygon style="fill:#265BFF;" points="416.6,92.1 429.6,88.6 429.6,101.1 416.6,101.1 "/>
<rect x="403.8" y="91.8" style="fill:#265BFF;" width="11.6" height="9.3"/>
<polygon style="fill:#265BFF;" points="359.2,116.7 380,114.4 381.2,132.2 362.2,135.1 "/>
<polygon style="fill:#265BFF;" points="363.2,94.2 364.4,102.2 378.7,100.2 376.8,89.9 "/>
<polygon style="fill:#265BFF;" points="222.9,123.4 251.3,119.4 279.3,115.5 331.2,107.8 364.4,102.2 363.2,94.2 352,97.2 
	335.1,99.2 320.2,101.1 279.6,107.4 264.6,109.7 249.6,111.8 233.6,114.4 222.9,115.5 "/>
<polygon style="fill:#265BFF;" points="271.5,129.8 282.7,128 285.5,146.4 274.3,148.1 "/>
<polygon style="fill:#265BFF;" points="226.4,174.4 249.8,173.8 249,269.7 227.2,269.7 "/>
<polygon style="fill:#265BFF;" points="256.7,173.2 275.6,170.9 277.1,173.2 279,267.9 270.8,270.2 257.2,269.7 255.1,265.9 
	255.7,173.2 "/>
<polygon style="fill:#265BFF;" points="286.3,168.4 304.5,167.4 305.2,267.4 285.5,267.4 "/>
<path style="fill:#265BFF;" d="M315.5,168.7c0.4-0.2,15.7-4.7,15.7-4.7l2.1,0.7l1.1,28.8l-10.2,1.2H315L315.5,168.7z"/>
<polygon style="fill:#24AACE;" points="314.6,222.6 332.6,222.6 332.6,241 315.4,240.8 "/>
<polygon style="fill:#265BFF;" points="316.2,254.3 323.7,254.3 323.7,258.3 332.6,258.3 332.1,266.6 316.2,267.4 "/>
<polygon style="fill:#265BFF;" points="343.8,160.8 361.8,160.8 362.4,193.8 343.8,194.3 "/>
<polygon style="fill:#265BFF;" points="343.8,213.8 343.8,265.9 361.7,265.9 362.4,213.8 "/>
<polygon style="fill:#265BFF;" points="372.7,156.7 390.4,156.7 391.1,265.9 372.7,265.9 "/>
<path style="fill:#24AACE;" d="M411.4,78.1c0.6,1,4,13.7,4,13.7l30.9-9.7l-1.9-12.6L411.4,78.1z"/>
<polygon style="fill:#24AACE;" points="488.9,309.9 505.3,309.9 506.4,315.2 505.5,322.6 502.5,330.3 497.7,337 487.8,344.5 
	470.7,344.5 470.7,330.3 478.6,328.5 484.3,325.4 487.8,320.9 488.6,315.2 "/>
<polygon style="fill:#24AACE;" points="532.6,141.9 516.3,141.9 516.3,145 502.9,145.5 502.9,129 489.7,128.2 489.7,166.8 
	502.9,166.8 503.8,155.1 517.3,155.8 525.5,156.7 530.5,156.1 "/>
<polygon style="fill:#24AACE;" points="302.7,289.6 302.7,330.1 318.4,330.3 318.4,289.6 "/>
<rect x="238.1" y="311.9" style="fill:#265BFF;" width="6.6" height="18.7"/>
<polygon style="fill:#265BFF;" points="78.6,313 99.6,310.4 96.1,294.5 95.6,280.2 95.9,265.9 75.7,264.7 75.7,286.6 77.9,303.7 "/>
<path style="fill:#265BFF;" d="M73.8,325.4c0,0,2.3,15.8,1.9,16.1c-0.4,0.2-17.6,4-17.6,4l-3.9-16.8L73.8,325.4z"/>
<path style="fill:#265BFF;" d="M103.6,265.9c4.2,0.1,21.7,1.7,21.7,1.7l-1.4,17.1l2.3,16.6l-19.2,4.4l-4.3-19.9L103.6,265.9z"/>
<polygon style="fill:#265BFF;" points="200.2,318 212.8,316.1 215.6,331.4 202.5,334.4 "/>
<path style="fill:#265BFF;" d="M143.8,170.9c1,0.2,21.1,2.3,21.1,2.3l-10.8,87.1l-20.6-2L143.8,170.9z"/>
<path style="fill:#265BFF;" d="M158.1,130.2c0.7,0.8,13.3,2.4,13.3,2.4l-1.9,18.3l-13.6-1.6L158.1,130.2z"/>
<polygon style="fill:#265BFF;" points="120.9,132 135.9,133.7 137.1,132 156.7,133.7 155.4,145.6 120.1,141.8 "/>
<polygon style="fill:#265BFF;" points="179.2,133.2 178.8,143 178.8,147.1 187.6,148.8 187.6,152.4 193.5,153.1 195.3,134.3 "/>
<polygon style="fill:#265BFF;" points="208.8,135.3 207.3,145.2 207.3,149.4 205.5,164 193,162.5 194.5,153.1 196.3,134.3 "/>
<polygon style="fill:#265BFF;" points="79.7,128.7 78.7,137.8 83.9,138.1 85.3,128.9 "/>
<polygon style="fill:#265BFF;" points="63.7,156.2 61.3,169.3 82.5,171.3 82.5,167.2 83,158.1 "/>
<polygon style="fill:#265BFF;" points="71.7,176.4 88.6,178.7 87.7,194.5 73.1,192.7 69.5,192.7 "/>
<polygon style="fill:#265BFF;" points="67.8,206.4 85.3,208.9 87.7,195.5 73.1,193.7 69.5,193.7 "/>
<polygon style="fill:#31C1D1;" points="99.5,209.8 119.1,212 120.9,199 101.6,196.9 "/>
<polygon style="fill:#265BFF;" points="68.6,220.2 85.3,221.7 117.8,225.5 115.2,246.4 80.8,242.1 80.2,252 66.8,250.9 66,249.4 "/>
<polygon style="fill:#265BFF;" points="184.8,219.8 181.2,253.8 166,252.3 170,217.4 "/>
<polygon style="fill:#265BFF;" points="113.1,330.1 114.5,338.1 85,343.5 81,322.3 79.9,320.3 100.5,317.7 103.7,331.7 "/>
<polygon style="fill:#265BFF;" points="164.9,304.4 187,300.9 187,302.4 195.8,301.7 197.4,309.9 211.6,308.1 212.8,315.1 
	199.2,317 200.3,324.1 157.7,332.1 157.9,333.8 147.9,335.6 144.8,336.5 139.9,310.7 "/>
<polygon style="fill:#265BFF;" points="164.9,300.8 161.6,284.3 183.4,286.8 182.5,289 172,291.8 172.9,302 164.9,303.4 "/>
<polygon style="fill:#265BFF;" points="208.2,289.4 211.6,307.1 198.4,308.9 196.8,300.7 188,301.4 188,299.9 173.9,302 173,292.8 
	183.5,290 184.4,286.8 "/>
<polygon style="fill:#265BFF;" points="288.7,316.7 275.9,317.4 275.9,310.8 246.2,310.8 240.3,309.9 240.7,289.6 288.7,289.6 "/>
<polygon style="fill:#265BFF;" points="245.7,313.9 267.1,313.9 267.1,319.9 245.7,319.9 "/>
<polygon style="fill:#265BFF;" points="342.3,289.6 343.8,301.4 339.9,302.1 343.2,319.9 363.3,319.9 372.4,319.9 387.3,319.9 
	385.2,310.9 402.1,308 398.7,289.6 "/>
<polygon style="fill:#265BFF;" points="400.1,312.8 402.1,326.7 402.1,329 388.8,330.3 388.3,320.9 386.2,311.9 399.6,309.5 "/>
<polygon style="fill:#265BFF;" points="425.1,311.8 432.9,310.9 434.6,320.9 435.2,330.7 431.3,330.7 "/>
<polygon style="fill:#265BFF;" points="254.3,132.7 267.1,130.2 271.9,159.1 259,163.2 "/>
<polygon style="fill:#265BFF;" points="284.1,130.2 357.6,119 359.2,131.7 286.5,142.5 "/>
<path style="fill:#265BFF;" d="M340.4,137.6c1.3,0.1,15-2.2,15-2.2l2.2,14.1l-14.6,1.3L340.4,137.6z"/>
<polygon style="fill:#265BFF;" points="324.3,195.8 324.4,221.6 314.6,221.6 315,195.8 "/>
<polygon style="fill:#265BFF;" points="343.8,195.3 362.4,194.8 362.4,212.8 343.8,212.8 "/>
<polygon style="fill:#265BFF;" points="332.6,242 332.6,257.3 324.7,257.3 324.7,253.3 316.2,253.3 315.4,241.8 "/>
<polygon style="fill:#265BFF;" points="411.2,149.9 483.7,149.9 488.7,149.9 488.7,166.8 485.1,166.8 485.3,172.8 432.7,171.8 
	432.7,163.7 416.8,163.7 416.8,172.9 415.6,172.9 415.6,172.8 410.8,172.8 "/>
<polygon style="fill:#265BFF;" points="538.8,98.6 516.4,98.6 516.4,84.2 530.5,84.2 530.5,92.1 540.1,92.1 "/>
<polygon style="fill:#265BFF;" points="431.7,88.6 445.4,84.2 445.4,98.6 432.4,98.6 "/>
<polygon style="fill:#265BFF;" points="488.7,57.5 516.4,50.2 543.6,50.2 543.6,61.2 502.9,61.2 488.1,61.2 "/>
<polygon style="fill:#265BFF;" points="503.9,129 516.4,129 516.3,144 503.9,144.5 "/>
<polygon style="fill:#265BFF;" points="422.5,295.5 450.5,289.7 466.7,287.5 471.8,319.3 466.7,320.2 457.7,320.9 435.6,320.9 
	433.9,309.9 425.1,310.8 "/>
<polygon style="fill:#265BFF;" points="503.8,280.5 515,280.5 513.9,293.5 506.4,296.1 505,288.6 503.4,288.6 "/>
<polygon style="fill:#24AACE;" points="78.7,313.9 99.6,311.2 100.2,316.8 79.7,319.5 "/>
</svg>
