<?xml version="1.0" encoding="utf-8"?>
<!-- Generator: Adobe Illustrator 23.0.1, SVG Export Plug-In . SVG Version: 6.00 Build 0)  -->
<svg version="1.1" id="图层_1" xmlns="http://www.w3.org/2000/svg" xmlns:xlink="http://www.w3.org/1999/xlink" x="0px" y="0px"
	 viewBox="0 0 580 428" style="enable-background:new 0 0 580 428;" xml:space="preserve">
<g>
	<rect x="337.8" y="260.6" style="fill:#265BFF;" width="8.6" height="8.6"/>
	<rect x="346.9" y="260.6" style="fill:#265BFF;" width="8.6" height="8.6"/>
	<rect x="359.9" y="263.3" style="fill:#24AACE;" width="15.3" height="6.7"/>
	<rect x="330.3" y="255.2" style="fill:#24AACE;" width="14.6" height="2.8"/>
	<rect x="345.4" y="243.3" style="fill:#265BFF;" width="6.8" height="2.4"/>
	<polygon style="fill:#24AACE;" points="339.3,243.3 339.3,246.8 335.9,246.8 335.9,243.3 330.3,243.3 330.3,246.8 330.3,247.4 
		330.3,254.6 344.9,254.6 344.9,247.4 344.9,246.8 344.9,243.3 	"/>
	<rect x="316.8" y="243.3" style="fill:#265BFF;" width="13.1" height="14.7"/>
	<rect x="314" y="228.7" style="fill:#265BFF;" width="30.4" height="10.1"/>
	<rect x="352.4" y="243.3" style="fill:#265BFF;" width="6.8" height="2.4"/>
	<rect x="345.4" y="246.2" style="fill:#265BFF;" width="13.8" height="8.5"/>
	<rect x="413.6" y="254.1" style="fill:#265BFF;" width="6.3" height="8.5"/>
	<rect x="409.2" y="254.1" style="fill:#265BFF;" width="3.8" height="1.3"/>
	<polygon style="fill:#265BFF;" points="419.7,253.8 404.3,253.8 404.3,243.6 419.6,243.6 	"/>
	<path style="fill:#265BFF;" d="M388.2,257.8h-8.3v-2.7c0-4.3,3.5-7.8,7.8-7.8h0.5V257.8z"/>
	<path style="fill:#265BFF;" d="M388.2,268.8h-0.5c-4.3,0-7.8-3.5-7.8-7.8v-2.7h8.3V268.8z"/>
	<path style="fill:#265BFF;" d="M396.9,257.8h-8.3v-10.4h0.5c4.3,0,7.8,3.5,7.8,7.8V257.8z"/>
	<path style="fill:#265BFF;" d="M389.1,268.8h-0.5v-10.4h8.3v2.7C396.9,265.3,393.4,268.8,389.1,268.8z"/>
	<rect x="330.5" y="274.3" style="fill:#265BFF;" width="13.9" height="5.4"/>
	<rect x="345" y="274.3" style="fill:#265BFF;" width="14.1" height="5.4"/>
	<rect x="359.7" y="274.3" style="fill:#265BFF;" width="14.8" height="5.4"/>
	<rect x="375" y="274.3" style="fill:#265BFF;" width="13.5" height="5.4"/>
	<rect x="388.9" y="274.3" style="fill:#265BFF;" width="14.7" height="5.4"/>
	<rect x="317.1" y="259.1" style="fill:#265BFF;" width="13" height="20.5"/>
	<polygon style="fill:#265BFF;" points="419.9,279.6 404.1,279.6 404.1,263.1 404,254.7 405.1,254.7 405.1,254.1 408.9,254.1 
		408.9,255.7 413.2,255.7 413.2,263.1 419.9,263.1 	"/>
	<path style="fill:#265BFF;" d="M373.7,258h-7.1c-0.8,0-1.3-0.9-0.8-1.6l5.7-8.2c0.7-1,2.3-0.5,2.3,0.7L373.7,258z"/>
	<path style="fill:#265BFF;" d="M359.9,243.6h6c0.5,0,0.7,0.5,0.5,0.9l-5.4,7.9c-0.3,0.5-1.1,0.2-1.1-0.3V243.6z"/>
	<polygon style="fill:#265BFF;" points="359.2,221 367.5,238.8 344.9,238.8 344.9,228.7 	"/>
	<path style="fill:#265BFF;" d="M414,218.6V239h-20.8v-11.9l4-2.2c1.9-1.3,2.5-1.9,4-3.3l2.7-2.9H414z"/>
	<path style="fill:#265BFF;" d="M408.6,209.3l5.6,0l-0.1,9.1l-9.8-0.1l1.1-1.8c1.4-1.9,2.2-4.2,2.7-5.8L408.6,209.3z"/>
	<path style="fill:#265BFF;" d="M402.6,183.6h19.3v25h-13.7l0.3-3.7c0.3-2.9,0.1-5.8-0.5-8.7l0,0c-0.6-3.2-1.8-6.3-3.5-9.2
		L402.6,183.6z"/>
	<path style="fill:#265BFF;" d="M314.6,190.7v19h-6.3v15l35.8,0l7-4.6l-0.5-1c-1.5-3-2.6-6.2-3.3-9.5v0c-0.8-3.6-1.2-7.2-1.1-10.8
		l0.1-2.4L314.6,190.7z"/>
	<rect x="402.3" y="171.2" style="fill:#265BFF;" width="19.3" height="11.2"/>
	<path style="fill:#265BFF;" d="M351.2,191.9l6.2-0.8c1.6-0.2,3.2,0.8,3.5,2.5l4.1,19c0,0.2-0.1,0.3-0.2,0.4l-7.5,1.5
		c-1.1,0.2-2.2-0.5-2.3-1.6L351.2,191.9z"/>
	<path style="fill:#265BFF;" d="M375.3,184.1l6.1,1.6l4.6-1.6c-2-2.5-4.4-3.9-6.6-3.5C377.8,181,376.4,182.2,375.3,184.1z"/>
	<path style="fill:#265BFF;" d="M373.7,194l7.7-2.2v-5.6l-6.2-1.7C373.8,187,373.2,190.5,373.7,194z"/>
	<path style="fill:#265BFF;" d="M373.9,195.2c0.5,2.4,1,4.4,1.9,6l5.6-1.7v-7.3l-7.6,2.2C373.8,194.7,373.8,194.9,373.9,195.2z"/>
	<path style="fill:#265BFF;" d="M389.6,201.4l-8.2-1.4l-5.4,1.6c1.6,2.7,4,4,8.3,3.4C387,204.6,388.7,203.3,389.6,201.4z"/>
	<path style="fill:#265BFF;" d="M389.8,192.3c-0.6-3-1.9-5.8-3.5-8l-4.6,1.8v13.5l8,1.4C390.6,198.8,390.5,195.8,389.8,192.3z"/>
	<path style="fill:#265BFF;" d="M375.3,171.6c-2.6,0.7-4.4,2.3-5.8,4.4l4.7,2.9c1-1,2.2-1.6,3.8-1.9c0,0,0.1,0,0.1,0l-0.1-5.9
		C377.1,171.2,376.2,171.4,375.3,171.6z"/>
	<path style="fill:#265BFF;" d="M380.6,171.4l-0.1,5.6c1.7,0.3,3.3,1.1,4.6,2.3l3.8-2.6C386.3,173.8,383.6,172,380.6,171.4z"/>
	<path style="fill:#265BFF;" d="M390.2,178.3l-3.6,2.5c0.7,0.9,1.3,1.8,1.9,2.8c0.6,0.9,1.1,1.9,1.6,2.8l4-2.3
		c-0.7-1.2-1.4-2.3-2.2-3.5C391.3,179.8,390.8,179.1,390.2,178.3z"/>
	<path style="fill:#265BFF;" d="M394.6,185.5l-4.1,2.2c1.5,2.9,2.6,6,3.3,8.9l5.2-1.9C397.9,191.8,396.4,188.6,394.6,185.5z"/>
	<path style="fill:#265BFF;" d="M399.8,207.2c0.8-2.4,1.1-5,0.8-7.3c-0.1-0.8-0.3-1.7-0.5-2.7l-5.8,1.3c0.1,1.7-0.3,3.5-1.2,5.1
		L399.8,207.2z"/>
	<path style="fill:#265BFF;" d="M393.2,204.3c-0.6,0.9-1.4,1.7-2.3,2.4c-0.4,0.3-0.9,0.7-1.4,1l5.8,7.3c2.2-1.9,3.7-4.2,4.7-6.8
		L393.2,204.3z"/>
	<path style="fill:#265BFF;" d="M388.6,208.2c-1.2,0.6-2.5,1.2-4.1,1.4c-0.1,0-0.2,0-0.3,0l1.3,9.4c0,0,0.1,0,0.1,0
		c3.5-0.4,6.3-1.6,8.6-3.2L388.6,208.2z"/>
	<path style="fill:#265BFF;" d="M377.6,217.7l3.4-8.4c-1.2-0.4-2.4-0.9-3.4-1.4c-1.5-0.8-2.8-1.6-3.8-3l-5.1,2.9
		C370.8,212.8,374,216.1,377.6,217.7z"/>
	<path style="fill:#265BFF;" d="M373.7,205c-1.2-1.5-2-3.6-2.6-7.2c-0.6-3.5-1-7.6-0.8-11.3l-4.8-0.6c-0.5,5.6,0.1,11.3,0.9,14.9
		c0.6,2.7,1.4,5.1,2.3,7.2L373.7,205z"/>
</g>
<polygon style="fill:#265BFF;" points="170,214.4 168.5,232.9 167.1,232.9 165.7,248.4 166.7,248.4 165.7,258.1 181.1,259.5 
	182.1,250.3 183.2,250.3 184.6,234.9 183.2,234.7 185.1,216.1 "/>
<polygon style="fill:#265BFF;" points="47.2,175.2 88.6,179.9 87.1,197 82.3,197 81,209.8 72.6,209.3 72.3,212.4 80.8,213.9 
	80.8,217.9 71.6,217.9 71.2,222.4 86.7,224 86.7,228.9 84.5,228.9 84,234.9 82.5,234.9 80.7,256.9 65.3,255.4 40.2,253.5 
	40.9,233.8 "/>
<polygon style="fill:#265BFF;" points="74.7,174 47.8,170.8 52,123.9 63.6,114.5 94.8,118.1 93.9,130.6 85.1,129.9 83.9,139.6 
	78.3,139.1 "/>
<polygon style="fill:#265BFF;" points="40.2,332.2 69.1,326.9 62.1,287.5 65.3,257.4 40.2,255.5 38.4,318.1 "/>
<polygon style="fill:#24AACE;" points="104.2,284.7 106.6,297.1 67.5,304.6 64.1,287.5 65,279.5 "/>
<polygon style="fill:#265BFF;" points="119.3,364.5 49,376.6 40.2,332.2 69.1,326.9 65.5,306.6 106.6,299.1 "/>
<polygon style="fill:#265BFF;" points="180.1,286.1 108.6,299.1 117.5,344.8 170.3,334.9 168.7,320.4 185.7,317.8 "/>
<polygon style="fill:#265BFF;" points="113.1,183.4 117.8,182.2 122,197.2 117.5,198.5 "/>
<polygon style="fill:#265BFF;" points="175.8,118.1 172.9,144.2 163.9,143.3 163.9,147 149.6,146.2 149.6,142.5 142.9,141.8 
	142.9,145.3 119.6,144.2 120.6,133.8 95.9,130.6 96.8,118.1 "/>
<polygon style="fill:#265BFF;" points="221.2,116.5 223.4,132.3 221.2,132.3 220,150.9 215,150.9 215,141.2 208.3,140.7 
	208.3,137.5 198.6,136.5 197.1,150.9 176.8,148.9 176.8,144.2 174.9,144.2 177.8,118.1 211,118.1 "/>
<polygon style="fill:#265BFF;" points="240.9,138.5 299.9,129.9 295.9,106 222.2,116.5 224.4,133.3 239.7,133.7 "/>
<polygon style="fill:#265BFF;" points="271.4,156.9 269.9,147 274.2,145.7 273,134.7 254.1,137.6 257,159.1 "/>
<polygon style="fill:#265BFF;" points="220.2,162 246.4,162 246.4,157.8 250.4,157.8 250.4,159.9 256,159.1 253.1,137.6 
	239.9,139.5 238.7,134.7 222.2,134.3 "/>
<polygon style="fill:#265BFF;" points="234.3,180.6 245.7,180.6 287.3,174 285.1,157.4 246.7,163.8 234.7,164 234.7,164 "/>
<polygon style="fill:#265BFF;" points="381.6,119.9 377.3,91.5 355,97.2 296.9,106 300.9,129.9 "/>
<polygon style="fill:#265BFF;" points="282.1,152.1 304.1,149.5 307.1,171.2 288.3,174 286.1,156.4 283,156.9 "/>
<polygon style="fill:#265BFF;" points="307.1,148.1 307.6,155 321.2,153.4 320.5,146.7 "/>
<polygon style="fill:#265BFF;" points="306.3,158.3 315,156.9 316.8,170 308.1,171.2 "/>
<polygon style="fill:#265BFF;" points="323.8,146.1 345.1,143.3 345.4,149.5 324.5,152.7 "/>
<polygon style="fill:#265BFF;" points="296,142.1 275.2,145.7 274,134.7 294.6,131.7 "/>
<polygon style="fill:#265BFF;" points="316.3,139.5 315.4,129 296.5,131.4 298,142.4 "/>
<polygon style="fill:#265BFF;" points="322.5,138.5 350.3,134.3 349.3,124.8 320.4,128.4 "/>
<polygon style="fill:#265BFF;" points="373.3,131.6 372,122 353,124.4 354.4,134.6 "/>
<polygon style="fill:#265BFF;" points="529.3,87 395.2,86.8 514.9,52.1 516.6,52.1 516.6,58.7 529.3,58.5 "/>
<rect x="517.3" y="86" style="fill:#265BFF;" width="12.1" height="42.8"/>
<rect x="424.2" y="88" style="fill:#265BFF;" width="22" height="12.1"/>
<rect x="458.9" y="102.9" style="fill:#24AACE;" width="32" height="8.6"/>
<rect x="413.9" y="120.6" style="fill:#24AACE;" width="32" height="8.6"/>
<polygon style="fill:#265BFF;" points="518.1,194.5 525.8,194.5 533,145.7 533.5,142.4 511.9,143.3 511.9,167.7 517.3,167.3 
	518.1,179.2 511.1,179.2 511.1,182.6 517.9,182.9 "/>
<polygon style="fill:#265BFF;" points="503.3,208.9 523.8,208.9 520.7,229.1 503.3,229.1 "/>
<polygon style="fill:#265BFF;" points="506.4,195.5 506.4,207.9 523.8,207.9 525.8,195.5 "/>
<polygon style="fill:#265BFF;" points="506.4,311.7 513.3,310.3 520.7,230.1 503.3,230.1 503.3,296.3 "/>
<polygon style="fill:#24AACE;" points="488.9,238.1 502.3,238.1 502.3,296.3 505.4,312.7 513.3,311.3 512.8,316 488.9,321.5 
	488.9,317.1 "/>
<polygon style="fill:#265BFF;" points="487.4,325 512,323.9 509.9,347.3 484.1,347.3 "/>
<polygon style="fill:#265BFF;" points="474.8,268.8 484.1,266.1 488.5,280.5 479.4,283.8 "/>
<polygon style="fill:#265BFF;" points="472.5,253.6 472.5,265.7 482,265.7 482.4,253.6 "/>
<polygon style="fill:#265BFF;" points="473.5,235.7 473.5,250.5 487.8,250.5 487.8,236.2 "/>
<polygon style="fill:#265BFF;" points="417.7,216.5 417.7,227.6 490.3,227.6 490.3,206 446.6,205.6 446.5,210.3 432.1,210.1 
	432,216.6 "/>
<polygon style="fill:#265BFF;" points="447.4,178.5 447.4,198 459.8,198 459.3,178.5 "/>
<polygon style="fill:#265BFF;" points="476.1,178.5 476.1,198 487.8,197.7 487.8,178.5 "/>
<rect x="448.2" y="159.5" style="fill:#265BFF;" width="37" height="9.4"/>
<polygon style="fill:#265BFF;" points="433.2,235.7 459.3,235.7 459.8,255 433.2,255 "/>
<path style="fill:#265BFF;" d="M451.5,283c0.4,0.1,19.2,0,19.2,0l1.3,5.7l-20,2.9L451.5,283z"/>
<rect x="331.7" y="327.1" style="fill:#265BFF;" width="105.5" height="11.1"/>
<path style="fill:#265BFF;" d="M221.1,335.3c0.2,0.6,0,10.1,0,10.1H319v-10.1H221.1z"/>
<polygon style="fill:#265BFF;" points="121.8,353.2 123.4,362.7 218.1,345.4 216.5,335.3 "/>
<polygon style="fill:#265BFF;" points="171.9,324.6 211.9,318 213.4,327.5 173.2,334.6 "/>
<polygon style="fill:#265BFF;" points="218.1,327.2 326.6,327.2 326.6,316.1 218.1,317 "/>
<polygon style="fill:#265BFF;" points="529.6,139.3 529,143 533.2,143 542.7,78.2 542.7,50.1 519.2,50.1 519.2,56.3 531.2,56.1 
	531.2,89.9 531.2,130.1 "/>
<polygon style="fill:#265BFF;" points="186.9,303.1 195.7,301.7 198.2,317.1 189.4,318 "/>
<polygon style="fill:#265BFF;" points="211.5,305.8 230.8,301.7 233.1,315.4 221.1,315.4 213.4,317.5 "/>
<polygon style="fill:#265BFF;" points="233,298.1 275.9,298.1 275.9,315.1 234.1,315.9 231.8,301.7 "/>
<polygon style="fill:#24AACE;" points="213.4,269.3 233.1,268.8 232,297.1 211.5,301.7 208.5,288.6 213.4,287.7 "/>
<polygon style="fill:#265BFF;" points="245.9,202.7 238,209.7 237,233.7 260.3,233.7 260.3,201 "/>
<polygon style="fill:#265BFF;" points="274.6,198.5 303.6,194 303.6,223.8 276.9,224.7 276.9,209.7 278.8,209.7 278.6,207.2 
	274.6,207.2 "/>
<rect x="278.8" y="228.7" style="fill:#265BFF;" width="13.2" height="9.4"/>
<rect x="299.7" y="228.7" style="fill:#265BFF;" width="12.2" height="9.4"/>
<polygon style="fill:#265BFF;" points="312.6,243.1 312.6,251.6 300.7,251 300.7,243.1 "/>
<rect x="277.9" y="243.1" style="fill:#265BFF;" width="10.2" height="8.5"/>
<polygon style="fill:#265BFF;" points="247.2,238.1 247.2,259.6 259.3,260.2 259.3,254 275.9,254 275.9,238.1 "/>
<polygon style="fill:#265BFF;" points="227.3,211.3 226.1,239.9 222.8,239.9 222.8,235.1 220.2,235.1 221.3,207.2 224.4,207.2 
	224.4,211.3 "/>
<polygon style="fill:#265BFF;" points="264.7,200 273.6,198.5 273.6,223.6 273.6,233.7 264.7,233.7 "/>
<polygon style="fill:#265BFF;" points="236.3,238.1 234.1,268.8 233,297.1 276.9,297.1 276.9,312.6 302.2,312.6 302.2,252.1 
	299.7,252 299.7,243.1 289.1,243.1 289.1,252.6 276.9,252.6 276.9,255 260.3,255 260.3,261.2 246.2,260.6 246.2,245.4 242.9,245.4 
	243,238.1 "/>
<polygon style="fill:#265BFF;" points="312.6,252.6 314,312.6 303.2,312.6 303.2,252.1 "/>
<polygon style="fill:#265BFF;" points="418.3,238.1 429.9,238.1 429.9,266.9 419.9,266.9 419.6,243.6 417.7,243.6 "/>
<polygon style="fill:#265BFF;" points="432,274.3 457.2,275 457.2,282 432,282 "/>
<polygon style="fill:#265BFF;" points="481.7,287.7 487,318.8 458.2,323 456,310.1 445.6,312.4 442.1,294.5 "/>
<polygon style="fill:#265BFF;" points="438.2,327.1 438.2,332.1 442.1,332.1 442.1,345.8 474.8,345.8 474.3,332.1 472.5,321.8 "/>
<polygon style="fill:#265BFF;" points="394.5,281.1 413.1,281.1 415.8,299 398.2,301.4 "/>
<polygon style="fill:#265BFF;" points="379.9,281.1 381.7,293.9 396.4,291.3 394.5,281.1 "/>
<polygon style="fill:#265BFF;" points="341.2,281.1 344.5,300.4 378.2,294.5 375.9,281.1 "/>
<polygon style="fill:#265BFF;" points="340.2,303.9 342.6,317.8 350.4,316.9 352.3,326.1 390.1,326.1 384,296.3 "/>
<polygon style="fill:#265BFF;" points="399,305.8 417.2,303.3 420.8,326.1 402.8,326.1 "/>
<polygon style="fill:#265BFF;" points="416.7,282.1 419.9,298.9 441.3,295 441.1,293.5 451.1,291.5 450.5,283 432,283 "/>
<polygon style="fill:#265BFF;" points="420.8,302.2 441.9,298 444.6,313.4 455,311.1 457.2,323 437.2,326.1 424.5,326.1 "/>
<polygon style="fill:#265BFF;" points="432.1,150 432.1,156.6 456.8,156.6 456.8,150.3 "/>
<polygon style="fill:#265BFF;" points="460.5,145.6 460.5,158.5 485.2,158.5 485.2,150 470.5,150 470.6,145.6 "/>
<polygon style="fill:#265BFF;" points="488.9,142.4 503.7,142.4 503.7,193.1 489.3,193.1 "/>
<rect x="437.3" y="171.8" style="fill:#265BFF;" width="9.2" height="8.1"/>
<polygon style="fill:#265BFF;" points="427.5,166.7 446.6,166.7 446.6,157.6 430,157.6 430,165.6 427.5,165.6 "/>
<polygon style="fill:#265BFF;" points="427.2,185.5 439.3,185.7 439.3,181 436.3,181 436.3,170.8 443.6,170.8 443.6,167.7 
	427.5,167.7 "/>
<polygon style="fill:#265BFF;" points="317.1,291.5 329.2,290 329.9,295 317.8,297.1 "/>
<g>
	<circle style="opacity:0.52;fill:#FFFF00;" cx="267.2" cy="187.5" r="1.5"/>
	<circle style="fill:#FFFF00;" cx="267.2" cy="187.5" r="1"/>
</g>
<g>
	<circle style="opacity:0.52;fill:#FFFF00;" cx="367.5" cy="175.9" r="1.5"/>
	<circle style="fill:#FFFF00;" cx="367.5" cy="175.9" r="1"/>
</g>
<g>
	<circle style="opacity:0.52;fill:#FFFF00;" cx="370.5" cy="172.2" r="1.5"/>
	<circle style="fill:#FFFF00;" cx="370.5" cy="172.2" r="1"/>
</g>
<g>
	<circle style="opacity:0.52;fill:#FFFF00;" cx="374.1" cy="170.3" r="1.5"/>
	<circle style="fill:#FFFF00;" cx="374.1" cy="170.3" r="1"/>
</g>
<g>
	<circle style="opacity:0.52;fill:#FFFF00;" cx="377.9" cy="169.7" r="1.5"/>
	<circle style="fill:#FFFF00;" cx="377.9" cy="169.7" r="1"/>
</g>
<g>
	<circle style="opacity:0.52;fill:#FFFF00;" cx="382.2" cy="170.1" r="1.5"/>
	<circle style="fill:#FFFF00;" cx="382.2" cy="170.1" r="1"/>
</g>
<g>
	<circle style="opacity:0.52;fill:#FFFF00;" cx="386.4" cy="172.2" r="1.5"/>
	<circle style="fill:#FFFF00;" cx="386.4" cy="172.2" r="1"/>
</g>
<g>
	<circle style="opacity:0.52;fill:#FFFF00;" cx="389.6" cy="174.9" r="1.5"/>
	<circle style="fill:#FFFF00;" cx="389.6" cy="174.9" r="1"/>
</g>
<g>
	<circle style="opacity:0.52;fill:#FFFF00;" cx="392.3" cy="178.5" r="1.5"/>
	<circle style="fill:#FFFF00;" cx="392.3" cy="178.5" r="1"/>
</g>
<g>
	<circle style="opacity:0.52;fill:#FFFF00;" cx="395.6" cy="182.8" r="1.5"/>
	<circle style="fill:#FFFF00;" cx="395.6" cy="182.8" r="1"/>
</g>
<g>
	<circle style="opacity:0.52;fill:#FFFF00;" cx="365.3" cy="181.4" r="1.5"/>
	<circle style="fill:#FFFF00;" cx="365.3" cy="181.4" r="1"/>
</g>
<g>
	<circle style="opacity:0.52;fill:#FFFF00;" cx="363.6" cy="186.5" r="1.5"/>
	<circle style="fill:#FFFF00;" cx="363.6" cy="186.5" r="1"/>
</g>
<g>
	<circle style="opacity:0.52;fill:#FFFF00;" cx="363.6" cy="192.7" r="1.5"/>
	<circle style="fill:#FFFF00;" cx="363.6" cy="192.7" r="1"/>
</g>
<g>
	<circle style="opacity:0.52;fill:#FFFF00;" cx="356.2" cy="219.9" r="1.5"/>
	<circle style="fill:#FFFF00;" cx="356.2" cy="219.9" r="1"/>
</g>
<g>
	<circle style="opacity:0.52;fill:#FFFF00;" cx="366.3" cy="219.2" r="1.5"/>
	<circle style="fill:#FFFF00;" cx="366.3" cy="219.2" r="1"/>
</g>
<g>
	<circle style="opacity:0.52;fill:#FFFF00;" cx="394.9" cy="240.8" r="1.5"/>
	<circle style="fill:#FFFF00;" cx="394.9" cy="240.8" r="1"/>
</g>
<g>
	<circle style="opacity:0.52;fill:#FFFF00;" cx="366.8" cy="240.8" r="1.5"/>
	<circle style="fill:#FFFF00;" cx="366.8" cy="240.8" r="1"/>
</g>
<g>
	<circle style="opacity:0.52;fill:#FFFF00;" cx="364.8" cy="215.4" r="1.5"/>
	<circle style="fill:#FFFF00;" cx="364.8" cy="215.4" r="1"/>
</g>
<polygon style="fill:#24AACE;" points="219.5,180.6 233.3,180.6 233.7,164 220.2,162.9 "/>
<g>
	<circle style="opacity:0.52;fill:#FFFF00;" cx="230" cy="175.7" r="1.5"/>
	<circle style="fill:#FFFF00;" cx="230" cy="175.7" r="1"/>
</g>
<g>
	<circle style="opacity:0.52;fill:#FFFF00;" cx="213.4" cy="294.4" r="1.5"/>
	<circle style="fill:#FFFF00;" cx="213.4" cy="294.4" r="1"/>
</g>
<g>
	<circle style="opacity:0.52;fill:#FFFF00;" cx="218.5" cy="293.4" r="1.5"/>
	<circle style="fill:#FFFF00;" cx="218.5" cy="293.4" r="1"/>
</g>
<g>
	<circle style="opacity:0.52;fill:#FFFF00;" cx="223.5" cy="292.9" r="1.5"/>
	<circle style="fill:#FFFF00;" cx="223.5" cy="292.9" r="1"/>
</g>
<g>
	<circle style="opacity:0.52;fill:#FFFF00;" cx="228.8" cy="292.9" r="1.5"/>
	<circle style="fill:#FFFF00;" cx="228.8" cy="292.9" r="1"/>
</g>
<g>
	<circle style="opacity:0.52;fill:#FFFF00;" cx="85.6" cy="284.3" r="1.5"/>
	<circle style="fill:#FFFF00;" cx="85.6" cy="284.3" r="1"/>
</g>
<g>
	<circle style="opacity:0.52;fill:#FFFF00;" cx="86.1" cy="289.3" r="1.5"/>
	<circle style="fill:#FFFF00;" cx="86.1" cy="289.3" r="1"/>
</g>
<g>
	<circle style="opacity:0.52;fill:#FFFF00;" cx="86.6" cy="293.9" r="1.5"/>
	<circle style="fill:#FFFF00;" cx="86.6" cy="293.9" r="1"/>
</g>
<g>
	<circle style="opacity:0.52;fill:#FFFF00;" cx="87.1" cy="298.4" r="1.5"/>
	<circle style="fill:#FFFF00;" cx="87.1" cy="298.4" r="1"/>
</g>
<g>
	<circle style="opacity:0.52;fill:#FFFF00;" cx="223.7" cy="175.7" r="1.5"/>
	<circle style="fill:#FFFF00;" cx="223.7" cy="175.7" r="1"/>
</g>
</svg>
