<?xml version="1.0" encoding="utf-8"?>
<!-- Generator: Adobe Illustrator 23.0.1, SVG Export Plug-In . SVG Version: 6.00 Build 0)  -->
<svg version="1.1" id="B1" xmlns="http://www.w3.org/2000/svg" xmlns:xlink="http://www.w3.org/1999/xlink" x="0px" y="0px"
	 viewBox="0 0 580.1 428.6" style="enable-background:new 0 0 580.1 428.6;" xml:space="preserve">
<g>
	<polygon style="fill:#2D3B80;" points="315.8,128 310.6,128.9 309.2,119.1 314.5,118.2 	"/>
	<polygon style="fill:#2D3B80;" points="343.8,143.4 332.9,145.2 331.8,137.5 342.7,135.7 	"/>
	<polygon style="fill:#3582C6;" points="33.5,213.2 38.8,160.4 57.5,162.4 56.6,174.6 53,174.4 51.7,190 50.3,190.1 49.5,200.1 
		54.8,200.6 53.3,215.9 	"/>
	<path style="fill:#3582C6;" d="M38.9,159.2l1.8-15.9c0,0,1-1.4,1.6-1.4s14.5,1.6,14.5,1.6v1.1l10.5,1.1l15.1,9.4l7.2,10.1
		l-1.3,13.2c0,0-1.8,13.7,2.1,21.6c3.7,7.6,4.3,7.7,4.3,7.7l-9.2,11.5l-13-1.7l0.2-3.7l-1.1-0.1l1.4-10.7l1.2,0.1l0.9-9.5l-1.2-0.2
		l1.3-12.6l1.1,0.1l0.5-4l-19-2.5l1.1-13.6L38.9,159.2z"/>
	<polygon style="fill:#3582C6;" points="71.7,229.2 83,230.5 83.9,250.4 69.8,248.8 70.1,244.1 68.9,244.2 70,233.2 71.3,233.3 	"/>
	<path style="fill:#3582C6;" d="M110,104.4l-1.4,17.3h-1.3l-1.3,14.8l3.9,0.4l-0.4,3.7l7.5,1.1v1.3l4,0.4l-1.2,11l-16.1-1.9
		l-7.4-10.3l-4.8-18.1l1-11.6l-1-0.1l0.8-6.5c0,0,0.7-1.6,3.1-1.6C97.8,104.4,110,104.4,110,104.4z"/>
	<polygon style="fill:#3582C6;" points="123.2,123.8 123.9,115.5 136.1,117 135.9,121.2 143.1,122 144.9,104.4 110.6,104.4 
		109.3,122 	"/>
	<path style="fill:#3582C6;" d="M144.1,152.5l-1.8,19.6c0,0-0.9,0.9-1.4-0.2s-2.6-8.5-7.5-11.6c-4.9-3.2-7-4.4-12.2-5.5l1.2-11.1
		l3.2,0.4l0.1-1.4l15.1,1.8l-0.3,2.7l3.1,0.2l-0.4,5.1H144.1z"/>
	<polygon style="fill:#3582C6;" points="154.3,104.4 152.3,127.5 168.4,129.5 169.1,122.2 184.5,124.1 186.2,104.7 185.6,104.4 	"/>
	<path style="fill:#3582C6;" d="M187,104.8l-1.8,19.3h0.5l-2.5,23.7l18.8,1.7l1-27.4c0,0,0.3-0.9-1.1-2.2
		C200.5,118.6,187,104.8,187,104.8z"/>
	<polygon style="fill:#3582C6;" points="179,179 179.6,179 201.6,163.8 202,150.1 182,148.4 	"/>
	<polygon style="fill:#3582C6;" points="167.2,147.8 164.3,177.1 178.4,179 181.3,149.3 178.1,149 178.2,147.5 171.6,147 
		171.6,148.1 	"/>
	<polygon style="fill:#3582C6;" points="150.2,145.8 147.5,174.9 163.5,177 166.4,147.8 163.1,147.5 163.2,145.7 154.1,144.8 
		154,146.1 	"/>
	<path style="fill:#3582C6;" d="M237.9,145l27.4-4.8l-1-7.4h1l-0.7-7l5.4-1.1l-3.3-21.9l-7.1,1.3c0,0-0.7-0.1-2.6,1.7
		c-1.9,1.8-17.4,16.4-17.4,16.4s-0.7,0.4-0.7,2.6C238.8,127,237.9,145,237.9,145z"/>
	<polygon style="fill:#3582C6;" points="289.1,99.3 291.6,118.3 281.6,119.8 282,123 270.7,124.6 267.4,102.9 	"/>
	<polygon style="fill:#3582C6;" points="324.8,94.5 338.6,92.5 348.7,95.2 350.8,112.9 340.6,114.5 339.9,111.7 327.6,113.4 	"/>
	<polygon style="fill:#3582C6;" points="352.4,95.1 373.5,100.7 373.5,101.7 376.7,102.5 377.3,108.2 361.1,111 361,110.3 
		358.2,110.6 357.8,107.6 354.2,108.2 353.6,104 354.9,103.7 354.4,99.2 352.7,99.4 	"/>
	<path style="fill:#3582C6;" d="M358.7,134.1l21.6-3.6l0.5,4.3l-2.6,26.8c0,0-6.6,0.7-15.2,7.1C362.2,161.6,358.7,134.1,358.7,134.1
		z"/>
	<path style="fill:#3582C6;" d="M326.4,146.3l0.8,7.3l-0.8,0.2l0.4,2.9l21.2,14.8c0,0,4.6,2.5,10.3,0c2.7-1.2,3.8-2.2,3.8-2.2
		l-4.4-35.1l-3.7,0.7l1,7.1L326.4,146.3z"/>
	<polygon style="fill:#3582C6;" points="316.5,140.7 317.5,147.7 316.5,148 317,153.4 318.3,153.2 318.7,156.2 304.8,169.4 
		301.3,169.9 298.5,151 302.6,150.4 301.4,143.2 	"/>
	<path style="fill:#3582C6;" d="M283.9,153.4c0.1,0.2,2.2,18.9,2.2,18.9l14.5-2.4l-2.8-18.8L283.9,153.4z"/>
	<polygon style="fill:#3582C6;" points="267.3,154.3 267.6,155.9 268.2,155.9 270.8,174.9 285.3,172.5 283.1,153.6 276.1,154.4 
		275.9,153 	"/>
	<polygon style="fill:#3582C6;" points="256.3,156.1 263.6,154.9 263.9,156.4 266.9,156 267.1,157.8 267.8,157.7 270.2,174.9 
		258.9,176.9 	"/>
	<polygon style="fill:#3582C6;" points="238.4,158.6 238.4,163.8 254.4,177.3 258.2,176.9 255.7,156.1 	"/>
	<path style="fill:#3582C6;" d="M424.2,188.8h20.3v-7.5h10.9v4.7l7.7,0.3v61.5h-37.7v-0.8l-17,0.1l-1.8,1.3l-1.6-2.7l4.9-3.3
		c1.3-0.9,2.5-1.9,3.5-3.1l4.3-4.8c0.9-1,1.7-2.1,2.4-3.2l1.7-2.7c0.5-0.8,0.9-1.7,1.3-2.7l2.2-6l1.1-4.2c0.4-1.5,0.6-3,0.7-4.5
		l0.2-2.3l0.1-2.7c0-1.3,0-2.5-0.1-3.8l-0.3-2.9c0-0.5-0.1-0.9-0.2-1.4l-0.3-2c-0.2-1.3-0.5-2.5-0.9-3.7L424.2,188.8z"/>
	<polygon style="fill:#3582C6;" points="425.2,259.7 439.9,259.7 439.9,249.3 463.1,249.3 463.1,282.3 455.6,282.3 455.6,279.8 
		440.1,279.8 440.1,282.3 436,282.3 436,290.9 424.6,290.9 424.6,299.2 416.4,299.2 416.4,273.2 413.8,268.2 417.4,268.2 417.4,265 
		425.3,265 	"/>
	<polygon style="fill:#3582C6;" points="419.5,305.6 420.2,309.4 418.3,309.9 418.8,312.9 422,312.2 440,312.3 440,310.7 
		442.7,310.1 443.1,311.5 453.1,309.3 453.1,308.1 455.9,307.5 456.4,308.8 477.3,304.8 476.3,299.7 430.2,299.7 430.7,303.4 	"/>
	<polygon style="fill:#3582C6;" points="437.5,315.5 437.5,335.4 440.9,356.8 461.3,356.8 469.4,355.3 465.1,329.2 456.8,330.9 
		455.1,319.3 449.8,320.4 448.5,313.7 443.4,314.5 443.6,316.1 440.6,316.8 440.3,315.5 	"/>
	<polygon style="fill:#3582C6;" points="384,299.7 384,304.5 386.4,316.8 388.4,316.3 389.9,325.6 405.4,322.6 401.4,299.2 	"/>
	<polygon style="fill:#3582C6;" points="346,301.5 357.4,299.7 380.9,299.7 380.9,304.1 381.3,307.1 378.1,307.1 379.8,317.6 
		349.7,323.7 	"/>
	<polygon style="fill:#3582C6;" points="323.5,335.7 343.4,335.9 341.4,325.4 348.6,324 345,301.7 323.5,305.9 323.5,310.7 
		329.9,308.8 330.5,314.6 323.5,316.1 	"/>
	<polygon style="fill:#3582C6;" points="323.5,357 349,357 349,355.3 346.2,355.3 346.2,352.3 351.4,352.3 350,344.2 348.6,344.4 
		348,340.8 344.2,341.6 343.4,336.7 323.5,336.7 	"/>
	<path style="fill:#3582C6;" d="M400.5,163.6c0,0,4.1-0.5,15.6,11.5c9.5-10.4,10-11.5,10-11.5h13.8v-19.1h63.7
		c0,0,5.9-30.8,47.9-24.7l1.8-14.6c0,0,6.6-40.2-28.7-58.9c-7.6-3.1-21-10.3-44.2,1.4C458.6,60.1,409,87.1,409,87.1L400.5,163.6z"/>
	<path style="fill:#3582C6;" d="M345.1,204c0,0-0.3,16.1,7.1,27.6h-4.9v-0.9h-3.7v1.1h-6.9v-1.1h-4.2v-29.5L345.1,204z"/>
	<polygon style="fill:#3582C6;" points="317.1,197.9 331.9,201.2 331.9,230.8 328.5,230.8 328.5,231.8 321.2,231.8 321.2,230.7 
		317.1,230.7 	"/>
	<polygon style="fill:#3582C6;" points="301.7,200.5 316.5,198.1 316.5,230.6 313,230.6 313,231.8 305.9,231.8 305.9,230.7 
		301.7,230.7 	"/>
	<polygon style="fill:#3582C6;" points="286.4,203 301,200.7 301,230.6 297.6,230.6 297.6,231.8 290.6,231.8 290.6,230.7 
		286.4,230.7 	"/>
	<polygon style="fill:#537BB7;" points="270.9,205.5 285.6,203.2 285.6,230.6 282.2,230.6 282.2,231.8 275,231.8 275,230.6 
		270.9,230.6 	"/>
	<polygon style="fill:#3582C6;" points="255.6,208 270.1,205.7 270.1,231.1 255.6,231.1 	"/>
	<polygon style="fill:#3582C6;" points="234.8,211.4 254.8,208.2 254.8,230.5 250.8,230.5 250.8,242.8 240.4,242.8 240.4,248.7 
		232.7,248.1 	"/>
	<polygon style="fill:#3582C6;" points="243.9,255.2 243.7,276.7 231.3,276.7 232.1,255.1 233.5,255.2 233.5,256.3 239.6,256.4 
		239.6,255.3 	"/>
	<polygon style="fill:#3582C6;" points="250.3,267.5 250.3,277.2 286.9,276.7 286.9,269.7 283.9,269.7 283.9,264.6 272.8,264.6 
		272.8,267.6 	"/>
	<polygon style="fill:#3582C6;" points="302.6,272.1 302.6,264.6 311.4,264.6 311,280.5 301.1,278.9 301.1,272.3 	"/>
	<polygon style="fill:#3582C6;" points="197.2,245.6 195.9,277.5 185.4,277.5 177.5,280 176.9,278.4 180.4,244.6 184,244.9 
		183.9,246.4 187,246.6 187.1,245.2 	"/>
	<path style="fill:#3582C6;" d="M112.1,218.4c0,0,4.3,0.7,8.5,0c4.2-0.7,12-1.6,20.7-13.6c4.5,0.5,4.5,0.5,4.5,0.5l-2.7,28.5h-4.3
		l-2,16.9l-6.4-0.7l0.1-1.3l-8.4-1l-0.1,1l-12.8-1.3L112.1,218.4z"/>
	<polygon style="fill:#3582C6;" points="198.6,211.6 197.2,241.3 188.3,241 188.3,239.5 184.5,239.2 184.5,240.4 177.9,239.5 
		179,232.2 179.9,232.2 180.2,228.4 179,228.4 179.7,222 175.9,221.7 175.9,223.2 163.7,221.8 163.7,220.3 155.1,219.5 153.6,236.7 
		146.9,236.1 146.9,234.5 144,234.1 146.7,205.3 	"/>
	<polygon style="fill:#3582C6;" points="152.3,287.1 154.2,270.5 169.5,272.2 168.8,278.8 169.1,280.7 169.5,282 	"/>
	<path style="fill:#537BB7;" d="M318.7,248l8-0.1l0-11.5h20.8v1.3l5.3,0.1v-1.4h3.5c0,0,5,6.3,10.7,9c-3.6,6.8-12.6,20.5-12.6,20.5
		L322,279.4l-0.9-2.2l-0.1-8.9l4.2-0.2v-3.5h7.7l-0.1-11.6l-14.1,0V248z"/>
	<polygon style="fill:#537BB7;" points="108.7,252 104.9,288.2 137.5,292.3 151.1,287.9 153.5,266.8 157.6,267.1 158.2,261.4 
		154.9,261.2 155.1,259.6 140,258 140,256.7 129.8,255.6 129.7,256.5 120.8,255.5 120.8,254.1 	"/>
	<path style="fill:#537BB7;" d="M62.3,291.2l18.1-5.6l3.5-34.3l-14.3-1.9l-0.3,3.9l-1.4-0.1l-0.8,7.3l1.4,0.2l-0.2,4.1l-1.4-0.1
		l-0.3,1.4l-21.9-2.9l1.6-16.5h-3.6V245h-1.1l0.5-4.1l3.6,0.2l1.2-14.9l-14.7-1.7l-5.7,58.1c0,0-1.1,4.1,2.9,4.6
		S62.3,291.2,62.3,291.2z"/>
	<polygon style="fill:#3582C6;" points="47.7,352.3 61.5,331.2 76,328.4 78.6,343.4 63.1,346.8 63.6,349.9 59.4,350.8 65,384.9 
		53.5,387.2 	"/>
	<polygon style="fill:#3582C6;" points="77.4,328.1 94.2,324.9 104.5,336.6 110.9,375.8 93.8,379.2 90.6,359.4 89.3,359.6 
		86.3,345.4 83,346.4 82.4,343 79.9,343.2 	"/>
	<path style="fill:#3582C6;" d="M137.1,370.9l10.4-2l-0.9-6.2h-2l-1.8-9.4l2.2-0.4c0,0-0.9-11.5-4.3-14.5s-5.3-3.7-5.3-3.7v-1
		l2.8-12.5l-0.4-3.8h-1.4l-5.4,13.9l4.2,27.6l5.6-1.2l0.9,5.6l-5.5,1.1L137.1,370.9z"/>
	<path style="fill:#3582C6;" d="M155,336.8l-1.3-7.8l19.6-3.8l0.4,3.1l6.7-1.4l-0.3-1.4l6.7-1.2l3.1,21.1l-7.6,1.4l2.4,14.9
		l12.1-2.3v-29.8l-12.1-21.1l-45.9,8.9l0.7,3.9C139.5,321.4,150,324.9,155,336.8z"/>
	<polygon style="fill:#3582C6;" points="229.5,326.5 239.5,303.3 241.1,303.3 241.1,309.3 246.1,309.3 246.1,303.3 256.4,303.3 
		256.4,305.8 250.1,306.2 250,320.6 246.7,320.6 246.7,318.8 240.2,318.8 240.2,340.7 248.2,340.7 248.2,356.2 234.2,356.2 	"/>
	<polygon style="fill:#3582C6;" points="273,356.2 296.3,356.2 296.3,315.8 288.5,303.3 257.5,303.3 257.5,306.8 251.1,307.1 
		251.1,320.5 253.5,320.5 253.5,317.6 273.3,317.6 	"/>
	<polygon style="fill:#2D3B80;" points="357.4,322.9 362.7,322 364.7,337.2 359.4,338.1 	"/>
	
		<rect x="256.3" y="325.2" transform="matrix(-1 -1.224647e-16 1.224647e-16 -1 524.3117 660.2733)" style="fill:#2D3B80;" width="11.6" height="9.9"/>
	
		<rect x="256" y="319.8" transform="matrix(-1 -1.224647e-16 1.224647e-16 -1 524.3117 644.2569)" style="fill:#2D3B80;" width="12.3" height="4.8"/>
	
		<rect x="240.5" y="324.2" transform="matrix(-1 -1.224647e-16 1.224647e-16 -1 488.8687 655.8711)" style="fill:#2D3B80;" width="7.8" height="7.5"/>
	<polygon style="fill:#2D3B80;" points="161.6,340.6 173,338.3 173.8,343 162.4,345.2 	"/>
	<polygon style="fill:#2D3B80;" points="159.1,330.5 169.9,328.3 170.7,333 159.9,335.1 	"/>
	<polygon style="fill:#2D3B80;" points="178.7,332.3 187.2,330.6 188,335.3 179.5,337 	"/>
	<polygon style="fill:#2D3B80;" points="102.4,180.9 107.4,199.7 103.2,201 98.2,182.3 	"/>
	<polygon style="fill:#2D3B80;" points="439.7,164.7 440,184.3 435.6,184.3 435.4,164.8 	"/>
	<polygon style="fill:#2D3B80;" points="470.9,144.7 471,152.3 440.6,152.7 440.5,145.1 	"/>
	<polygon style="fill:#2D3B80;" points="455,171.3 455.1,178.9 444.6,179.1 444.5,171.5 	"/>
	<polygon style="fill:#2D3B80;" points="362.6,123.2 356.8,123.9 355.5,112.5 361.3,111.8 	"/>
	<polygon style="fill:#2D3B80;" points="371.1,122 365.3,122.8 364,111.4 369.8,110.6 	"/>
	<polygon style="fill:#2D3B80;" points="346.8,126.4 342.6,127.1 341.1,115.7 345.3,115 	"/>
	<polygon style="fill:#2D3B80;" points="334.5,126.6 330.3,127.1 329,115.7 333.3,115.2 	"/>
	<polygon style="fill:#2D3B80;" points="288,134.2 283.8,134.8 282.5,123.4 286.8,122.8 	"/>
	<polygon style="fill:#2D3B80;" points="228.5,149.4 213.2,148.8 213.9,124.1 229.3,124.6 	"/>
	<polygon style="fill:#2D3B80;" points="484.6,144.9 484.7,152.4 480,152.5 479.9,144.9 	"/>
	<polygon style="fill:#2D3B80;" points="496.8,144.7 496.9,152.3 486.2,152.4 486.2,144.9 	"/>
	<polygon style="fill:#2D3B80;" points="539.7,141.1 539.9,151.5 532.2,151.6 532.1,141.2 	"/>
	<polygon style="fill:#2D3B80;" points="350.9,119.6 351.7,125.4 347.4,126.1 346.6,120.3 	"/>
	<polygon style="fill:#2D3B80;" points="342.1,127.3 336.8,128.2 336.1,123.5 341.4,122.6 	"/>
	<polygon style="fill:#2D3B80;" points="326.2,126.3 320.9,127.1 319.6,117.3 324.8,116.4 	"/>
	<polygon style="fill:#2D3B80;" points="293.8,135.4 288.5,136.3 287.9,131.6 293.2,130.7 	"/>
	<polygon style="fill:#2D3B80;" points="265.9,131.9 265.5,126.1 269.8,125.7 270.2,131.5 	"/>
	<polygon style="fill:#2D3B80;" points="307.7,127.1 296.2,129 295.6,124.3 307,122.4 	"/>
	<polygon style="fill:#2D3B80;" points="282.8,131.3 271.3,133.2 270.6,128.5 282.1,126.6 	"/>
	<polygon style="fill:#2D3B80;" points="294.9,151 283.4,152.9 282.6,146.5 294,144.6 	"/>
	<polygon style="fill:#2D3B80;" points="525.7,141.5 531.1,141.4 531.1,146.2 525.8,146.2 	"/>
	<polygon style="fill:#2D3B80;" points="525.7,147.4 531.1,147.3 531.1,152.1 525.8,152.1 	"/>
	<polygon style="fill:#2D3B80;" points="360.5,201 363.4,220.3 359.1,221.1 356.2,201.8 	"/>
	<polygon style="fill:#2D3B80;" points="414.2,253.6 425.2,253.4 425.3,258.2 414.3,258.3 	"/>
	<polygon style="fill:#2D3B80;" points="321.4,253.6 321.5,259.4 317.1,259.5 317.1,253.6 	"/>
	<polygon style="fill:#2D3B80;" points="261.2,249 266.6,248.9 266.6,253.7 261.3,253.8 	"/>
	<polygon style="fill:#2D3B80;" points="258.5,255 270.1,254.8 270.2,264 258.6,264.2 	"/>
	
		<rect x="258.6" y="231.8" transform="matrix(-1 -1.224647e-16 1.224647e-16 -1 528.7446 474.2357)" style="fill:#2D3B80;" width="11.6" height="10.7"/>
	
		<rect x="276.9" y="236.8" transform="matrix(-1 -3.149817e-13 3.149817e-13 -1 565.2938 484.201)" style="fill:#2D3B80;" width="11.6" height="10.7"/>
	
		<rect x="299.4" y="236.8" transform="matrix(-1 -1.577741e-13 1.577741e-13 -1 610.2691 484.201)" style="fill:#2D3B80;" width="11.6" height="10.7"/>
	
		<rect x="302.6" y="253.1" transform="matrix(-1 -1.224647e-16 1.224647e-16 -1 614.0242 517.3336)" style="fill:#2D3B80;" width="8.8" height="11.2"/>
	
		<rect x="316" y="237.2" transform="matrix(1.705915e-13 -1 1 1.705915e-13 79.2708 563.4717)" style="fill:#2D3B80;" width="10.7" height="9.8"/>
	<polygon style="fill:#2D3B80;" points="273.9,253.1 284,253 284.1,264.1 274.1,264.2 	"/>
	<polygon style="fill:#2D3B80;" points="322.3,258 332.3,257.9 332.3,264 322.3,264.1 	"/>
	<polygon style="fill:#2D3B80;" points="162.3,246.1 167.6,246.5 167.2,251.3 161.9,250.8 	"/>
	<polygon style="fill:#2D3B80;" points="173.4,134.8 178.8,135.3 178.4,140 173.1,139.5 	"/>
	<polygon style="fill:#2D3B80;" points="172.1,125.8 182,126.7 181.5,133.2 171.6,132.4 	"/>
	<polygon style="fill:#2D3B80;" points="156.3,128.3 160.4,128.7 159.8,136.2 155.7,135.8 	"/>
	<polygon style="fill:#2D3B80;" points="126.3,127.8 131.6,128.2 131.3,133 125.9,132.5 	"/>
	<polygon style="fill:#2D3B80;" points="127.6,116.5 132.9,116.9 132.3,124.9 127,124.4 	"/>
	<polygon style="fill:#2D3B80;" points="109.8,125.3 120.2,126.2 119.6,133.3 109.3,132.4 	"/>
	<polygon style="fill:#2D3B80;" points="68.4,186 68,191.9 63.6,191.5 64.1,185.7 	"/>
	<polygon style="fill:#2D3B80;" points="62,182.5 61.2,193.9 54.7,193.3 55.5,182 	"/>
	<polygon style="fill:#2D3B80;" points="64.7,198.5 63.9,210.7 57,210.1 57.8,197.9 	"/>
	<polygon style="fill:#2D3B80;" points="63.1,234.4 62.4,242.8 52.3,241.7 53.1,233.3 	"/>
	<polygon style="fill:#2D3B80;" points="169.5,253.6 168.9,260.2 158.9,259.2 159.5,252.6 	"/>
	<polygon style="fill:#2D3B80;" points="173.5,230.4 173,235.5 163,234.5 163.4,229.3 	"/>
	<polygon style="fill:#2D3B80;" points="168.4,261.2 167.7,269 162.4,268.4 163.1,260.6 	"/>
	<polygon style="fill:#2D3B80;" points="55.4,250.1 54.6,260.8 48.2,260.2 48.9,249.5 	"/>
	<polygon style="fill:#2D3B80;" points="61.3,253.1 60.9,259 56.6,258.6 57,252.7 	"/>
	<polygon style="fill:#2D3B80;" points="414.3,259 424.8,258.8 424.9,264.5 414.3,264.6 	"/>
	<polygon style="fill:#2D3B80;" points="70.2,358 75.4,356.9 76.2,361.6 70.9,362.6 	"/>
	<polygon style="fill:#2D3B80;" points="76.3,356.7 81.5,355.7 82.3,360.4 77.1,361.4 	"/>
	<polygon style="fill:#2D3B80;" points="68,348 79.3,345.7 80,350.4 68.7,352.6 	"/>
	<polygon style="fill:#2D3B80;" points="471.1,335.1 472.9,347.1 468.6,347.9 466.8,335.9 	"/>
	<polygon style="fill:#2D3B80;" points="464.1,318.3 469.3,317.4 470,322.1 464.8,323 	"/>
	<polygon style="fill:#2D3B80;" points="469.8,317.3 474.1,316.5 475.6,326.5 471.3,327.3 	"/>
	
		<rect x="524" y="300.6" transform="matrix(-1 -1.224647e-16 1.224647e-16 -1 1052.394 611.338)" style="fill:#2D3B80;" width="4.3" height="10.2"/>
	<polygon style="fill:#2D3B80;" points="456.8,313.6 462.1,312.6 462.8,317.3 457.5,318.2 	"/>
	
		<rect x="446.7" y="290.9" transform="matrix(-1 -1.224647e-16 1.224647e-16 -1 898.7702 590.0358)" style="fill:#2D3B80;" width="5.3" height="8.3"/>
	<polygon style="fill:#2D3B80;" points="458.7,319.6 463.2,318.8 464.7,328.8 460.2,329.6 	"/>
	<polygon style="fill:#2D3B80;" points="481.7,333.5 483.5,345.5 479.2,346.2 477.4,334.2 	"/>
	<polygon style="fill:#2D3B80;" points="366.8,320.7 372,319.9 373.4,329.9 368.1,330.7 	"/>
	<polygon style="fill:#2D3B80;" points="372.4,319.8 377.7,319 378.3,323.7 373,324.5 	"/>
	<polygon style="fill:#2D3B80;" points="377.9,319 381.5,318.5 382.8,327.7 379.1,328.2 	"/>
	<polygon style="fill:#2D3B80;" points="342.3,326.1 346.6,325.2 349.1,340 344.8,340.9 	"/>
	<polygon style="fill:#2D3B80;" points="383.4,324.9 389.1,324 389.8,329.4 384.1,330.3 	"/>
	<polygon style="fill:#537BB7;" points="141.7,239.8 157.5,241.7 155.8,258.8 140.8,257 140.8,256.1 140,256 	"/>
	<polygon style="fill:#537BB7;" points="349.8,324.4 356.8,323.1 358.9,338.2 351.9,339.5 	"/>
	<rect x="425.7" y="251" style="fill:#537BB7;" width="13.5" height="8.1"/>
	<rect x="464.1" y="181.9" style="fill:#537BB7;" width="11.4" height="99.8"/>
	<rect x="489.4" y="181.9" style="fill:#537BB7;" width="11.4" height="81.6"/>
	<polygon style="fill:#2D3B80;" points="148.8,197.5 180.3,201.2 181.3,200.2 182.7,200.6 184.8,194.4 191.3,196.6 192.2,183.9 
		182.1,182.7 181.7,187.4 177.7,188.7 175.5,181.9 150.6,179 	"/>
	<polygon style="fill:#2D3B80;" points="257.4,199.7 268.4,197.9 268.4,190.5 272,189.1 274.3,195.1 276.3,194.7 276.9,196.5 
		299.4,192.9 299.4,178.3 257.4,184.9 	"/>
	<polygon style="fill:#2D3B80;" points="318.7,190.2 336.2,194.2 339.6,189 340.5,189.7 345.3,181.4 323.1,165.4 318.2,174.4 	"/>
	<polygon style="fill:#2D3B80;" points="410.5,204.3 415.5,207.6 402.1,231.8 397,228.5 	"/>
	<polygon style="fill:#2D3B80;" points="318.2,299.7 351.4,293.5 346,277.2 318.2,288.5 	"/>
	<polygon style="fill:#2D3B80;" points="249.3,296 275,296 275,284.5 248.4,284.5 	"/>
	<polygon style="fill:#2D3B80;" points="145.7,308.5 174.4,303.3 174.4,287.1 144,297.8 	"/>
	<polygon style="fill:#2D3B80;" points="33.5,294.6 80.9,301.7 78.6,318.2 56.6,322.1 38.9,340.3 33.5,330.1 28.5,303.3 32.6,303.3 
			"/>
	<polygon style="fill:#2D3B80;" points="110.9,341.1 126.9,343.1 124,328.4 110.3,330.3 	"/>
	<polygon style="fill:#2D3B80;" points="205.3,337.4 208.9,357.8 211.4,357.2 212,361 231.3,356.9 227.2,333.3 	"/>
	<polygon style="fill:#2D3B80;" points="302.2,324.2 315.9,327.9 315.9,314.6 302.7,314.6 	"/>
	<polygon style="fill:#2D3B80;" points="109.1,315.4 140,309.5 137.9,299.2 108.1,296 	"/>
	<path style="fill:#537BB7;" d="M187.1,284.5h50.5c0,0-2.3,28.5-25.3,27.3C190.5,310.6,187.1,292.3,187.1,284.5z"/>
	<polygon style="fill:#2D3B80;" points="281.2,296 290,296 307,299.7 307,287.1 285.3,284.5 281.2,284.5 	"/>
	<path style="fill:#537BB7;" d="M402.3,256.4l8.5,17.8v16.7l-43.9,1.2l-8.2-19.6l9.8-16.7C368.6,255.8,380.8,262.8,402.3,256.4z"/>
	<polygon style="fill:#537BB7;" points="211.2,203.2 218.3,203.2 237.9,199.7 237.9,180.6 212.4,180.6 	"/>
	<polygon style="fill:#537BB7;" points="65.8,365 83.2,361.4 86.4,380.6 68.9,384.2 	"/>
	<polygon style="fill:#537BB7;" points="156.7,348 174.1,344.2 177.1,363.1 160.1,366.6 	"/>
	<rect x="255.4" y="336.7" style="fill:#537BB7;" width="16.3" height="19.5"/>
	<polygon style="fill:#537BB7;" points="352,340.8 406.4,330 408.5,344.1 397.7,346.2 397.5,356.8 353.8,357 353.9,351.5 	"/>
	<polygon style="fill:#537BB7;" points="390.1,326.5 405.4,323.7 406,328.6 390.9,331.3 	"/>
	<polygon style="fill:#537BB7;" points="480.9,299.7 485.2,325.6 481.3,326.5 485.6,351 487.6,350.7 502.9,326.7 528.4,320.9 
		528.4,311.7 522.9,312.4 522.8,299.7 	"/>
	<rect x="456" y="163.3" style="fill:#537BB7;" width="15.1" height="18.1"/>
	<rect x="486" y="264.9" style="fill:#537BB7;" width="15.5" height="21"/>
	<polygon style="fill:#537BB7;" points="516.8,281.7 532.3,281.7 532.3,264 534.5,264 534.5,247.2 537.4,247.2 537.4,204.7 
		534.7,204.7 534.7,179.7 538.1,179.7 538.1,165.1 539.2,165.1 539.2,155.6 518.4,155.6 518.4,165.6 517.5,165.6 517.5,181.4 
		516.8,181.4 	"/>
	<polygon style="fill:#537BB7;" points="419.1,316.1 422.6,315.4 425.7,315.4 436.5,315.7 436.5,335.3 439.9,356.8 428.4,356.8 
		428.1,355.5 425.5,355.4 	"/>
</g>
</svg>
