<?xml version="1.0" encoding="utf-8"?>
<!-- Generator: Adobe Illustrator 23.0.1, SVG Export Plug-In . SVG Version: 6.00 Build 0)  -->
<svg version="1.1" id="B1" xmlns="http://www.w3.org/2000/svg" xmlns:xlink="http://www.w3.org/1999/xlink" x="0px" y="0px"
	 viewBox="0 0 580.1 428.6" style="enable-background:new 0 0 580.1 428.6;" xml:space="preserve">
<g>
	<path style="fill:#2D3B80;" d="M209.4,155H229c3.1,0,5.7,2.5,5.7,5.7V193c0,3.1-2.5,5.7-5.7,5.7h-19.7c-3.1,0-5.7-2.5-5.7-5.7
		v-32.4C203.7,157.5,206.2,155,209.4,155z"/>
	<path style="fill:#2D3B80;" d="M243.5,155h19.7c3.1,0,5.7,2.5,5.7,5.7V193c0,3.1-2.5,5.7-5.7,5.7h-19.7c-3.1,0-5.7-2.5-5.7-5.7
		v-32.4C237.8,157.5,240.3,155,243.5,155z"/>
	<path style="fill:#2D3B80;" d="M277.2,155h19.7c3.1,0,5.7,2.5,5.7,5.7V193c0,3.1-2.5,5.7-5.7,5.7h-19.7c-3.1,0-5.7-2.5-5.7-5.7
		v-32.4C271.5,157.5,274,155,277.2,155z"/>
	<g>
		<path style="fill:#2D3B80;" d="M311.6,155H367c3.1,0,5.7,2.5,5.7,5.7V193c0,3.1-2.5,5.7-5.7,5.7h-55.5c-3.1,0-5.7-2.5-5.7-5.7
			v-32.4C305.9,157.5,308.4,155,311.6,155z"/>
	</g>
	<path style="fill:#2D3B80;" d="M209.4,229.5H229c3.1,0,5.7,2.5,5.7,5.7v32.4c0,3.1-2.5,5.7-5.7,5.7h-19.7c-3.1,0-5.7-2.5-5.7-5.7
		v-32.4C203.7,232,206.2,229.5,209.4,229.5z"/>
	<path style="fill:#2D3B80;" d="M243.5,229.5h19.7c3.1,0,5.7,2.5,5.7,5.7v32.4c0,3.1-2.5,5.7-5.7,5.7h-19.7c-3.1,0-5.7-2.5-5.7-5.7
		v-32.4C237.8,232,240.3,229.5,243.5,229.5z"/>
	<path style="fill:#2D3B80;" d="M277.2,229.5h19.7c3.1,0,5.7,2.5,5.7,5.7v32.4c0,3.1-2.5,5.7-5.7,5.7h-19.7c-3.1,0-5.7-2.5-5.7-5.7
		v-32.4C271.5,232,274,229.5,277.2,229.5z"/>
	<path style="fill:#2D3B80;" d="M311.6,229.5H367c3.1,0,5.7,2.5,5.7,5.7v32.4c0,3.1-2.5,5.7-5.7,5.7h-55.5c-3.1,0-5.7-2.5-5.7-5.7
		v-32.4C305.9,232,308.4,229.5,311.6,229.5z"/>
	<path style="fill:#3583C7;" d="M516.2,382.9H405.8c-3.1,0-5.7-2.5-5.7-5.7v-56.4c0-3.1,2.5-5.7,5.7-5.7h110.4
		c3.1,0,5.7,2.5,5.7,5.7v56.4C521.8,380.3,519.3,382.9,516.2,382.9z"/>
	<path style="fill:#3583C7;" d="M391.2,315.2H185.9v-48.4c0-3.1-2.5-5.7-5.7-5.7H69.8c-3.1,0-5.7,2.5-5.7,5.7v110.4
		c0,3.1,2.5,5.7,5.7,5.7h110.4c0.2,0,0.5,0,0.7,0h210.3c3.1,0,5.7-2.5,5.7-5.7v-56.3C396.8,317.7,394.3,315.2,391.2,315.2z"/>
	<path style="fill:#3583C7;" d="M180.1,257.9H86.2c-3.1,0-5.7-2.5-5.7-5.7v-77.1c0-3.1,2.5-5.7,5.7-5.7h93.9c3.1,0,5.7,2.5,5.7,5.7
		v77.1C185.8,255.4,183.2,257.9,180.1,257.9z"/>
	<path style="fill:#3583C7;" d="M229,125.6H63.9c-3.1,0-5.7-2.5-5.7-5.7V51.3c0-3.1,2.5-5.7,5.7-5.7H229c3.1,0,5.7,2.5,5.7,5.7V120
		C234.7,123.1,232.2,125.6,229,125.6z"/>
	<path style="fill:#3583C7;" d="M333.6,91.2h-90.3c-3.1,0-5.7-2.5-5.7-5.7V51.3c0-3.1,2.5-5.7,5.7-5.7h90.3c3.1,0,5.7,2.5,5.7,5.7
		v34.2C339.2,88.7,336.7,91.2,333.6,91.2z"/>
	<path style="fill:#3583C7;" d="M333.6,139.8h-90.3c-3.1,0-5.7-2.5-5.7-5.7V99.9c0-3.1,2.5-5.7,5.7-5.7h90.3c3.1,0,5.7,2.5,5.7,5.7
		v34.2C339.2,137.2,336.7,139.8,333.6,139.8z"/>
	<path style="fill:#3583C7;" d="M516.2,311.6H405.8c-3.1,0-5.7-2.5-5.7-5.7v-34.2c0-3.1,2.5-5.7,5.7-5.7h110.4
		c3.1,0,5.7,2.5,5.7,5.7V306C521.8,309.1,519.3,311.6,516.2,311.6z"/>
	<path style="fill:#3583C7;" d="M488.7,262.9h-82.9c-3.1,0-5.7-2.5-5.7-5.7V223c0-3.1,2.5-5.7,5.7-5.7h82.9c3.1,0,5.7,2.5,5.7,5.7
		v34.2C494.4,260.4,491.9,262.9,488.7,262.9z"/>
	<path style="fill:#3583C7;" d="M516,45.7H351.1c-3.1,0-5.7,2.5-5.7,5.7v82.8c0,3.1,2.5,5.7,5.7,5.7h50v19.1
		c-0.2,0.6-0.3,1.1-0.3,1.8v48.1c0,3.1,2.5,5.6,5.6,5.6h83c3.1,0,5.6-2.5,5.6-5.6v-42.4H516c3.1,0,5.7-2.5,5.7-5.7v-26.5v-21V51.3
		C521.6,48.2,519.1,45.7,516,45.7z"/>
</g>
</svg>
