<?xml version="1.0" encoding="utf-8"?>
<!-- Generator: Adobe Illustrator 23.0.1, SVG Export Plug-In . SVG Version: 6.00 Build 0)  -->
<svg version="1.1" id="图层_1" xmlns="http://www.w3.org/2000/svg" xmlns:xlink="http://www.w3.org/1999/xlink" x="0px" y="0px"
	 viewBox="0 0 580 428" style="enable-background:new 0 0 580 428;" xml:space="preserve">
<rect x="343.4" y="188.5" style="fill:#31C1D1;" width="15.3" height="14.1"/>
<polygon style="fill:#265BFF;" points="70.5,137.7 141,146.1 138.3,166.8 66.7,160.1 "/>
<polygon style="fill:#31C1D1;" points="107.6,172.4 106.2,188.4 125.5,190.5 127.4,174.1 "/>
<rect x="423.3" y="158.2" style="fill:#31C1D1;" width="13" height="13.2"/>
<rect x="406.7" y="224" style="fill:#31C1D1;" width="14.6" height="20.6"/>
<rect x="465.1" y="132.2" style="fill:#31C1D1;" width="13.5" height="8.6"/>
<g>
	<circle style="opacity:0.52;fill:#FFFF00;" cx="111.6" cy="178.5" r="1.5"/>
	<circle style="fill:#FFFF00;" cx="111.6" cy="178.5" r="1"/>
</g>
<g>
	<circle style="opacity:0.52;fill:#FFFF00;" cx="427.2" cy="163.3" r="1.5"/>
	<circle style="fill:#FFFF00;" cx="427.2" cy="163.3" r="1"/>
</g>
<g>
	<circle style="opacity:0.52;fill:#FFFF00;" cx="427.2" cy="168.3" r="1.5"/>
	<circle style="fill:#FFFF00;" cx="427.2" cy="168.3" r="1"/>
</g>
<g>
	<circle style="opacity:0.52;fill:#FFFF00;" cx="350.2" cy="197.6" r="1.5"/>
	<circle style="fill:#FFFF00;" cx="350.2" cy="197.6" r="1"/>
</g>
<g>
	<circle style="opacity:0.52;fill:#FFFF00;" cx="416" cy="232" r="1.5"/>
	<circle style="fill:#FFFF00;" cx="416" cy="232" r="1"/>
</g>
<g>
	<circle style="opacity:0.52;fill:#FFFF00;" cx="413.7" cy="225.5" r="1.5"/>
	<circle style="fill:#FFFF00;" cx="413.7" cy="225.5" r="1"/>
</g>
<g>
	<circle style="opacity:0.52;fill:#FFFF00;" cx="469.1" cy="136.5" r="1.5"/>
	<circle style="fill:#FFFF00;" cx="469.1" cy="136.5" r="1"/>
</g>
<g>
	<circle style="opacity:0.52;fill:#FFFF00;" cx="475.4" cy="136.5" r="1.5"/>
	<circle style="fill:#FFFF00;" cx="475.4" cy="136.5" r="1"/>
</g>
<g>
	<circle style="opacity:0.52;fill:#FFFF00;" cx="111.1" cy="183" r="1.5"/>
	<circle style="fill:#FFFF00;" cx="111.1" cy="183" r="1"/>
</g>
<polygon style="fill:#265BFF;" points="59.2,116.1 83.7,119 82.6,131.3 58,128.4 "/>
<polygon style="fill:#265BFF;" points="148.5,148.3 137.5,249.4 155.8,250.9 156.6,244.1 154.1,243.4 154.6,236.3 148.3,235.9 
	150.5,216.3 159.6,217.3 167.9,150.3 "/>
<polygon style="fill:#265BFF;" points="176.9,151 195.5,153.1 190.5,206.5 180.2,205.2 179.7,209.8 169.9,209 "/>
<polygon style="fill:#265BFF;" points="158.4,251.6 181.2,254.2 181.7,247.1 159.3,244.7 "/>
<polygon style="fill:#265BFF;" points="206,154.6 223.5,156.3 217.5,213.3 208.8,211.7 209.2,208.8 199.1,207.3 "/>
<polygon style="fill:#265BFF;" points="186.6,254.3 214,257.2 214.8,247.1 187,244.1 "/>
<polygon style="fill:#265BFF;" points="208.2,213.3 216.8,215 214.8,247.1 203.8,245.9 "/>
<polygon style="fill:#265BFF;" points="231.3,157.3 249.4,157.3 250.2,257.2 229.1,257.2 "/>
<polygon style="fill:#265BFF;" points="256.5,154.6 274.8,152.2 276.7,193.4 258.7,193.4 "/>
<rect x="258.5" y="215.5" style="fill:#265BFF;" width="17.3" height="8.5"/>
<rect x="257.5" y="242.9" style="fill:#265BFF;" width="19.1" height="13.5"/>
<polygon style="fill:#265BFF;" points="283.5,151 286,164.8 286,257.2 303.9,257.2 305.1,184.5 301.6,148.3 "/>
<polygon style="fill:#265BFF;" points="311.6,146.8 329.2,144.6 333,164.4 333,223 313.7,223 313.4,180.4 "/>
<polygon style="fill:#265BFF;" points="338.8,144.6 341.2,158.9 341.8,186.2 359.1,186.2 360.1,157.2 357.3,140.8 "/>
<polygon style="fill:#265BFF;" points="342.3,205.2 359.3,205.2 360.1,256.4 341.3,256.4 "/>
<polygon style="fill:#265BFF;" points="366.9,139.3 368.6,152.2 369.6,163.3 387.9,163.3 387.9,150.1 384.9,138 "/>
<polygon style="fill:#265BFF;" points="370.3,168.3 386.9,168.3 387.9,256.4 369.1,256.4 "/>
<polygon style="fill:#265BFF;" points="397.2,138 397.2,228 405.5,228 405.5,222.5 414.7,222.5 414.9,176.1 406.7,176.6 406.6,137.5 "/>
<rect x="397.2" y="245.7" style="fill:#265BFF;" width="18.8" height="11.5"/>
<polygon style="fill:#265BFF;" points="443.6,158.5 444.5,257.2 425.6,257.2 425.6,174.2 438.8,174.2 439,158.5 "/>
<polygon style="fill:#265BFF;" points="452.1,161.8 473.8,162.3 473,256.4 452.1,257.2 "/>
<polygon style="fill:#265BFF;" points="480.7,158.5 498.6,158.5 499.6,257.2 480.7,256.4 "/>
<polygon style="fill:#265BFF;" points="508.4,162.3 508.4,170.9 520.2,170.9 522.1,162.3 "/>
<rect x="407.5" y="133" style="fill:#265BFF;" width="10" height="8.8"/>
<path style="fill:#265BFF;" d="M431.3,133c0.5-0.3,10.1,0,10.1,0v8.8h-10.1V133z"/>
<rect x="397.2" y="94.1" style="fill:#265BFF;" width="17.7" height="29.1"/>
<rect x="424.8" y="94.1" style="fill:#265BFF;" width="19.7" height="28.3"/>
<polygon style="fill:#265BFF;" points="463,60.8 471.8,59 471.8,123.2 452.1,123.2 452.1,80.5 462,80.5 "/>
<polygon style="fill:#265BFF;" points="481.3,55.5 481.3,123.2 499.6,123.2 499.6,49.7 "/>
<rect x="507.8" y="52.5" style="fill:#265BFF;" width="10.3" height="18.3"/>
<rect x="510.3" y="94.9" style="fill:#265BFF;" width="8.6" height="32.9"/>
<rect x="489.3" y="150.6" style="fill:#265BFF;" width="9.3" height="6.9"/>
<polygon style="fill:#265BFF;" points="505.9,294.3 502.3,332.5 494.1,332.5 495.3,296 "/>
<polygon style="fill:#265BFF;" points="477.3,268.2 477.3,313.4 487,313.4 487,269 "/>
<rect x="461.6" y="268.2" style="fill:#265BFF;" width="12.3" height="10.1"/>
<path style="fill:#265BFF;" d="M391.9,268.2c0.8-0.2,49.2,0,49.2,0v10.1h-47.7L391.9,268.2z"/>
<polygon style="fill:#265BFF;" points="399.7,322.4 482.2,322.4 482.8,313.4 399.7,313.4 "/>
<rect x="315.6" y="313" style="fill:#265BFF;" width="70.3" height="9.8"/>
<polygon style="fill:#265BFF;" points="319.2,268.2 319.2,278.3 374.4,278.3 374.4,268.9 "/>
<rect x="301.9" y="304.1" style="fill:#265BFF;" width="13.6" height="9.3"/>
<polygon style="fill:#265BFF;" points="218.5,321.6 301.9,321.6 301.9,332.7 220.5,333.7 "/>
<rect x="239.7" y="302.8" style="fill:#265BFF;" width="48.5" height="11.8"/>
<rect x="236.8" y="267.2" style="fill:#265BFF;" width="64.3" height="11.1"/>
<polygon style="fill:#265BFF;" points="224.4,274.7 235.1,273.2 237.9,308.8 229.1,309.9 "/>
<rect x="288.1" y="278.3" style="fill:#265BFF;" width="13" height="9.6"/>
<rect x="279" y="288.6" style="fill:#265BFF;" width="9.1" height="14.1"/>
<polygon style="fill:#265BFF;" points="54,350.8 55.8,362.6 218.5,333.3 215.6,322.6 "/>
<polygon style="fill:#265BFF;" points="67.2,331.9 68.8,341.2 134.9,329 131.6,318.7 "/>
<polygon style="fill:#265BFF;" points="159.2,326.2 202,318.3 211.4,316.7 210.3,306.6 157.5,316.8 "/>
<polygon style="fill:#265BFF;" points="207.7,277.5 219.5,276.5 221.5,311.9 210.9,312.4 210.3,306.6 "/>
<polygon style="fill:#265BFF;" points="166.6,263.8 214.8,267.7 214.8,276.9 207.7,277.5 166,273.2 "/>
<polygon style="fill:#265BFF;" points="137.5,261.7 135.7,275.1 140.7,301.6 158.4,298.6 154.5,276.5 155.3,263.8 "/>
<polygon style="fill:#265BFF;" points="141.6,307.6 150.6,305.8 149.5,300.1 140.7,301.6 "/>
<polygon style="fill:#265BFF;" points="109.6,257.2 127.4,258.5 126.4,274.2 133.2,313.2 117.6,315.5 116,306.2 112.5,306.3 
	107.6,275.9 "/>
<polygon style="fill:#265BFF;" points="82.6,254.2 90.5,254.7 89.4,268 81.2,267.2 "/>
<polygon style="fill:#265BFF;" points="89.4,273.3 96.8,272.7 101.1,294.7 92.3,296 "/>
<polygon style="fill:#265BFF;" points="80.7,282.9 89.4,281.2 93.6,307.6 85.9,309 "/>
<polygon style="fill:#265BFF;" points="58,252.4 57.5,301.6 57.5,305.9 60.9,332.9 79.3,328.7 69.9,276.3 71.7,252.4 "/>
<polygon style="fill:#265BFF;" points="60.3,231.6 71.9,232.3 71.9,241.9 59.4,241.4 "/>
<polygon style="fill:#265BFF;" points="61.8,187.4 71.1,188.2 70.4,197.6 61.2,197.6 "/>
<polygon style="fill:#31C1D1;" points="128.1,177 136.8,177.5 129.2,248.3 110.1,246.2 116.8,190.5 126.2,191.6 "/>
<polygon style="fill:#265BFF;" points="160.7,139.6 166,139.6 166.4,131.1 161,130.7 "/>
<polygon style="fill:#265BFF;" points="190.4,111.9 189.8,125.7 197.9,127.2 199,111.9 "/>
<polygon style="fill:#265BFF;" points="209,115.5 207.7,129.9 215.9,130.7 215.9,129.5 227,129.7 227,117.3 219.5,117 "/>
<polygon style="fill:#265BFF;" points="235.8,127.6 261.9,123.8 264.1,141.4 239.7,145.4 "/>
<polygon style="fill:#265BFF;" points="228.2,109.4 229.7,119.8 377.4,97.4 374.6,86.1 354.1,92 "/>
<polygon style="fill:#265BFF;" points="365.6,108.7 377.4,107.1 379.2,124.3 367.9,126 "/>
<polygon style="fill:#265BFF;" points="63.9,168 62.7,183 77.8,184.5 79.3,169.8 "/>
<path style="fill:#265BFF;" d="M85.1,116.1c0.4-0.1,13.9,1,13.9,1v-2.3l25.5,2.3l-0.6,6.7l-3.8-0.6l-0.8,12.4l-18.3-2.1l0.3-5
	l-3.5-0.2l-0.2,4.8l-14-1.6L85.1,116.1z"/>
<polygon style="fill:#31C1D1;" points="167.4,111.9 167.4,113.7 169.1,113.7 167.6,125.7 125.6,120.8 126.3,114.1 129.6,114.1 
	129.6,111.9 "/>
<polygon style="fill:#265BFF;" points="176.6,111.9 176.1,118.4 189.1,119.5 189.4,111.9 "/>
<polygon style="fill:#265BFF;" points="197.4,128.5 196.3,142.4 166.6,139.7 167.1,131.1 180.8,132.3 181.2,125.7 "/>
<polygon style="fill:#265BFF;" points="168.6,124 180.6,125.1 180.2,131.7 157.9,129.7 158.5,125.4 168.2,126.5 "/>
<path style="fill:#265BFF;" d="M124.9,123.4l32.8,3.3l-0.4,3.5l3.1,0.4l-0.3,9.1c0,0-23.6-1.6-23.6-1.8c0-0.2-0.1-4.4-0.1-4.4
	l-12.1-1.2L124.9,123.4z"/>
<polygon style="fill:#265BFF;" points="212.4,111.9 227.2,109.4 228.2,116.5 226.2,116.5 220.8,116.5 212.4,115.2 "/>
<polygon style="fill:#265BFF;" points="208.9,134.1 216.2,134.3 216.5,130.7 221.5,130.7 221,142.9 208.2,143.2 "/>
<polygon style="fill:#265BFF;" points="262.9,123.8 364.6,108.7 366.8,124.7 264.9,139.2 "/>
<polygon style="fill:#31C1D1;" points="395.5,78.7 399.1,91.1 427.4,83.2 424.1,70.8 "/>
<rect x="301.9" y="270.6" style="fill:#31C1D1;" width="13.6" height="33.5"/>
<polygon style="fill:#265BFF;" points="259.9,194.3 274.8,194.3 274.4,215.2 260.1,215.2 "/>
<path style="fill:#265BFF;" d="M259.2,225c0.2,0,16.6,0,16.6,0l0.8,16.9h-17.2L259.2,225z"/>
<polygon style="fill:#265BFF;" points="315.5,224.6 330.4,224.6 330.6,256.4 320.9,256.4 320.7,241.9 315.7,241.9 "/>
<polygon style="fill:#265BFF;" points="399.3,228.8 405.1,228.8 405.1,243.6 404.3,243.6 404.4,244.2 399.3,244.2 "/>
<polygon style="fill:#265BFF;" points="418.3,133.6 418.3,141.8 430.3,142.1 430.3,133.6 "/>
<rect x="412.5" y="149.4" style="fill:#265BFF;" width="15.2" height="7.3"/>
<rect x="412.5" y="158.2" style="fill:#265BFF;" width="9.1" height="13.2"/>
<rect x="431.3" y="143.4" style="fill:#265BFF;" width="21" height="6"/>
<rect x="446.6" y="133" style="fill:#265BFF;" width="17.8" height="9.1"/>
<polygon style="fill:#265BFF;" points="455.2,143.7 469.1,143.4 469.1,149.4 468.5,149.4 468.5,151.8 461.1,151.8 461.3,158.5 
	455.2,158.5 "/>
<rect x="469.6" y="151.4" style="fill:#265BFF;" width="10.2" height="7.9"/>
<polygon style="fill:#265BFF;" points="488.4,133 497.6,133 497.6,143.9 488.4,143.6 "/>
<polygon style="fill:#265BFF;" points="483.7,133.3 483.7,143.6 488.4,143.6 488.4,133 "/>
<polygon style="fill:#265BFF;" points="480.3,144.6 480.3,149.6 497.6,149.6 497.6,144.9 487.6,144.6 483.7,144.6 "/>
<rect x="469.9" y="142.4" style="fill:#265BFF;" width="9.2" height="6.7"/>
<polygon style="fill:#265BFF;" points="500.5,49 511.1,46.5 536.6,46.5 536.6,56.9 518.9,56.6 518.9,51.7 500.9,52 "/>
<polygon style="fill:#265BFF;" points="518.9,57.7 536.6,57.7 536.6,69.2 534.2,83.6 518.6,83.6 "/>
<polygon style="fill:#265BFF;" points="510.3,71.7 518.1,71.7 517.8,84.2 533.8,84.2 533.8,86.8 524,86.8 523.8,94.2 510,94.2 "/>
<polygon style="fill:#265BFF;" points="510,128.9 526.7,128.9 524.1,149.1 510.3,149.4 "/>
<polygon style="fill:#265BFF;" points="510.3,161.7 522.1,161.4 524.1,150.1 510.3,150.5 "/>
<polygon style="fill:#265BFF;" points="151.4,217.4 176.1,219.4 176.6,210.7 180.6,210.7 181,206.4 189,207.2 188.8,211.3 
	194.1,211.6 194.1,208.1 207.2,209.8 203,244.7 192.8,243.6 192.9,240 184.2,239.2 183.7,245.9 155.4,242.7 155.9,235.5 
	149.4,234.8 "/>
<polygon style="fill:#265BFF;" points="441.8,65.6 441.8,74.1 461.8,74.1 462,60.3 "/>
<polygon style="fill:#265BFF;" points="455.1,74.7 461.6,74.7 461.6,80 455.4,80 "/>
<polygon style="fill:#265BFF;" points="441.3,74.1 441.8,93.5 427,93.5 428,83.3 426.6,78.3 435.2,78.7 435.4,74.1 "/>
<polygon style="fill:#265BFF;" points="413.2,93.5 426.4,93.5 427.2,83.8 413.2,87.9 "/>
<polygon style="fill:#265BFF;" points="510.3,173.6 519.7,173.6 518.4,186.3 510.7,186.3 "/>
<polygon style="fill:#265BFF;" points="508.4,187.7 509,214 514,214 518.4,187.7 "/>
<polygon style="fill:#265BFF;" points="496.4,269.5 508.9,269.5 506.4,292.8 496.4,294.3 "/>
<polygon style="fill:#265BFF;" points="392.5,279.7 410.3,279.7 416,311.7 398.5,311.7 "/>
<polygon style="fill:#265BFF;" points="412.8,279.7 418.4,311.7 453.2,312.3 453.2,310.5 466.5,308.4 467.7,312.3 475.8,312.3 
	476.3,279.7 "/>
<polygon style="fill:#265BFF;" points="442.4,269.1 460.4,269.1 460.4,277.4 442.4,277.7 "/>
<polygon style="fill:#265BFF;" points="337.8,291.5 352.8,289.6 354.4,302.8 341,305.2 "/>
<polygon style="fill:#265BFF;" points="361.8,288 374.8,286.2 376.8,298.8 364.8,301.1 "/>
<polygon style="fill:#265BFF;" points="374.4,279.2 380,279.2 385.5,311.7 373.8,312.3 371.8,301.1 378.5,299.9 "/>
<polygon style="fill:#265BFF;" points="316.6,292.1 335.8,292.5 336.9,289.6 356.3,286.2 355.2,283.2 360.5,282.3 361.8,285.6 
	362.2,286.7 372.8,285.3 371.8,279.2 316.6,279.7 "/>
<polygon style="fill:#265BFF;" points="316.6,293.3 316.6,311.7 349.2,311.7 348.2,306.3 338.8,308.7 335.5,293.7 "/>
<polygon style="fill:#265BFF;" points="236.8,279.2 287.4,279.2 287.4,285.4 276.7,285.4 276.4,300.3 257.9,300.3 258,285.6 
	246.2,285.5 246.3,299.9 238.4,299.7 "/>
<polygon style="fill:#265BFF;" points="145.7,318.7 156.4,317.5 157,323.5 147.5,325.2 "/>
<polygon style="fill:#265BFF;" points="143.8,308.7 152,306.6 150.6,301.1 168.4,298 167.6,292.2 185.2,289.4 186.2,293.8 
	197.8,292 199.8,304.4 144.7,313.7 "/>
<polygon style="fill:#265BFF;" points="166,274.3 204.6,278.3 206.8,278.7 209.2,305.8 201.6,306.6 200.2,296 199.4,291.6 
	199.2,290.8 187.3,292.6 185.8,287.9 167.3,291.2 165.2,279.2 "/>
<polygon style="fill:#265BFF;" points="85.4,310.1 95.2,308.2 93.1,297.5 101.5,296 103.7,308.4 114.5,307.6 116.5,317.5 
	130.6,315.5 130.6,318.1 89.4,326.2 "/>
<polygon style="fill:#265BFF;" points="91.3,256.1 98.7,257.2 97,271.4 88.9,271.1 88.1,274.3 88.8,280.2 81.8,281.7 80.7,275.5 
	81.9,268 90.5,268.9 "/>
<polygon style="fill:#265BFF;" points="73.1,241.9 85.9,242.8 88.7,224.1 60.5,221.2 60,228.9 68.4,229.1 68.4,230.8 73.1,231.2 "/>
<polygon style="fill:#265BFF;" points="62.7,198.4 75,198.4 74,206.4 89.7,207.9 88.7,222.7 60.8,219.9 "/>
<polygon style="fill:#265BFF;" points="80.4,169.9 102.3,172.1 101.4,181.5 106.2,181.9 105.5,187.8 102.2,219.7 89.7,218.4 
	91.3,200.2 82.2,199.6 82.8,188.5 62.1,186.6 62.1,184 78.6,185.6 "/>
</svg>
